<svg xmlns="http://www.w3.org/2000/svg" xmlns:xlink="http://www.w3.org/1999/xlink" width="500" zoomAndPan="magnify" viewBox="0 0 375 374.999991" height="500" preserveAspectRatio="xMidYMid meet" version="1.0"><defs><clipPath id="4bb5067419"><path d="M 37.5 74.046875 L 337 74.046875 L 337 301 L 37.5 301 Z M 37.5 74.046875 " clip-rule="nonzero"/></clipPath></defs><g clip-path="url(#4bb5067419)"><path fill="#fffefe" d="M 334.769531 74.753906 C 333.367188 74.035156 331.660156 74.304688 330.539062 75.429688 C 320.851562 85.132812 313.3125 96.386719 308.128906 108.878906 C 306.179688 113.585938 303.917969 119.5625 301.480469 126.015625 C 297.652344 136.132812 293.339844 147.535156 289.121094 156.886719 C 274.339844 160.238281 265.652344 152.035156 255.648438 142.585938 C 246.769531 134.199219 237.589844 125.53125 223.632812 125.53125 C 207.105469 125.53125 194.960938 132.109375 187.136719 138.382812 C 179.308594 132.109375 167.167969 125.53125 150.640625 125.53125 C 136.683594 125.53125 127.5 134.199219 118.625 142.585938 C 108.617188 152.03125 99.910156 160.210938 85.148438 156.886719 C 80.933594 147.535156 76.621094 136.132812 72.792969 126.015625 C 70.355469 119.5625 68.09375 113.585938 66.140625 108.878906 C 60.960938 96.386719 53.417969 85.132812 43.730469 75.429688 C 42.609375 74.304688 40.898438 74.035156 39.5 74.753906 C 38.09375 75.46875 37.304688 77.007812 37.542969 78.570312 C 37.691406 79.519531 52.238281 174.109375 59.46875 210.320312 C 67.3125 249.589844 157.804688 300.988281 187.136719 300.988281 C 216.46875 300.988281 306.960938 249.589844 314.800781 210.320312 C 322.03125 174.109375 336.582031 79.519531 336.726562 78.570312 C 336.964844 77.007812 336.179688 75.46875 334.769531 74.753906 Z M 307.644531 208.886719 C 300.703125 243.652344 213.441406 293.675781 187.136719 293.675781 C 160.828125 293.675781 73.570312 243.652344 66.625 208.886719 C 60.992188 180.675781 50.875 116.730469 46.671875 89.785156 C 51.878906 96.5 56.140625 103.828125 59.398438 111.683594 C 61.328125 116.332031 63.558594 122.230469 65.964844 128.601562 C 70.058594 139.414062 74.691406 151.675781 79.246094 161.535156 C 79.695312 162.511719 80.554688 163.238281 81.585938 163.523438 C 101.332031 168.976562 113.171875 157.773438 123.628906 147.90625 C 131.832031 140.160156 139.578125 132.84375 150.640625 132.84375 C 166.6875 132.84375 178.027344 139.941406 184.710938 145.894531 C 186.09375 147.128906 188.175781 147.128906 189.558594 145.894531 C 196.246094 139.941406 207.582031 132.84375 223.632812 132.84375 C 234.691406 132.84375 242.441406 140.160156 250.640625 147.90625 C 261.09375 157.769531 272.921875 168.96875 292.683594 163.523438 C 293.71875 163.238281 294.574219 162.511719 295.023438 161.535156 C 299.578125 151.675781 304.214844 139.414062 308.304688 128.601562 C 310.714844 122.230469 312.945312 116.332031 314.871094 111.683594 C 318.128906 103.828125 322.394531 96.5 327.601562 89.785156 C 323.394531 116.730469 313.28125 180.675781 307.644531 208.886719 Z M 235.871094 191.199219 C 208.375 190.46875 195.414062 177.507812 190.140625 169.851562 C 188.777344 167.867188 185.492188 167.867188 184.132812 169.851562 C 178.855469 177.507812 165.898438 190.46875 138.402344 191.199219 C 137.074219 191.234375 135.875 191.988281 135.261719 193.164062 C 134.648438 194.339844 134.71875 195.757812 135.449219 196.863281 C 144.960938 211.339844 174.738281 220.570312 187.136719 220.570312 C 199.53125 220.570312 229.308594 211.339844 238.824219 196.863281 C 239.554688 195.757812 239.625 194.339844 239.011719 193.164062 C 238.398438 191.988281 237.199219 191.234375 235.871094 191.199219 Z M 187.136719 213.261719 C 176.972656 213.261719 156.828125 206.554688 146.367188 197.976562 C 168.023438 195.539062 180.488281 185.726562 187.136719 177.914062 C 193.78125 185.726562 206.246094 195.539062 227.902344 197.976562 C 217.445312 206.554688 197.296875 213.261719 187.136719 213.261719 Z M 187.136719 213.261719 " fill-opacity="1" fill-rule="nonzero"/></g></svg>