<svg xmlns="http://www.w3.org/2000/svg" xmlns:xlink="http://www.w3.org/1999/xlink" width="500" zoomAndPan="magnify" viewBox="0 0 375 374.999991" height="500" preserveAspectRatio="xMidYMid meet" version="1.0"><defs><clipPath id="2093d7e0c0"><path d="M 207 37.5 L 337.5 37.5 L 337.5 82 L 207 82 Z M 207 37.5 " clip-rule="nonzero"/></clipPath><clipPath id="085469d806"><path d="M 38 91 L 337.5 91 L 337.5 330 L 38 330 Z M 38 91 " clip-rule="nonzero"/></clipPath></defs><g clip-path="url(#2093d7e0c0)"><path fill="#fffefe" d="M 210.824219 81.386719 L 333.386719 81.386719 C 333.894531 81.386719 334.382812 81.289062 334.851562 81.097656 C 335.316406 80.902344 335.730469 80.625 336.089844 80.265625 C 336.449219 79.910156 336.726562 79.496094 336.917969 79.027344 C 337.113281 78.558594 337.210938 78.070312 337.210938 77.566406 C 337.210938 77.058594 337.113281 76.570312 336.917969 76.101562 C 336.726562 75.632812 336.449219 75.21875 336.089844 74.863281 C 335.730469 74.503906 335.316406 74.226562 334.851562 74.03125 C 334.382812 73.839844 333.894531 73.742188 333.386719 73.742188 L 316.546875 73.742188 L 316.546875 42.773438 C 316.628906 42.488281 316.675781 42.199219 316.691406 41.90625 C 316.703125 41.609375 316.683594 41.316406 316.628906 41.027344 C 316.574219 40.734375 316.488281 40.457031 316.367188 40.183594 C 316.246094 39.914062 316.097656 39.660156 315.921875 39.425781 C 315.742188 39.191406 315.539062 38.976562 315.3125 38.789062 C 315.085938 38.601562 314.839844 38.441406 314.574219 38.308594 C 314.308594 38.175781 314.035156 38.078125 313.746094 38.007812 C 313.457031 37.941406 313.167969 37.910156 312.871094 37.910156 C 312.574219 37.910156 312.285156 37.941406 311.996094 38.007812 C 311.707031 38.078125 311.433594 38.175781 311.167969 38.308594 C 310.902344 38.441406 310.65625 38.601562 310.429688 38.789062 C 310.203125 38.976562 310 39.191406 309.820312 39.425781 C 309.644531 39.660156 309.496094 39.914062 309.375 40.183594 C 309.253906 40.457031 309.167969 40.734375 309.113281 41.027344 C 309.058594 41.316406 309.039062 41.609375 309.050781 41.90625 C 309.066406 42.199219 309.113281 42.488281 309.195312 42.773438 L 309.195312 73.742188 L 296.273438 73.742188 L 296.273438 42.773438 C 296.273438 42.265625 296.175781 41.78125 295.984375 41.3125 C 295.789062 40.84375 295.511719 40.429688 295.15625 40.070312 C 294.796875 39.710938 294.382812 39.4375 293.914062 39.242188 C 293.445312 39.046875 292.957031 38.953125 292.453125 38.953125 C 291.945312 38.953125 291.457031 39.046875 290.988281 39.242188 C 290.519531 39.4375 290.105469 39.710938 289.75 40.070312 C 289.390625 40.429688 289.113281 40.84375 288.921875 41.3125 C 288.726562 41.78125 288.628906 42.265625 288.628906 42.773438 L 288.628906 73.742188 L 275.953125 73.742188 L 275.953125 42.773438 C 275.980469 42.507812 275.984375 42.238281 275.957031 41.972656 C 275.929688 41.703125 275.878906 41.441406 275.796875 41.183594 C 275.714844 40.929688 275.605469 40.683594 275.472656 40.449219 C 275.339844 40.214844 275.183594 40 275.003906 39.796875 C 274.824219 39.597656 274.625 39.417969 274.410156 39.257812 C 274.191406 39.101562 273.960938 38.964844 273.714844 38.855469 C 273.46875 38.746094 273.214844 38.664062 272.953125 38.605469 C 272.6875 38.550781 272.421875 38.523438 272.152344 38.523438 C 271.882812 38.523438 271.617188 38.550781 271.355469 38.605469 C 271.089844 38.664062 270.835938 38.746094 270.589844 38.855469 C 270.347656 38.964844 270.113281 39.101562 269.898438 39.257812 C 269.679688 39.417969 269.480469 39.597656 269.300781 39.796875 C 269.125 40 268.96875 40.214844 268.832031 40.449219 C 268.699219 40.683594 268.59375 40.929688 268.511719 41.183594 C 268.429688 41.441406 268.375 41.703125 268.347656 41.972656 C 268.324219 42.238281 268.324219 42.507812 268.355469 42.773438 L 268.355469 73.742188 L 255.628906 73.742188 L 255.628906 42.773438 C 255.660156 42.507812 255.660156 42.238281 255.636719 41.972656 C 255.609375 41.703125 255.554688 41.441406 255.472656 41.183594 C 255.390625 40.929688 255.285156 40.683594 255.152344 40.449219 C 255.015625 40.214844 254.859375 40 254.679688 39.796875 C 254.503906 39.597656 254.304688 39.417969 254.085938 39.257812 C 253.871094 39.101562 253.636719 38.964844 253.390625 38.855469 C 253.148438 38.746094 252.890625 38.664062 252.628906 38.605469 C 252.367188 38.550781 252.101562 38.523438 251.832031 38.523438 C 251.5625 38.523438 251.296875 38.550781 251.03125 38.605469 C 250.769531 38.664062 250.515625 38.746094 250.269531 38.855469 C 250.023438 38.964844 249.792969 39.101562 249.574219 39.257812 C 249.359375 39.417969 249.160156 39.597656 248.980469 39.796875 C 248.800781 40 248.644531 40.214844 248.511719 40.449219 C 248.378906 40.683594 248.269531 40.929688 248.1875 41.183594 C 248.105469 41.441406 248.050781 41.703125 248.027344 41.972656 C 248 42.238281 248.003906 42.507812 248.03125 42.773438 L 248.03125 73.742188 L 235.355469 73.742188 L 235.355469 42.773438 C 235.355469 42.265625 235.257812 41.777344 235.066406 41.308594 C 234.871094 40.839844 234.597656 40.425781 234.238281 40.066406 C 233.878906 39.707031 233.464844 39.429688 232.996094 39.234375 C 232.527344 39.042969 232.039062 38.945312 231.53125 38.945312 C 231.023438 38.945312 230.535156 39.042969 230.066406 39.234375 C 229.597656 39.429688 229.183594 39.707031 228.828125 40.066406 C 228.46875 40.425781 228.191406 40.839844 228 41.308594 C 227.804688 41.777344 227.707031 42.265625 227.710938 42.773438 L 227.710938 73.742188 L 210.824219 73.742188 C 210.316406 73.742188 209.828125 73.839844 209.359375 74.03125 C 208.890625 74.226562 208.476562 74.503906 208.121094 74.863281 C 207.761719 75.21875 207.484375 75.632812 207.289062 76.101562 C 207.097656 76.570312 207 77.058594 207 77.566406 C 207 78.070312 207.097656 78.558594 207.289062 79.027344 C 207.484375 79.496094 207.761719 79.910156 208.121094 80.265625 C 208.476562 80.625 208.890625 80.902344 209.359375 81.097656 C 209.828125 81.289062 210.316406 81.386719 210.824219 81.386719 Z M 210.824219 81.386719 " fill-opacity="1" fill-rule="nonzero"/></g><g clip-path="url(#085469d806)"><path fill="#fffefe" d="M 333.386719 91.886719 L 210.824219 91.886719 C 210.316406 91.886719 209.828125 91.984375 209.359375 92.179688 C 208.890625 92.371094 208.476562 92.648438 208.121094 93.007812 C 207.761719 93.363281 207.484375 93.777344 207.289062 94.246094 C 207.097656 94.714844 207 95.203125 207 95.710938 C 207 96.214844 207.097656 96.703125 207.289062 97.171875 C 207.484375 97.640625 207.761719 98.054688 208.121094 98.414062 C 208.476562 98.769531 208.890625 99.046875 209.359375 99.242188 C 209.828125 99.433594 210.316406 99.53125 210.824219 99.53125 L 213.824219 99.53125 C 214.003906 102.253906 214.375 104.953125 214.929688 107.625 C 215.488281 110.296875 216.230469 112.914062 217.15625 115.480469 C 218.078125 118.050781 219.179688 120.539062 220.449219 122.953125 C 221.722656 125.367188 223.15625 127.683594 224.753906 129.894531 C 226.351562 132.109375 228.09375 134.199219 229.980469 136.171875 C 231.871094 138.140625 233.886719 139.96875 236.03125 141.65625 C 238.175781 143.34375 240.425781 144.875 242.785156 146.25 C 245.144531 147.621094 247.585938 148.824219 250.113281 149.855469 L 251.128906 165.046875 L 55.355469 165.046875 C 54.746094 165.046875 54.140625 165.082031 53.539062 165.144531 C 52.933594 165.210938 52.332031 165.304688 51.738281 165.433594 C 51.144531 165.5625 50.558594 165.722656 49.984375 165.914062 C 49.40625 166.101562 48.839844 166.324219 48.289062 166.574219 C 47.734375 166.824219 47.195312 167.105469 46.671875 167.414062 C 46.148438 167.71875 45.640625 168.054688 45.152344 168.417969 C 44.664062 168.777344 44.199219 169.164062 43.75 169.578125 C 43.304688 169.988281 42.878906 170.421875 42.480469 170.878906 C 42.078125 171.335938 41.703125 171.8125 41.355469 172.308594 C 41.003906 172.804688 40.679688 173.320312 40.386719 173.851562 C 40.089844 174.382812 39.824219 174.925781 39.585938 175.488281 C 39.347656 176.046875 39.140625 176.617188 38.964844 177.199219 C 38.789062 177.777344 38.644531 178.367188 38.53125 178.964844 C 38.414062 179.5625 38.332031 180.164062 38.285156 180.769531 C 38.234375 181.375 38.214844 181.980469 38.230469 182.589844 C 38.246094 183.195312 38.292969 183.800781 38.371094 184.402344 L 40.304688 198.917969 C 40.402344 199.648438 40.5625 200.359375 40.789062 201.058594 C 41.011719 201.757812 41.296875 202.429688 41.644531 203.074219 C 41.992188 203.722656 42.390625 204.332031 42.847656 204.90625 C 43.304688 205.480469 43.808594 206.011719 44.359375 206.496094 C 44.914062 206.976562 45.503906 207.40625 46.132812 207.785156 C 46.761719 208.160156 47.421875 208.480469 48.105469 208.738281 C 48.792969 208.996094 49.496094 209.191406 50.21875 209.320312 C 50.941406 209.453125 51.667969 209.515625 52.402344 209.515625 L 54.484375 209.515625 L 54.484375 220.453125 C 54.484375 223.441406 54.605469 226.429688 54.851562 229.410156 C 55.097656 232.390625 55.46875 235.355469 55.960938 238.304688 C 56.449219 241.257812 57.0625 244.183594 57.796875 247.082031 C 58.53125 249.980469 59.382812 252.847656 60.351562 255.675781 C 61.324219 258.503906 62.40625 261.289062 63.609375 264.027344 C 64.808594 266.769531 66.121094 269.453125 67.542969 272.085938 C 68.964844 274.714844 70.492188 277.285156 72.128906 279.789062 C 73.761719 282.292969 75.5 284.726562 77.335938 287.089844 C 79.171875 289.449219 81.101562 291.730469 83.125 293.933594 C 85.148438 296.132812 87.261719 298.25 89.460938 300.277344 C 91.660156 302.304688 93.941406 304.234375 96.296875 306.074219 C 98.65625 307.914062 101.089844 309.652344 103.59375 311.289062 C 106.09375 312.925781 108.660156 314.457031 111.289062 315.882812 C 113.921875 317.308594 116.605469 318.625 119.34375 319.828125 C 122.082031 321.03125 124.863281 322.121094 127.691406 323.09375 C 130.519531 324.066406 133.382812 324.921875 136.28125 325.660156 C 139.179688 326.394531 142.105469 327.011719 145.054688 327.507812 C 148.003906 328 150.96875 328.375 153.949219 328.625 C 156.929688 328.875 159.917969 329 162.910156 329.003906 C 165.898438 329.003906 168.886719 328.886719 171.867188 328.640625 C 174.847656 328.398438 177.8125 328.03125 180.765625 327.542969 C 183.714844 327.050781 186.640625 326.441406 189.542969 325.710938 C 192.441406 324.980469 195.308594 324.132812 198.136719 323.164062 C 200.96875 322.195312 203.753906 321.113281 206.492188 319.914062 C 209.234375 318.714844 211.921875 317.40625 214.550781 315.984375 C 217.183594 314.566406 219.753906 313.039062 222.261719 311.40625 C 224.765625 309.773438 227.199219 308.039062 229.5625 306.207031 C 231.925781 304.371094 234.210938 302.445312 236.414062 300.421875 C 238.617188 298.398438 240.730469 296.289062 242.761719 294.089844 C 244.789062 291.894531 246.726562 289.617188 248.566406 287.257812 C 250.40625 284.898438 252.144531 282.46875 253.785156 279.96875 C 255.425781 277.46875 256.960938 274.902344 258.386719 272.273438 L 260.082031 297.386719 C 260.113281 298.03125 260.203125 298.667969 260.355469 299.292969 C 260.507812 299.921875 260.714844 300.527344 260.984375 301.117188 C 261.25 301.703125 261.570312 302.261719 261.945312 302.785156 C 262.320312 303.3125 262.738281 303.796875 263.207031 304.246094 C 263.671875 304.691406 264.175781 305.089844 264.71875 305.4375 C 265.257812 305.789062 265.828125 306.085938 266.429688 306.328125 C 267.027344 306.566406 267.640625 306.75 268.277344 306.875 C 268.910156 307 269.546875 307.0625 270.195312 307.066406 L 274.113281 307.066406 C 274.757812 307.058594 275.394531 306.992188 276.023438 306.867188 C 276.65625 306.742188 277.269531 306.554688 277.863281 306.3125 C 278.460938 306.070312 279.027344 305.773438 279.566406 305.421875 C 280.105469 305.074219 280.605469 304.675781 281.070312 304.226562 C 281.535156 303.78125 281.953125 303.296875 282.324219 302.773438 C 282.695312 302.246094 283.011719 301.691406 283.28125 301.105469 C 283.546875 300.519531 283.753906 299.914062 283.90625 299.289062 C 284.054688 298.664062 284.148438 298.03125 284.175781 297.386719 L 294.144531 149.855469 C 296.675781 148.828125 299.117188 147.628906 301.480469 146.257812 C 303.839844 144.886719 306.09375 143.359375 308.242188 141.671875 C 310.386719 139.984375 312.40625 138.15625 314.296875 136.1875 C 316.183594 134.21875 317.929688 132.125 319.523438 129.910156 C 321.121094 127.695312 322.554688 125.382812 323.828125 122.96875 C 325.101562 120.550781 326.199219 118.058594 327.121094 115.492188 C 328.042969 112.921875 328.78125 110.300781 329.335938 107.628906 C 329.894531 104.953125 330.257812 102.257812 330.433594 99.53125 L 333.386719 99.53125 C 333.894531 99.53125 334.382812 99.433594 334.851562 99.242188 C 335.316406 99.046875 335.730469 98.769531 336.089844 98.414062 C 336.449219 98.054688 336.726562 97.640625 336.917969 97.171875 C 337.113281 96.703125 337.210938 96.214844 337.210938 95.710938 C 337.210938 95.203125 337.113281 94.714844 336.917969 94.246094 C 336.726562 93.777344 336.449219 93.363281 336.089844 93.007812 C 335.730469 92.648438 335.316406 92.371094 334.851562 92.179688 C 334.382812 91.984375 333.894531 91.886719 333.386719 91.886719 Z M 48.195312 175.886719 C 49.105469 174.863281 50.183594 174.070312 51.429688 173.507812 C 52.675781 172.941406 53.984375 172.65625 55.355469 172.644531 L 251.660156 172.644531 L 257.324219 256.695312 C 256.273438 259.421875 255.109375 262.097656 253.828125 264.722656 C 252.546875 267.347656 251.15625 269.914062 249.652344 272.417969 C 248.148438 274.925781 246.539062 277.359375 244.828125 279.726562 C 243.113281 282.089844 241.296875 284.375 239.382812 286.585938 C 237.472656 288.792969 235.464844 290.914062 233.367188 292.949219 C 231.273438 294.980469 229.089844 296.921875 226.824219 298.765625 C 224.558594 300.609375 222.21875 302.351562 219.800781 303.996094 C 217.386719 305.636719 214.902344 307.167969 212.351562 308.59375 C 209.800781 310.019531 207.195312 311.335938 204.53125 312.535156 C 201.867188 313.734375 199.15625 314.816406 196.398438 315.78125 C 193.640625 316.742188 190.847656 317.585938 188.015625 318.308594 C 185.183594 319.03125 182.328125 319.628906 179.445312 320.101562 C 176.5625 320.578125 173.664062 320.925781 170.75 321.148438 C 167.839844 321.371094 164.921875 321.464844 162 321.433594 C 159.078125 321.402344 156.164062 321.246094 153.257812 320.960938 C 150.347656 320.679688 147.457031 320.269531 144.585938 319.734375 C 141.714844 319.199219 138.871094 318.542969 136.054688 317.761719 C 133.242188 316.980469 130.464844 316.078125 127.726562 315.054688 C 124.992188 314.035156 122.304688 312.894531 119.664062 311.640625 C 117.027344 310.382812 114.449219 309.015625 111.929688 307.535156 C 109.410156 306.058594 106.960938 304.472656 104.578125 302.78125 C 102.195312 301.085938 99.894531 299.296875 97.667969 297.402344 C 95.441406 295.511719 93.300781 293.527344 91.246094 291.449219 C 89.191406 289.371094 87.234375 287.207031 85.367188 284.960938 C 83.5 282.714844 81.734375 280.386719 80.070312 277.988281 C 78.40625 275.585938 76.847656 273.117188 75.398438 270.582031 C 73.949219 268.046875 72.613281 265.453125 71.386719 262.800781 C 70.160156 260.148438 69.054688 257.445312 68.0625 254.699219 C 67.074219 251.949219 66.203125 249.164062 65.453125 246.339844 C 64.707031 243.515625 64.082031 240.664062 63.578125 237.785156 C 63.078125 234.910156 62.703125 232.015625 62.453125 229.101562 C 62.203125 226.191406 62.078125 223.277344 62.082031 220.355469 L 62.082031 209.417969 L 121.355469 209.417969 C 121.621094 209.449219 121.890625 209.453125 122.15625 209.425781 C 122.425781 209.398438 122.6875 209.34375 122.945312 209.261719 C 123.199219 209.183594 123.445312 209.074219 123.679688 208.941406 C 123.914062 208.808594 124.128906 208.652344 124.332031 208.472656 C 124.53125 208.292969 124.710938 208.09375 124.871094 207.875 C 125.027344 207.660156 125.164062 207.429688 125.273438 207.183594 C 125.382812 206.9375 125.464844 206.683594 125.523438 206.417969 C 125.578125 206.15625 125.605469 205.890625 125.605469 205.621094 C 125.605469 205.351562 125.578125 205.085938 125.523438 204.824219 C 125.464844 204.558594 125.382812 204.304688 125.273438 204.058594 C 125.164062 203.8125 125.027344 203.582031 124.871094 203.363281 C 124.710938 203.148438 124.53125 202.949219 124.332031 202.769531 C 124.128906 202.589844 123.914062 202.433594 123.679688 202.300781 C 123.445312 202.167969 123.199219 202.058594 122.945312 201.980469 C 122.6875 201.898438 122.425781 201.84375 122.15625 201.816406 C 121.890625 201.789062 121.621094 201.792969 121.355469 201.824219 L 52.402344 201.824219 C 51.855469 201.792969 51.328125 201.671875 50.824219 201.460938 C 50.316406 201.253906 49.859375 200.964844 49.449219 200.601562 C 49.042969 200.238281 48.707031 199.816406 48.441406 199.335938 C 48.175781 198.855469 47.996094 198.347656 47.902344 197.804688 L 45.96875 183.289062 C 45.808594 181.957031 45.921875 180.644531 46.308594 179.355469 C 46.695312 178.070312 47.324219 176.914062 48.195312 175.886719 Z M 276.582031 296.855469 C 276.5625 297.167969 276.484375 297.46875 276.351562 297.753906 C 276.21875 298.039062 276.039062 298.289062 275.808594 298.507812 C 275.578125 298.722656 275.316406 298.886719 275.023438 299.003906 C 274.730469 299.121094 274.429688 299.179688 274.113281 299.175781 L 270.195312 299.175781 C 269.878906 299.179688 269.574219 299.121094 269.28125 299.003906 C 268.988281 298.886719 268.726562 298.722656 268.496094 298.507812 C 268.269531 298.289062 268.085938 298.039062 267.953125 297.753906 C 267.820312 297.46875 267.746094 297.167969 267.726562 296.855469 L 258.046875 152.371094 C 262.703125 153.597656 267.4375 154.210938 272.25 154.210938 C 277.0625 154.210938 281.796875 153.597656 286.453125 152.371094 Z M 272.128906 146.566406 C 270.542969 146.5625 268.960938 146.488281 267.382812 146.339844 C 265.804688 146.1875 264.238281 145.96875 262.679688 145.671875 C 261.121094 145.375 259.582031 145.007812 258.058594 144.566406 C 256.535156 144.128906 255.035156 143.617188 253.5625 143.039062 C 252.085938 142.460938 250.640625 141.8125 249.226562 141.097656 C 247.8125 140.382812 246.433594 139.605469 245.089844 138.761719 C 243.746094 137.917969 242.449219 137.011719 241.191406 136.046875 C 239.933594 135.082031 238.722656 134.0625 237.558594 132.984375 C 236.398438 131.90625 235.289062 130.773438 234.230469 129.59375 C 233.175781 128.410156 232.175781 127.183594 231.234375 125.910156 C 230.292969 124.632812 229.410156 123.316406 228.589844 121.960938 C 227.773438 120.601562 227.019531 119.210938 226.328125 117.78125 C 225.640625 116.355469 225.019531 114.898438 224.46875 113.410156 C 223.914062 111.925781 223.433594 110.417969 223.019531 108.886719 C 222.609375 107.355469 222.269531 105.808594 222 104.246094 C 221.734375 102.683594 221.539062 101.113281 221.417969 99.53125 L 323.03125 99.53125 C 322.910156 101.117188 322.714844 102.691406 322.445312 104.257812 C 322.175781 105.824219 321.832031 107.375 321.417969 108.90625 C 321.003906 110.441406 320.519531 111.953125 319.960938 113.441406 C 319.40625 114.929688 318.78125 116.390625 318.089844 117.820312 C 317.398438 119.25 316.640625 120.644531 315.816406 122.003906 C 314.992188 123.363281 314.109375 124.679688 313.164062 125.957031 C 312.214844 127.234375 311.210938 128.460938 310.152344 129.644531 C 309.089844 130.828125 307.976562 131.957031 306.808594 133.035156 C 305.640625 134.113281 304.425781 135.136719 303.164062 136.101562 C 301.902344 137.066406 300.597656 137.96875 299.25 138.8125 C 297.902344 139.652344 296.519531 140.433594 295.097656 141.144531 C 293.679688 141.859375 292.230469 142.503906 290.75 143.082031 C 289.269531 143.65625 287.765625 144.164062 286.238281 144.601562 C 284.707031 145.039062 283.164062 145.402344 281.601562 145.695312 C 280.039062 145.988281 278.46875 146.207031 276.886719 146.351562 C 275.304688 146.496094 273.71875 146.566406 272.128906 146.566406 Z M 272.128906 146.566406 " fill-opacity="1" fill-rule="nonzero"/></g><path fill="#fffefe" d="M 151.839844 209.417969 L 232.839844 209.417969 C 233.105469 209.449219 233.375 209.453125 233.640625 209.425781 C 233.910156 209.398438 234.171875 209.34375 234.429688 209.261719 C 234.683594 209.183594 234.929688 209.074219 235.164062 208.941406 C 235.398438 208.808594 235.613281 208.652344 235.816406 208.472656 C 236.015625 208.292969 236.195312 208.09375 236.355469 207.875 C 236.511719 207.660156 236.648438 207.429688 236.757812 207.183594 C 236.867188 206.9375 236.949219 206.683594 237.007812 206.417969 C 237.0625 206.15625 237.089844 205.890625 237.089844 205.621094 C 237.089844 205.351562 237.0625 205.085938 237.007812 204.824219 C 236.949219 204.558594 236.867188 204.304688 236.757812 204.058594 C 236.648438 203.8125 236.511719 203.582031 236.355469 203.363281 C 236.195312 203.148438 236.015625 202.949219 235.816406 202.769531 C 235.613281 202.589844 235.398438 202.433594 235.164062 202.300781 C 234.929688 202.167969 234.683594 202.058594 234.429688 201.980469 C 234.171875 201.898438 233.910156 201.84375 233.640625 201.816406 C 233.375 201.789062 233.105469 201.792969 232.839844 201.824219 L 151.839844 201.824219 C 151.570312 201.792969 151.304688 201.789062 151.035156 201.816406 C 150.769531 201.84375 150.507812 201.898438 150.25 201.980469 C 149.992188 202.058594 149.746094 202.167969 149.515625 202.300781 C 149.28125 202.433594 149.0625 202.589844 148.863281 202.769531 C 148.660156 202.949219 148.480469 203.148438 148.324219 203.363281 C 148.164062 203.582031 148.03125 203.8125 147.921875 204.058594 C 147.808594 204.304688 147.726562 204.558594 147.671875 204.824219 C 147.613281 205.085938 147.585938 205.351562 147.585938 205.621094 C 147.585938 205.890625 147.613281 206.15625 147.671875 206.417969 C 147.726562 206.683594 147.808594 206.9375 147.921875 207.183594 C 148.03125 207.429688 148.164062 207.660156 148.324219 207.875 C 148.480469 208.09375 148.660156 208.292969 148.863281 208.472656 C 149.0625 208.652344 149.28125 208.808594 149.515625 208.941406 C 149.746094 209.074219 149.992188 209.183594 150.25 209.261719 C 150.507812 209.34375 150.769531 209.398438 151.035156 209.425781 C 151.304688 209.453125 151.570312 209.449219 151.839844 209.417969 Z M 151.839844 209.417969 " fill-opacity="1" fill-rule="nonzero"/></svg>