<svg xmlns="http://www.w3.org/2000/svg" xmlns:xlink="http://www.w3.org/1999/xlink" width="500" zoomAndPan="magnify" viewBox="0 0 375 374.999991" height="500" preserveAspectRatio="xMidYMid meet" version="1.0"><defs><clipPath id="873a19c524"><path d="M 138 277.273438 L 237 277.273438 L 237 308.777344 L 138 308.777344 Z M 138 277.273438 " clip-rule="nonzero"/></clipPath><clipPath id="0d0997b5ec"><path d="M 138 261.519531 L 237 261.519531 L 237 289.753906 L 138 289.753906 Z M 138 261.519531 " clip-rule="nonzero"/></clipPath><clipPath id="3005e660d7"><path d="M 138 63.875 L 237 63.875 L 237 95.378906 L 138 95.378906 Z M 138 63.875 " clip-rule="nonzero"/></clipPath><clipPath id="956ff6eb11"><path d="M 138 83.195312 L 237 83.195312 L 237 110.242188 L 138 110.242188 Z M 138 83.195312 " clip-rule="nonzero"/></clipPath><clipPath id="466125f05c"><path d="M 146 37.5 L 229 37.5 L 229 70 L 146 70 Z M 146 37.5 " clip-rule="nonzero"/></clipPath></defs><path fill="#000000" d="M 227.390625 110 C 227.601562 108.128906 221.492188 106.761719 219.675781 106.394531 C 196.234375 101.65625 146.707031 104.429688 147.613281 110 L 147.609375 110 L 147.609375 264.792969 L 147.613281 264.792969 C 147.988281 270.550781 197.824219 272.949219 220.246094 268.179688 C 223.953125 267.382812 227.292969 266.195312 227.386719 264.792969 L 227.390625 264.792969 L 227.390625 110 " fill-opacity="1" fill-rule="nonzero"/><path fill="#004aad" d="M 147.730469 196.695312 C 147.730469 203.441406 147.730469 210.191406 147.730469 216.9375 C 159.125 205.324219 171.78125 200.566406 187.378906 197.464844 C 202.972656 194.367188 215.628906 189.609375 227.023438 177.996094 C 227.023438 171.246094 227.023438 164.5 227.023438 157.753906 C 215.628906 169.367188 202.972656 174.125 187.378906 177.226562 C 171.78125 180.324219 159.125 185.082031 147.730469 196.695312 " fill-opacity="1" fill-rule="nonzero"/><path fill="#004aad" d="M 227.023438 248.507812 C 227.023438 241.761719 227.023438 235.011719 227.023438 228.265625 C 215.628906 239.878906 202.972656 244.636719 187.378906 247.738281 C 172.234375 250.75 159.859375 255.324219 148.726562 266.21875 C 153.851562 269.261719 170.898438 270.269531 176.84375 270.511719 C 190.808594 266.441406 209.765625 266.097656 227.023438 248.507812 " fill-opacity="1" fill-rule="nonzero"/><path fill="#bf2727" d="M 147.730469 231.953125 C 147.730469 238.699219 147.730469 245.445312 147.730469 252.195312 C 159.125 240.582031 171.78125 235.824219 187.378906 232.722656 C 202.972656 229.621094 215.628906 224.863281 227.023438 213.25 C 227.023438 206.503906 227.023438 199.757812 227.023438 193.007812 C 215.628906 204.621094 202.972656 209.378906 187.378906 212.480469 C 171.78125 215.582031 159.125 220.339844 147.730469 231.953125 " fill-opacity="1" fill-rule="nonzero"/><path fill="#004aad" d="M 147.730469 126.183594 C 147.730469 132.929688 147.730469 139.679688 147.730469 146.425781 C 159.125 134.8125 171.78125 130.054688 187.378906 126.953125 C 202.523438 123.941406 214.894531 119.367188 226.027344 108.472656 C 220.898438 105.429688 203.855469 104.421875 197.910156 104.183594 C 183.945312 108.25 164.988281 108.59375 147.730469 126.183594 " fill-opacity="1" fill-rule="nonzero"/><path fill="#bf2727" d="M 227.023438 142.738281 C 227.023438 135.992188 227.023438 129.246094 227.023438 122.496094 C 215.628906 134.109375 202.972656 138.867188 187.378906 141.96875 C 171.78125 145.070312 159.125 149.828125 147.730469 161.441406 C 147.730469 168.1875 147.730469 174.933594 147.730469 181.679688 C 159.125 170.066406 171.78125 165.308594 187.378906 162.210938 C 202.972656 159.109375 215.628906 154.351562 227.023438 142.738281 " fill-opacity="1" fill-rule="nonzero"/><path fill="#ffffff" d="M 178.5625 270.574219 C 200.5625 271.304688 224.257812 269.152344 227.023438 265.394531 C 227.023438 259.949219 227.023438 254.5 227.023438 249.054688 C 210.21875 266.183594 191.640625 267.015625 178.5625 270.574219 " fill-opacity="1" fill-rule="nonzero"/><path fill="#ffffff" d="M 147.730469 217.484375 C 147.730469 222.125 147.730469 226.765625 147.730469 231.402344 C 159.125 219.789062 171.78125 215.035156 187.378906 211.933594 C 202.972656 208.832031 215.628906 204.074219 227.023438 192.460938 C 227.023438 187.820312 227.023438 183.183594 227.023438 178.542969 C 215.628906 190.15625 202.972656 194.914062 187.378906 198.011719 C 171.78125 201.117188 159.125 205.871094 147.730469 217.484375 " fill-opacity="1" fill-rule="nonzero"/><path fill="#ffffff" d="M 227.023438 227.71875 C 227.023438 223.078125 227.023438 218.4375 227.023438 213.800781 C 215.628906 225.414062 202.972656 230.171875 187.378906 233.269531 C 171.78125 236.371094 159.125 241.128906 147.730469 252.742188 C 147.730469 256.960938 147.855469 261.082031 147.855469 265.300781 C 148.007812 265.511719 148.230469 265.714844 148.515625 265.910156 C 159.734375 254.777344 172.082031 250.230469 187.378906 247.1875 C 202.972656 244.089844 215.628906 239.332031 227.023438 227.71875 " fill-opacity="1" fill-rule="nonzero"/><path fill="#ffffff" d="M 227.023438 143.285156 C 215.628906 154.898438 202.972656 159.65625 187.378906 162.757812 C 171.78125 165.859375 159.125 170.617188 147.730469 182.230469 C 147.730469 186.871094 147.730469 191.507812 147.730469 196.148438 C 159.125 184.535156 171.78125 179.777344 187.378906 176.675781 C 202.972656 173.578125 215.628906 168.820312 227.023438 157.207031 C 227.023438 152.566406 227.023438 147.925781 227.023438 143.285156 " fill-opacity="1" fill-rule="nonzero"/><path fill="#ffffff" d="M 147.730469 146.972656 C 147.730469 151.613281 147.730469 156.253906 147.730469 160.894531 C 159.125 149.28125 171.78125 144.523438 187.378906 141.421875 C 202.972656 138.320312 215.628906 133.5625 227.023438 121.949219 C 227.023438 117.730469 227.023438 113.511719 227.023438 109.292969 C 226.867188 109.085938 226.644531 108.882812 226.363281 108.6875 C 215.140625 119.820312 202.671875 124.460938 187.378906 127.503906 C 171.78125 130.601562 159.125 135.359375 147.730469 146.972656 " fill-opacity="1" fill-rule="nonzero"/><path fill="#ffffff" d="M 196.191406 104.117188 C 174.144531 103.382812 150.503906 105.542969 147.730469 109.292969 C 147.730469 114.742188 147.730469 120.1875 147.730469 125.636719 C 164.535156 108.507812 183.117188 107.671875 196.191406 104.117188 " fill-opacity="1" fill-rule="nonzero"/><path fill="#000000" d="M 187.496094 103.972656 C 164.574219 103.972656 147.078125 106.8125 147.613281 110 L 147.609375 110 L 147.609375 264.792969 L 147.613281 264.792969 C 147.996094 270.628906 198.109375 272.894531 220.246094 268.179688 C 223.953125 267.382812 227.292969 266.195312 227.386719 264.792969 L 227.390625 264.792969 L 227.390625 110 C 227.605469 108.132812 221.503906 106.761719 219.675781 106.394531 C 211.695312 104.78125 199.59375 103.972656 187.496094 103.972656 Z M 187.496094 105.9375 C 206.894531 105.9375 222.117188 107.988281 225.382812 110.3125 L 225.425781 264.347656 C 225.03125 264.644531 223.6875 265.429688 219.835938 266.257812 C 199.746094 270.527344 155.679688 268.910156 149.574219 264.347656 L 149.65625 110.285156 C 150.992188 109.367188 154.117188 108.640625 155.714844 108.320312 C 163.203125 106.804688 174.789062 105.9375 187.496094 105.9375 " fill-opacity="1" fill-rule="nonzero"/><path fill="#000000" d="M 216.679688 266.84375 C 218.1875 266.597656 219.777344 266.296875 221.25 265.925781 L 218.972656 116.808594 L 216.679688 266.84375 " fill-opacity="1" fill-rule="nonzero"/><path fill="#000000" d="M 211.34375 267.574219 C 212.917969 267.394531 214.40625 267.199219 215.804688 266.984375 L 213.578125 158.949219 L 211.34375 267.574219 " fill-opacity="1" fill-rule="nonzero"/><path fill="#000000" d="M 206.050781 268.074219 C 207.519531 267.960938 208.941406 267.828125 210.304688 267.6875 L 208.160156 193.152344 L 206.050781 268.074219 " fill-opacity="1" fill-rule="nonzero"/><path fill="#000000" d="M 200.9375 268.410156 C 202.199219 268.34375 203.433594 268.265625 204.636719 268.179688 L 202.792969 231.402344 L 200.9375 268.410156 " fill-opacity="1" fill-rule="nonzero"/><path fill="#ffffff" d="M 159.375 179.714844 L 160.949219 107.453125 C 159.847656 107.601562 158.800781 107.761719 157.808594 107.929688 L 159.375 179.714844 " fill-opacity="1" fill-rule="nonzero"/><path fill="#ffffff" d="M 169.9375 262.523438 C 172.382812 222.046875 171.984375 150.886719 169.9375 116.808594 C 167.621094 155.371094 167.722656 225.878906 169.9375 262.523438 " fill-opacity="1" fill-rule="nonzero"/><path fill="#ffffff" d="M 159.375 238.660156 C 161.683594 229.683594 161.59375 208.84375 159.375 200.140625 C 157.171875 208.753906 157.03125 229.558594 159.375 238.660156 " fill-opacity="1" fill-rule="nonzero"/><path fill="#ffffff" d="M 178.5625 187.34375 C 180.832031 170.625 180.867188 139.558594 178.5625 122.496094 C 176.25 139.632812 176.296875 170.636719 178.5625 187.34375 " fill-opacity="1" fill-rule="nonzero"/><path fill="#ffffff" d="M 187.5 287.15625 C 161.378906 287.152344 140.210938 283.832031 140.210938 279.734375 C 140.210938 283.199219 140.210938 297.289062 140.210938 299.097656 C 140.210938 303.195312 161.378906 306.515625 187.5 306.519531 C 213.621094 306.515625 234.789062 303.195312 234.789062 299.097656 C 234.789062 297.289062 234.789062 283.199219 234.789062 279.734375 C 234.789062 283.832031 213.621094 287.152344 187.5 287.15625 " fill-opacity="1" fill-rule="nonzero"/><g clip-path="url(#873a19c524)"><path fill="#000000" d="M 142.421875 298.761719 C 142.953125 299.210938 145.613281 300.9375 156.257812 302.4375 C 184.324219 306.382812 226.882812 303.582031 232.578125 298.761719 L 232.578125 284.414062 C 219.855469 289.742188 183.910156 289.367188 187.5 289.367188 C 175.820312 289.363281 152.007812 288.429688 142.421875 284.414062 Z M 153.71875 306.527344 C 142.699219 304.796875 138 302.578125 138 299.097656 L 138 279.734375 C 138 278.515625 138.988281 277.523438 140.210938 277.523438 C 141.304688 277.523438 142.214844 278.324219 142.390625 279.371094 C 142.847656 279.777344 145.398438 281.546875 156.257812 283.070312 C 184.285156 287.011719 227.148438 284.21875 232.609375 279.371094 C 232.78125 278.324219 233.691406 277.523438 234.789062 277.523438 C 236.011719 277.523438 237 278.515625 237 279.734375 L 237 299.097656 C 237 302.578125 232.296875 304.796875 221.28125 306.527344 C 202.707031 309.441406 172.566406 309.484375 153.71875 306.527344 " fill-opacity="1" fill-rule="nonzero"/></g><path fill="#000000" d="M 236.015625 283.179688 L 233.5625 283.179688 C 233.59375 283.332031 233.078125 283.765625 232.949219 283.863281 C 226.179688 288.882812 196.28125 290.34375 187.5 290.597656 C 198.15625 290.828125 222.53125 290.726562 232.382812 286.753906 C 229.585938 288.378906 223.871094 289.5625 220.695312 290.140625 C 210.171875 292.054688 198.078125 292.820312 187.5 293.128906 C 198.171875 293.355469 222.570312 293.234375 232.382812 289.28125 C 224.363281 293.933594 197.085938 295.378906 187.5 295.65625 C 198.144531 295.878906 222.53125 295.78125 232.382812 291.808594 C 224.277344 296.511719 197.058594 297.90625 187.5 298.183594 C 198.148438 298.410156 222.53125 298.308594 232.382812 294.335938 C 224.21875 299.070312 196.921875 300.4375 187.5 300.710938 C 198.136719 300.9375 222.527344 300.835938 232.382812 296.863281 C 224.222656 301.597656 196.9375 302.964844 187.5 303.238281 C 195.140625 303.398438 232.640625 303.714844 235.773438 296.84375 C 235.90625 296.5625 235.945312 285.625 236.015625 283.179688 " fill-opacity="1" fill-rule="nonzero"/><path fill="#000000" d="M 233.5625 283.179688 C 233.5625 283.171875 233.554688 283.1875 233.5625 283.179688 " fill-opacity="1" fill-rule="nonzero"/><path fill="#000000" d="M 146.84375 302.886719 C 151.242188 321.265625 167.773438 334.929688 187.5 334.929688 C 207.226562 334.929688 223.757812 321.265625 228.152344 302.886719 C 209.785156 307.726562 165.191406 307.71875 146.84375 302.886719 " fill-opacity="1" fill-rule="nonzero"/><path fill="#ffffff" d="M 168.007812 325.445312 C 174.84375 328.640625 181.636719 330.40625 189.789062 329.757812 C 202.714844 328.675781 212.464844 322.597656 220.042969 312.605469 C 210.074219 331.757812 185.121094 337.277344 168.007812 325.445312 " fill-opacity="1" fill-rule="nonzero"/><path fill="#ffffff" d="M 229.445312 275.953125 C 229.472656 275.773438 229.460938 276.011719 229.460938 272.292969 C 229.460938 271.5625 228.867188 270.785156 227.761719 270 C 227.785156 269.753906 227.914062 264.085938 227.761719 263.832031 C 228.003906 269.75 177.554688 272.007812 154.949219 267.4375 C 152.980469 267.042969 147.15625 265.816406 147.238281 263.832031 C 147.085938 264.085938 147.214844 269.753906 147.238281 270 C 146.132812 270.785156 145.535156 271.5625 145.535156 272.292969 C 145.535156 276.011719 145.527344 275.773438 145.554688 275.953125 C 142.144531 276.976562 140.210938 278.140625 140.210938 279.378906 C 140.210938 279.507812 140.210938 279.707031 140.210938 279.964844 C 140.210938 284.058594 161.378906 287.382812 187.5 287.382812 C 213.621094 287.382812 234.789062 284.058594 234.789062 279.964844 C 234.789062 279.707031 234.789062 279.507812 234.789062 279.378906 C 234.789062 278.140625 232.855469 276.976562 229.445312 275.953125 " fill-opacity="1" fill-rule="nonzero"/><g clip-path="url(#0d0997b5ec)"><path fill="#000000" d="M 229.445312 275.953125 L 227.261719 275.613281 C 227.261719 275.613281 229.429688 275.949219 229.445312 275.953125 Z M 142.476562 279.671875 C 143.125 280.183594 145.941406 281.851562 156.257812 283.300781 C 184.039062 287.207031 226.371094 284.519531 232.523438 279.671875 C 232.175781 279.394531 231.210938 278.789062 228.808594 278.066406 C 227.773438 277.757812 227.117188 276.742188 227.25 275.671875 L 227.25 272.484375 C 227.167969 272.375 226.957031 272.140625 226.480469 271.800781 C 225.359375 271.003906 225.554688 269.992188 225.589844 268.246094 C 211.480469 273.378906 163.324219 273.308594 149.410156 268.25 C 149.421875 268.777344 149.433594 269.484375 149.4375 269.792969 C 149.589844 271.425781 148.242188 271.832031 147.746094 272.484375 L 147.746094 275.675781 C 147.875 276.738281 147.222656 277.757812 146.191406 278.066406 C 143.789062 278.789062 142.824219 279.394531 142.476562 279.671875 Z M 153.71875 287.394531 C 142.699219 285.664062 138 283.441406 138 279.964844 C 138 278.386719 138.023438 276.253906 143.328125 274.355469 C 143.328125 272.109375 143.035156 270.792969 145.003906 268.96875 C 144.898438 263.699219 144.925781 263.390625 145.34375 262.695312 C 146.375 260.972656 148.996094 261.421875 149.402344 263.386719 C 152.296875 265.34375 166.382812 267.675781 187.496094 267.648438 C 207.894531 267.667969 222.496094 265.484375 225.597656 263.386719 C 226.003906 261.417969 228.625 260.972656 229.660156 262.695312 C 230.074219 263.390625 230.101562 263.695312 229.996094 268.96875 C 231.957031 270.785156 231.671875 272.082031 231.671875 274.355469 C 236.707031 276.15625 237 278.140625 237 279.964844 C 237 283.441406 232.296875 285.664062 221.28125 287.394531 C 202.648438 290.316406 172.519531 290.34375 153.71875 287.394531 " fill-opacity="1" fill-rule="nonzero"/></g><path fill="#000000" d="M 229.4375 274.753906 C 229.238281 275.921875 227.917969 276.8125 226.871094 277.363281 C 209.398438 286.804688 147.796875 283.484375 146.308594 274.753906 C 148.996094 282.886719 226.90625 282.433594 229.4375 274.753906 " fill-opacity="1" fill-rule="nonzero"/><path fill="#000000" d="M 227.5625 269.28125 C 227.003906 270.308594 225.949219 271.011719 224.878906 271.5625 C 208.332031 280.332031 152.925781 277.960938 148.183594 269.28125 C 153.761719 276.492188 203.105469 274.636719 214.285156 273.296875 C 217.445312 272.917969 225.613281 271.804688 227.5625 269.28125 " fill-opacity="1" fill-rule="nonzero"/><path fill="#000000" d="M 187.5 274.90625 C 178.5625 275.410156 160.039062 275.925781 151.550781 273.238281 C 147.78125 272.054688 147.433594 270.816406 146.957031 269.929688 L 148.347656 270.277344 C 147.960938 270.542969 147.601562 270.832031 147.324219 271.128906 C 146.746094 271.738281 146.902344 271.558594 146.886719 275.316406 C 146.886719 275.34375 146.886719 275.398438 146.886719 275.378906 C 146.886719 275.394531 146.886719 275.390625 146.890625 275.441406 C 146.890625 275.425781 146.898438 275.472656 146.886719 275.414062 C 146.910156 275.527344 146.90625 275.503906 146.90625 275.503906 C 148.367188 279.761719 182.941406 281.128906 187.5 281.382812 C 177.835938 281.945312 148.359375 282.328125 145.234375 276.519531 C 144.898438 275.886719 144.9375 275.414062 144.933594 274.925781 C 144.917969 270.71875 144.5 270.558594 148.175781 268.066406 C 148.992188 269.683594 148.941406 269.65625 149.179688 269.925781 C 152.800781 273.96875 180.382812 274.496094 187.5 274.90625 " fill-opacity="1" fill-rule="nonzero"/><path fill="#ffffff" d="M 187.5 85.496094 C 161.378906 85.5 140.210938 88.820312 140.210938 92.917969 C 140.210938 89.453125 140.210938 75.363281 140.210938 73.554688 C 140.210938 69.457031 161.378906 66.136719 187.5 66.132812 C 213.621094 66.136719 234.789062 69.457031 234.789062 73.554688 C 234.789062 75.363281 234.789062 89.453125 234.789062 92.917969 C 234.789062 88.820312 213.621094 85.5 187.5 85.496094 " fill-opacity="1" fill-rule="nonzero"/><g clip-path="url(#3005e660d7)"><path fill="#000000" d="M 142.421875 73.890625 L 142.421875 88.238281 C 157.1875 82.054688 215.824219 81.222656 232.578125 88.238281 L 232.578125 73.890625 C 232.046875 73.441406 229.386719 71.710938 218.742188 70.214844 C 190.703125 66.273438 148.128906 69.0625 142.421875 73.890625 Z M 234.789062 95.128906 C 233.691406 95.128906 232.78125 94.328125 232.609375 93.28125 C 232.152344 92.875 229.601562 91.105469 218.742188 89.582031 C 190.746094 85.644531 147.859375 88.425781 142.390625 93.28125 C 142.214844 94.328125 141.304688 95.128906 140.210938 95.128906 C 138.988281 95.128906 138 94.136719 138 92.917969 L 138 73.554688 C 138 70.074219 142.699219 67.855469 153.71875 66.125 C 172.34375 63.203125 202.476562 63.175781 221.28125 66.125 C 232.296875 67.855469 237 70.074219 237 73.554688 L 237 92.917969 C 237 94.136719 236.011719 95.128906 234.789062 95.128906 " fill-opacity="1" fill-rule="nonzero"/></g><path fill="#000000" d="M 236.015625 76.835938 C 235.777344 68.855469 195.488281 69.246094 187.5 69.414062 C 195.4375 69.644531 203.464844 70.082031 211.859375 71.09375 C 216.304688 71.628906 228.273438 73.269531 232.480469 75.84375 C 222.445312 71.515625 194.089844 71.800781 187.5 71.941406 C 195.4375 72.171875 203.464844 72.609375 211.859375 73.621094 C 216.308594 74.15625 228.289062 75.800781 232.488281 78.375 C 222.457031 74.042969 194.066406 74.332031 187.5 74.46875 C 195.4375 74.699219 203.464844 75.136719 211.859375 76.148438 C 216.308594 76.683594 228.289062 78.328125 232.488281 80.902344 C 222.457031 76.570312 194.066406 76.859375 187.5 76.996094 C 195.4375 77.226562 203.464844 77.664062 211.859375 78.675781 C 216.308594 79.210938 228.289062 80.855469 232.488281 83.429688 C 222.457031 79.097656 194.066406 79.382812 187.5 79.523438 C 195.4375 79.753906 203.464844 80.191406 211.859375 81.203125 C 216.308594 81.738281 228.289062 83.382812 232.488281 85.960938 C 222.46875 81.628906 194.128906 81.910156 187.5 82.050781 C 195.414062 82.28125 203.445312 82.714844 211.859375 83.730469 C 216.480469 84.285156 229.238281 86.039062 232.949219 88.789062 C 233.078125 88.886719 233.59375 89.320312 233.5625 89.472656 L 236.015625 89.472656 C 235.988281 88.511719 236.015625 76.835938 236.015625 76.835938 " fill-opacity="1" fill-rule="nonzero"/><path fill="#000000" d="M 233.5625 89.472656 C 233.554688 89.464844 233.5625 89.480469 233.5625 89.472656 " fill-opacity="1" fill-rule="nonzero"/><g clip-path="url(#956ff6eb11)"><path fill="#000000" d="M 221.28125 85.542969 C 202.644531 82.617188 172.511719 82.59375 153.71875 85.542969 C 142.699219 87.269531 138 89.492188 138 92.96875 L 138 93.554688 C 138 96.996094 142.632812 98.445312 145.910156 99.390625 C 145.910156 101.0625 145.617188 101.800781 147.808594 103.28125 C 147.671875 103.53125 147.601562 103.785156 147.601562 104.042969 C 147.601562 104.8125 147.445312 109.796875 147.609375 110.070312 C 147.453125 104.164062 198.183594 101.851562 220.246094 106.585938 C 222.152344 106.988281 227.464844 108.167969 227.390625 110.070312 C 227.550781 109.796875 227.398438 104.8125 227.398438 104.042969 C 227.398438 103.785156 227.328125 103.53125 227.1875 103.28125 C 229.375 101.804688 229.089844 101.070312 229.089844 99.390625 C 232.136719 98.511719 237 97.066406 237 93.554688 L 237 92.96875 C 237 89.492188 232.296875 87.269531 221.28125 85.542969 " fill-opacity="1" fill-rule="nonzero"/></g><path fill="#ffffff" d="M 140.210938 93.472656 C 140.210938 93.472656 139.914062 92.167969 143.191406 90.730469 C 154.074219 85.871094 188.085938 83.816406 213.722656 86.804688 C 235.859375 89.34375 234.789062 93.472656 234.789062 93.472656 C 234.789062 93.472656 236.539062 88.179688 196.59375 86.988281 C 178.855469 86.503906 141.660156 87.625 140.257812 93.195312 C 140.207031 93.375 140.214844 93.472656 140.210938 93.472656 " fill-opacity="1" fill-rule="nonzero"/><path fill="#ffffff" d="M 229.0625 97.601562 C 226.449219 89.257812 148.496094 89.429688 145.933594 97.601562 C 146.152344 96.4375 147.476562 95.574219 148.523438 95.035156 C 165.933594 85.859375 227.460938 88.992188 229.0625 97.601562 " fill-opacity="1" fill-rule="nonzero"/><path fill="#ffffff" d="M 227.1875 103.074219 C 221.902344 95.996094 153.675781 95.238281 147.808594 103.074219 C 151.121094 97.226562 176.734375 95.601562 183.652344 95.480469 C 211.378906 95.152344 225.582031 99.816406 227.074219 102.867188 C 227.152344 103.003906 227.1875 103.074219 227.1875 103.074219 " fill-opacity="1" fill-rule="nonzero"/><g clip-path="url(#466125f05c)"><path fill="#000000" d="M 146.84375 69.761719 C 151.242188 51.386719 167.773438 37.722656 187.5 37.722656 C 207.226562 37.722656 223.757812 51.386719 228.152344 69.761719 C 209.785156 64.925781 165.191406 64.933594 146.84375 69.761719 " fill-opacity="1" fill-rule="nonzero"/></g><path fill="#ffffff" d="M 171.851562 55.648438 C 169 57.917969 162.558594 60.035156 160.535156 58.324219 C 158.507812 56.613281 161.671875 51.722656 164.519531 49.453125 C 167.648438 46.957031 174.335938 44.992188 176.359375 46.703125 C 178.382812 48.414062 175.050781 53.09375 171.851562 55.648438 " fill-opacity="1" fill-rule="nonzero"/><path fill="#ffffff" d="M 183.660156 44.769531 C 183.660156 46.125 182.5625 47.222656 181.207031 47.222656 C 179.847656 47.222656 178.75 46.125 178.75 44.769531 C 178.75 43.410156 179.847656 42.3125 181.207031 42.3125 C 182.5625 42.3125 183.660156 43.410156 183.660156 44.769531 " fill-opacity="1" fill-rule="nonzero"/><path fill="#ffffff" d="M 221.5625 66.171875 C 216.855469 55.882812 209.40625 49.238281 199.410156 44.769531 C 207.597656 49.085938 212.558594 53.625 217.695312 62.386719 C 218.34375 63.683594 218.871094 64.761719 219.332031 65.835938 C 220.394531 65.984375 220.992188 66.078125 221.5625 66.171875 " fill-opacity="1" fill-rule="nonzero"/></svg>