<svg xmlns="http://www.w3.org/2000/svg" xmlns:xlink="http://www.w3.org/1999/xlink" width="500" zoomAndPan="magnify" viewBox="0 0 375 374.999991" height="500" preserveAspectRatio="xMidYMid meet" version="1.0"><defs><clipPath id="1a8f7a55eb"><path d="M 74.382812 149.175781 L 294.019531 149.175781 L 294.019531 233.175781 L 74.382812 233.175781 Z M 74.382812 149.175781 " clip-rule="nonzero"/></clipPath><clipPath id="336d4ddcfd"><path d="M 40 209 L 63 209 L 63 227 L 40 227 Z M 40 209 " clip-rule="nonzero"/></clipPath><clipPath id="cdb2661e8d"><path d="M 71.839844 264.847656 L 37.5 211.136719 L 68.460938 191.339844 L 102.804688 245.050781 Z M 71.839844 264.847656 " clip-rule="nonzero"/></clipPath><clipPath id="da41f05bcb"><path d="M 71.839844 264.847656 L 37.5 211.136719 L 68.460938 191.339844 L 102.804688 245.050781 Z M 71.839844 264.847656 " clip-rule="nonzero"/></clipPath><clipPath id="99a01bbb7f"><path d="M 54.824219 231.375 L 40.601562 209.132812 L 48.070312 204.355469 L 62.292969 226.597656 Z M 54.824219 231.375 " clip-rule="nonzero"/></clipPath><clipPath id="81b761e875"><path d="M 54.824219 231.375 L 40.648438 209.207031 L 48.117188 204.429688 L 62.292969 226.597656 Z M 54.824219 231.375 " clip-rule="nonzero"/></clipPath><clipPath id="8b3b2e43ae"><path d="M 80 232 L 85 232 L 85 236 L 80 236 Z M 80 232 " clip-rule="nonzero"/></clipPath><clipPath id="a66f6ad584"><path d="M 71.839844 264.847656 L 37.5 211.136719 L 68.460938 191.339844 L 102.804688 245.050781 Z M 71.839844 264.847656 " clip-rule="nonzero"/></clipPath><clipPath id="c3677cfe82"><path d="M 71.839844 264.847656 L 37.5 211.136719 L 68.460938 191.339844 L 102.804688 245.050781 Z M 71.839844 264.847656 " clip-rule="nonzero"/></clipPath><clipPath id="ede0b32979"><path d="M 78 230 L 83 230 L 83 234 L 78 234 Z M 78 230 " clip-rule="nonzero"/></clipPath><clipPath id="543905f5c9"><path d="M 71.839844 264.847656 L 37.5 211.136719 L 68.460938 191.339844 L 102.804688 245.050781 Z M 71.839844 264.847656 " clip-rule="nonzero"/></clipPath><clipPath id="47ca008d25"><path d="M 71.839844 264.847656 L 37.5 211.136719 L 68.460938 191.339844 L 102.804688 245.050781 Z M 71.839844 264.847656 " clip-rule="nonzero"/></clipPath><clipPath id="ddebf1d0b2"><path d="M 70 233 L 83 233 L 83 242 L 70 242 Z M 70 233 " clip-rule="nonzero"/></clipPath><clipPath id="b37a1c5eb1"><path d="M 71.839844 264.847656 L 37.5 211.136719 L 68.460938 191.339844 L 102.804688 245.050781 Z M 71.839844 264.847656 " clip-rule="nonzero"/></clipPath><clipPath id="55b6bc12f4"><path d="M 71.839844 264.847656 L 37.5 211.136719 L 68.460938 191.339844 L 102.804688 245.050781 Z M 71.839844 264.847656 " clip-rule="nonzero"/></clipPath><clipPath id="62154efa5a"><path d="M 72 226 L 81 226 L 81 232 L 72 232 Z M 72 226 " clip-rule="nonzero"/></clipPath><clipPath id="3e248fcc36"><path d="M 71.839844 264.847656 L 37.5 211.136719 L 68.460938 191.339844 L 102.804688 245.050781 Z M 71.839844 264.847656 " clip-rule="nonzero"/></clipPath><clipPath id="c0642f211b"><path d="M 71.839844 264.847656 L 37.5 211.136719 L 68.460938 191.339844 L 102.804688 245.050781 Z M 71.839844 264.847656 " clip-rule="nonzero"/></clipPath><clipPath id="947dd7b196"><path d="M 50 197 L 79 197 L 79 231 L 50 231 Z M 50 197 " clip-rule="nonzero"/></clipPath><clipPath id="5805d6aba4"><path d="M 71.839844 264.847656 L 37.5 211.136719 L 68.460938 191.339844 L 102.804688 245.050781 Z M 71.839844 264.847656 " clip-rule="nonzero"/></clipPath><clipPath id="e15126b72d"><path d="M 71.839844 264.847656 L 37.5 211.136719 L 68.460938 191.339844 L 102.804688 245.050781 Z M 71.839844 264.847656 " clip-rule="nonzero"/></clipPath><clipPath id="c7c29fb7ab"><path d="M 67.757812 232.746094 L 49.160156 203.660156 L 60.515625 196.398438 L 79.113281 225.484375 Z M 67.757812 232.746094 " clip-rule="nonzero"/></clipPath><clipPath id="068955f548"><path d="M 67.757812 232.746094 L 49.207031 203.734375 L 60.5625 196.472656 L 79.113281 225.484375 Z M 67.757812 232.746094 " clip-rule="nonzero"/></clipPath><clipPath id="cd3a82ec55"><path d="M 74 228 L 82 228 L 82 233 L 74 233 Z M 74 228 " clip-rule="nonzero"/></clipPath><clipPath id="6e7e752ea2"><path d="M 71.839844 264.847656 L 37.5 211.136719 L 68.460938 191.339844 L 102.804688 245.050781 Z M 71.839844 264.847656 " clip-rule="nonzero"/></clipPath><clipPath id="f8801aba9a"><path d="M 71.839844 264.847656 L 37.5 211.136719 L 68.460938 191.339844 L 102.804688 245.050781 Z M 71.839844 264.847656 " clip-rule="nonzero"/></clipPath><clipPath id="926f0be9dc"><path d="M 38 212 L 103 212 L 103 260 L 38 260 Z M 38 212 " clip-rule="nonzero"/></clipPath><clipPath id="99d190ead6"><path d="M 71.839844 264.847656 L 37.5 211.136719 L 68.460938 191.339844 L 102.804688 245.050781 Z M 71.839844 264.847656 " clip-rule="nonzero"/></clipPath><clipPath id="94d70a3691"><path d="M 71.839844 264.847656 L 37.5 211.136719 L 68.460938 191.339844 L 102.804688 245.050781 Z M 71.839844 264.847656 " clip-rule="nonzero"/></clipPath><clipPath id="a810dc00a8"><path d="M 71.800781 264.78125 L 38.1875 212.210938 L 69.304688 192.3125 L 102.917969 244.886719 Z M 71.800781 264.78125 " clip-rule="nonzero"/></clipPath><clipPath id="eff520774e"><path d="M 71.800781 264.78125 L 38.1875 212.210938 L 69.152344 192.410156 L 102.769531 244.980469 Z M 71.800781 264.78125 " clip-rule="nonzero"/></clipPath><clipPath id="83e8105c68"><path d="M 295 196 L 333 196 L 333 236 L 295 236 Z M 295 196 " clip-rule="nonzero"/></clipPath><clipPath id="902409ec33"><path d="M 308.007812 190.542969 L 337.609375 209.675781 L 301.785156 265.105469 L 272.179688 245.972656 Z M 308.007812 190.542969 " clip-rule="nonzero"/></clipPath><clipPath id="2dddee182d"><path d="M 308.007812 190.542969 L 337.609375 209.675781 L 301.785156 265.105469 L 272.179688 245.972656 Z M 308.007812 190.542969 " clip-rule="nonzero"/></clipPath><clipPath id="de78f365ca"><path d="M 308 190.550781 L 337.636719 209.707031 L 317.042969 241.566406 L 287.40625 222.410156 Z M 308 190.550781 " clip-rule="nonzero"/></clipPath><clipPath id="03f1a19c70"><path d="M 308 190.550781 L 337.605469 209.683594 L 317.011719 241.546875 L 287.40625 222.410156 Z M 308 190.550781 " clip-rule="nonzero"/></clipPath><clipPath id="fffa5586eb"><path d="M 298 202 L 304 202 L 304 218 L 298 218 Z M 298 202 " clip-rule="nonzero"/></clipPath><clipPath id="41e3d2a809"><path d="M 308.007812 190.542969 L 337.609375 209.675781 L 301.785156 265.105469 L 272.179688 245.972656 Z M 308.007812 190.542969 " clip-rule="nonzero"/></clipPath><clipPath id="226c19c06d"><path d="M 308.007812 190.542969 L 337.609375 209.675781 L 301.785156 265.105469 L 272.179688 245.972656 Z M 308.007812 190.542969 " clip-rule="nonzero"/></clipPath><clipPath id="1a6715d66d"><path d="M 298 211 L 303 211 L 303 228 L 298 228 Z M 298 211 " clip-rule="nonzero"/></clipPath><clipPath id="67e6dc3464"><path d="M 308.007812 190.542969 L 337.609375 209.675781 L 301.785156 265.105469 L 272.179688 245.972656 Z M 308.007812 190.542969 " clip-rule="nonzero"/></clipPath><clipPath id="7d6d0f527b"><path d="M 308.007812 190.542969 L 337.609375 209.675781 L 301.785156 265.105469 L 272.179688 245.972656 Z M 308.007812 190.542969 " clip-rule="nonzero"/></clipPath><clipPath id="26b071fe79"><path d="M 308 218 L 329 218 L 329 234 L 308 234 Z M 308 218 " clip-rule="nonzero"/></clipPath><clipPath id="f97130f7ac"><path d="M 308.007812 190.542969 L 337.609375 209.675781 L 301.785156 265.105469 L 272.179688 245.972656 Z M 308.007812 190.542969 " clip-rule="nonzero"/></clipPath><clipPath id="3263f76478"><path d="M 308.007812 190.542969 L 337.609375 209.675781 L 301.785156 265.105469 L 272.179688 245.972656 Z M 308.007812 190.542969 " clip-rule="nonzero"/></clipPath><clipPath id="b93a137332"><path d="M 307 223 L 322 223 L 322 234 L 307 234 Z M 307 223 " clip-rule="nonzero"/></clipPath><clipPath id="a1a59052ca"><path d="M 308.007812 190.542969 L 337.609375 209.675781 L 301.785156 265.105469 L 272.179688 245.972656 Z M 308.007812 190.542969 " clip-rule="nonzero"/></clipPath><clipPath id="9068d5dfbe"><path d="M 308.007812 190.542969 L 337.609375 209.675781 L 301.785156 265.105469 L 272.179688 245.972656 Z M 308.007812 190.542969 " clip-rule="nonzero"/></clipPath><clipPath id="7aa63eac74"><path d="M 306 216 L 323 216 L 323 234 L 306 234 Z M 306 216 " clip-rule="nonzero"/></clipPath><clipPath id="340fc002c5"><path d="M 308.007812 190.542969 L 337.609375 209.675781 L 301.785156 265.105469 L 272.179688 245.972656 Z M 308.007812 190.542969 " clip-rule="nonzero"/></clipPath><clipPath id="4ce95e63b1"><path d="M 308.007812 190.542969 L 337.609375 209.675781 L 301.785156 265.105469 L 272.179688 245.972656 Z M 308.007812 190.542969 " clip-rule="nonzero"/></clipPath><clipPath id="eea8530f47"><path d="M 304 214 L 318 214 L 318 232 L 304 232 Z M 304 214 " clip-rule="nonzero"/></clipPath><clipPath id="44a8c4329a"><path d="M 308.007812 190.542969 L 337.609375 209.675781 L 301.785156 265.105469 L 272.179688 245.972656 Z M 308.007812 190.542969 " clip-rule="nonzero"/></clipPath><clipPath id="524a038130"><path d="M 308.007812 190.542969 L 337.609375 209.675781 L 301.785156 265.105469 L 272.179688 245.972656 Z M 308.007812 190.542969 " clip-rule="nonzero"/></clipPath><clipPath id="7101ffa1dc"><path d="M 304 198 L 324 198 L 324 216 L 304 216 Z M 304 198 " clip-rule="nonzero"/></clipPath><clipPath id="9e1f27ca65"><path d="M 308.007812 190.542969 L 337.609375 209.675781 L 301.785156 265.105469 L 272.179688 245.972656 Z M 308.007812 190.542969 " clip-rule="nonzero"/></clipPath><clipPath id="1bafe2eacc"><path d="M 308.007812 190.542969 L 337.609375 209.675781 L 301.785156 265.105469 L 272.179688 245.972656 Z M 308.007812 190.542969 " clip-rule="nonzero"/></clipPath><clipPath id="bfe1629994"><path d="M 300 206 L 309 206 L 309 229 L 300 229 Z M 300 206 " clip-rule="nonzero"/></clipPath><clipPath id="01d2b2de54"><path d="M 308.007812 190.542969 L 337.609375 209.675781 L 301.785156 265.105469 L 272.179688 245.972656 Z M 308.007812 190.542969 " clip-rule="nonzero"/></clipPath><clipPath id="b903263952"><path d="M 308.007812 190.542969 L 337.609375 209.675781 L 301.785156 265.105469 L 272.179688 245.972656 Z M 308.007812 190.542969 " clip-rule="nonzero"/></clipPath><clipPath id="ce5e800c56"><path d="M 300 209 L 308 209 L 308 230 L 300 230 Z M 300 209 " clip-rule="nonzero"/></clipPath><clipPath id="bb0e917c2b"><path d="M 308.007812 190.542969 L 337.609375 209.675781 L 301.785156 265.105469 L 272.179688 245.972656 Z M 308.007812 190.542969 " clip-rule="nonzero"/></clipPath><clipPath id="8cd9be410c"><path d="M 308.007812 190.542969 L 337.609375 209.675781 L 301.785156 265.105469 L 272.179688 245.972656 Z M 308.007812 190.542969 " clip-rule="nonzero"/></clipPath><clipPath id="0446506945"><path d="M 315 206 L 319 206 L 319 209 L 315 209 Z M 315 206 " clip-rule="nonzero"/></clipPath><clipPath id="56fc99b633"><path d="M 308.007812 190.542969 L 337.609375 209.675781 L 301.785156 265.105469 L 272.179688 245.972656 Z M 308.007812 190.542969 " clip-rule="nonzero"/></clipPath><clipPath id="e377573b8c"><path d="M 308.007812 190.542969 L 337.609375 209.675781 L 301.785156 265.105469 L 272.179688 245.972656 Z M 308.007812 190.542969 " clip-rule="nonzero"/></clipPath><clipPath id="274a0eb10b"><path d="M 308 198 L 313 198 L 313 202 L 308 202 Z M 308 198 " clip-rule="nonzero"/></clipPath><clipPath id="dd3595c8c9"><path d="M 308.007812 190.542969 L 337.609375 209.675781 L 301.785156 265.105469 L 272.179688 245.972656 Z M 308.007812 190.542969 " clip-rule="nonzero"/></clipPath><clipPath id="e5ae4eb8b3"><path d="M 308.007812 190.542969 L 337.609375 209.675781 L 301.785156 265.105469 L 272.179688 245.972656 Z M 308.007812 190.542969 " clip-rule="nonzero"/></clipPath><clipPath id="7fed22bace"><path d="M 316 199 L 324 199 L 324 204 L 316 204 Z M 316 199 " clip-rule="nonzero"/></clipPath><clipPath id="c62d222cd1"><path d="M 308.007812 190.542969 L 337.609375 209.675781 L 301.785156 265.105469 L 272.179688 245.972656 Z M 308.007812 190.542969 " clip-rule="nonzero"/></clipPath><clipPath id="639857fad1"><path d="M 308.007812 190.542969 L 337.609375 209.675781 L 301.785156 265.105469 L 272.179688 245.972656 Z M 308.007812 190.542969 " clip-rule="nonzero"/></clipPath><clipPath id="954116f8b6"><path d="M 325 215 L 331 215 L 331 218 L 325 218 Z M 325 215 " clip-rule="nonzero"/></clipPath><clipPath id="6dc12ca634"><path d="M 308.007812 190.542969 L 337.609375 209.675781 L 301.785156 265.105469 L 272.179688 245.972656 Z M 308.007812 190.542969 " clip-rule="nonzero"/></clipPath><clipPath id="81bf046f48"><path d="M 308.007812 190.542969 L 337.609375 209.675781 L 301.785156 265.105469 L 272.179688 245.972656 Z M 308.007812 190.542969 " clip-rule="nonzero"/></clipPath><clipPath id="b7ea86c78f"><path d="M 321 207 L 330 207 L 330 214 L 321 214 Z M 321 207 " clip-rule="nonzero"/></clipPath><clipPath id="54d4761bb6"><path d="M 308.007812 190.542969 L 337.609375 209.675781 L 301.785156 265.105469 L 272.179688 245.972656 Z M 308.007812 190.542969 " clip-rule="nonzero"/></clipPath><clipPath id="1dcdeccbe1"><path d="M 308.007812 190.542969 L 337.609375 209.675781 L 301.785156 265.105469 L 272.179688 245.972656 Z M 308.007812 190.542969 " clip-rule="nonzero"/></clipPath><clipPath id="049254e456"><path d="M 302 217 L 310 217 L 310 231 L 302 231 Z M 302 217 " clip-rule="nonzero"/></clipPath><clipPath id="34b7b7baca"><path d="M 308.007812 190.542969 L 337.609375 209.675781 L 301.785156 265.105469 L 272.179688 245.972656 Z M 308.007812 190.542969 " clip-rule="nonzero"/></clipPath><clipPath id="ca7c714482"><path d="M 308.007812 190.542969 L 337.609375 209.675781 L 301.785156 265.105469 L 272.179688 245.972656 Z M 308.007812 190.542969 " clip-rule="nonzero"/></clipPath><clipPath id="91f7a5060c"><path d="M 313 216 L 321 216 L 321 225 L 313 225 Z M 313 216 " clip-rule="nonzero"/></clipPath><clipPath id="1108a2a6d1"><path d="M 308.007812 190.542969 L 337.609375 209.675781 L 301.785156 265.105469 L 272.179688 245.972656 Z M 308.007812 190.542969 " clip-rule="nonzero"/></clipPath><clipPath id="8fa326f50b"><path d="M 308.007812 190.542969 L 337.609375 209.675781 L 301.785156 265.105469 L 272.179688 245.972656 Z M 308.007812 190.542969 " clip-rule="nonzero"/></clipPath><clipPath id="4d06fcbf68"><path d="M 279 226 L 311 226 L 311 260 L 279 260 Z M 279 226 " clip-rule="nonzero"/></clipPath><clipPath id="c7e5275667"><path d="M 308.007812 190.542969 L 337.609375 209.675781 L 301.785156 265.105469 L 272.179688 245.972656 Z M 308.007812 190.542969 " clip-rule="nonzero"/></clipPath><clipPath id="c9549462a5"><path d="M 308.007812 190.542969 L 337.609375 209.675781 L 301.785156 265.105469 L 272.179688 245.972656 Z M 308.007812 190.542969 " clip-rule="nonzero"/></clipPath><clipPath id="891f43ae3f"><path d="M 294.132812 224.707031 L 312.152344 236.355469 L 295.980469 261.382812 L 277.957031 249.734375 Z M 294.132812 224.707031 " clip-rule="nonzero"/></clipPath><clipPath id="481edef7d7"><path d="M 294.132812 224.707031 L 312.152344 236.355469 L 296 261.351562 L 277.976562 249.703125 Z M 294.132812 224.707031 " clip-rule="nonzero"/></clipPath><clipPath id="c08b0323e3"><path d="M 303 212 L 316 212 L 316 232 L 303 232 Z M 303 212 " clip-rule="nonzero"/></clipPath><clipPath id="390922891a"><path d="M 308.007812 190.542969 L 337.609375 209.675781 L 301.785156 265.105469 L 272.179688 245.972656 Z M 308.007812 190.542969 " clip-rule="nonzero"/></clipPath><clipPath id="3b72fde6b4"><path d="M 308.007812 190.542969 L 337.609375 209.675781 L 301.785156 265.105469 L 272.179688 245.972656 Z M 308.007812 190.542969 " clip-rule="nonzero"/></clipPath></defs><g clip-path="url(#1a8f7a55eb)"><path fill="#fffefe" d="M 291.214844 161.863281 C 286.515625 151.925781 275.667969 147.945312 269.660156 149.507812 C 288.769531 149.796875 291.214844 183.242188 278.589844 191.21875 C 265.964844 199.191406 253.082031 194.027344 238.714844 186.640625 C 221.300781 175.78125 202.273438 155.28125 184.199219 171.636719 C 166.125 155.28125 147.097656 175.78125 129.6875 186.640625 C 115.320312 194.027344 102.433594 199.191406 89.808594 191.21875 C 77.1875 183.242188 79.632812 149.796875 98.738281 149.507812 C 92.730469 147.945312 81.882812 151.925781 77.183594 161.863281 C 72.832031 171.066406 73.1875 184.695312 80.816406 196.570312 C 86.199219 205.296875 95.878906 213.871094 111.933594 219.6875 C 107.390625 219.769531 101.675781 218.960938 95.164062 216.058594 C 107.542969 227.082031 133.539062 235.949219 157.488281 223.128906 C 153.988281 227.046875 147.925781 230.898438 142.476562 233.175781 C 169.222656 229.527344 176.996094 212.945312 184.199219 197.378906 C 191.40625 212.945312 199.175781 229.527344 225.921875 233.175781 C 220.476562 230.898438 214.410156 227.046875 210.914062 223.128906 C 234.863281 235.949219 260.855469 227.082031 273.238281 216.058594 C 266.726562 218.960938 261.007812 219.769531 256.46875 219.6875 C 272.519531 213.871094 282.199219 205.296875 287.582031 196.570312 C 295.214844 184.695312 295.566406 171.066406 291.214844 161.863281 " fill-opacity="1" fill-rule="nonzero"/></g><g clip-path="url(#336d4ddcfd)"><g clip-path="url(#cdb2661e8d)"><g clip-path="url(#da41f05bcb)"><g clip-path="url(#99a01bbb7f)"><g clip-path="url(#81b761e875)"><path fill="#fffefe" d="M 62.128906 226.546875 L 40.824219 209.195312 L 47.453125 217.234375 Z M 62.128906 226.546875 " fill-opacity="1" fill-rule="nonzero"/></g></g></g></g></g><g clip-path="url(#8b3b2e43ae)"><g clip-path="url(#a66f6ad584)"><g clip-path="url(#c3677cfe82)"><path fill="#fffefe" d="M 81.773438 235.125 L 84.433594 233.320312 L 84.082031 232.800781 L 80.820312 234.804688 C 81.121094 234.933594 81.4375 235.042969 81.773438 235.125 " fill-opacity="1" fill-rule="nonzero"/></g></g></g><g clip-path="url(#ede0b32979)"><g clip-path="url(#543905f5c9)"><g clip-path="url(#47ca008d25)"><path fill="#fffefe" d="M 79.121094 233.753906 L 82.960938 231.152344 L 82.609375 230.628906 L 78.476562 233.171875 C 78.648438 233.34375 78.863281 233.546875 79.121094 233.753906 " fill-opacity="1" fill-rule="nonzero"/></g></g></g><g clip-path="url(#ddebf1d0b2)"><g clip-path="url(#b37a1c5eb1)"><g clip-path="url(#55b6bc12f4)"><path fill="#fffefe" d="M 72.308594 234.390625 C 71.695312 234.160156 70.980469 233.972656 70.21875 233.9375 L 75.246094 240.996094 C 75.746094 241.699219 76.691406 241.925781 77.457031 241.523438 L 82.066406 239.089844 L 81.136719 238.367188 L 77.496094 239.570312 L 76.710938 238.558594 L 78.878906 237.089844 C 78.425781 236.949219 78 236.847656 77.617188 236.777344 L 76.070312 237.730469 L 75.101562 236.480469 L 75.445312 236.246094 C 75.15625 235.992188 74.871094 235.761719 74.601562 235.554688 L 74.457031 235.644531 L 74.351562 235.503906 C 74.351562 235.503906 73.84375 235.105469 73.039062 234.710938 L 72.308594 234.390625 " fill-opacity="1" fill-rule="nonzero"/></g></g></g><g clip-path="url(#62154efa5a)"><g clip-path="url(#3e248fcc36)"><g clip-path="url(#c0642f211b)"><path fill="#fffefe" d="M 73.113281 231.492188 L 80.015625 226.808594 L 79.660156 226.285156 L 72.03125 230.980469 C 72.414062 231.152344 72.777344 231.324219 73.113281 231.492188 " fill-opacity="1" fill-rule="nonzero"/></g></g></g><g clip-path="url(#947dd7b196)"><g clip-path="url(#5805d6aba4)"><g clip-path="url(#e15126b72d)"><g clip-path="url(#c7c29fb7ab)"><g clip-path="url(#068955f548)"><path fill="#fffefe" d="M 50.394531 205.441406 L 66.910156 228.761719 C 67.773438 229.078125 71.101562 230.570312 71.101562 230.570312 L 70.683594 229.964844 L 78.542969 224.636719 L 78.191406 224.113281 L 70.085938 229.097656 L 69.195312 227.804688 L 77.070312 222.464844 L 76.71875 221.945312 L 68.597656 226.9375 L 67.707031 225.644531 L 75.597656 220.292969 L 75.246094 219.773438 L 67.109375 224.777344 L 66.222656 223.484375 L 74.125 218.121094 L 73.773438 217.601562 L 65.621094 222.613281 L 64.734375 221.320312 L 72.652344 215.949219 L 72.300781 215.429688 L 64.132812 220.453125 L 63.246094 219.160156 L 71.179688 213.78125 L 70.828125 213.257812 L 62.644531 218.289062 L 61.757812 217 L 69.707031 211.609375 L 69.355469 211.085938 L 61.15625 216.128906 L 60.269531 214.839844 L 68.234375 209.4375 L 67.882812 208.914062 L 59.667969 213.96875 L 58.78125 212.675781 L 66.761719 207.265625 L 66.410156 206.742188 L 58.179688 211.804688 L 57.292969 210.515625 L 65.289062 205.09375 L 64.9375 204.570312 L 56.691406 209.644531 L 55.804688 208.355469 L 63.816406 202.921875 L 63.464844 202.402344 L 55.203125 207.480469 L 54.316406 206.195312 L 62.34375 200.75 L 61.992188 200.230469 L 53.714844 205.320312 L 53.4375 204.917969 C 53.050781 204.355469 53.203125 203.582031 53.777344 203.207031 L 61.121094 198.433594 L 60.734375 197.832031 L 51.144531 202.511719 C 50.042969 203.046875 49.6875 204.445312 50.394531 205.441406 " fill-opacity="1" fill-rule="nonzero"/></g></g></g></g></g><g clip-path="url(#cd3a82ec55)"><g clip-path="url(#6e7e752ea2)"><g clip-path="url(#f8801aba9a)"><path fill="#fffefe" d="M 75.953125 232.730469 L 81.488281 228.980469 L 81.136719 228.457031 L 74.78125 232.367188 C 75.253906 232.578125 75.640625 232.6875 75.953125 232.730469 " fill-opacity="1" fill-rule="nonzero"/></g></g></g><g clip-path="url(#926f0be9dc)"><g clip-path="url(#99d190ead6)"><g clip-path="url(#94d70a3691)"><g clip-path="url(#a810dc00a8)"><g clip-path="url(#eff520774e)"><path fill="#fffefe" d="M 65.300781 230.597656 C 65.644531 231.136719 65.488281 231.855469 64.949219 232.199219 C 64.410156 232.546875 63.691406 232.386719 63.347656 231.847656 C 63 231.308594 63.160156 230.589844 63.699219 230.246094 C 64.238281 229.902344 64.957031 230.058594 65.300781 230.597656 Z M 90.679688 236.296875 C 92.878906 237.320312 94.011719 239.5625 93.199219 241.304688 C 92.390625 243.050781 89.949219 243.632812 87.746094 242.609375 C 85.542969 241.585938 84.414062 239.34375 85.222656 237.601562 C 86.03125 235.859375 88.476562 235.273438 90.679688 236.296875 Z M 80.992188 250.910156 C 82.597656 252.734375 82.730469 255.238281 81.285156 256.507812 C 79.84375 257.777344 77.371094 257.332031 75.769531 255.507812 C 74.164062 253.683594 74.03125 251.175781 75.476562 249.90625 C 76.917969 248.636719 79.390625 249.085938 80.992188 250.910156 Z M 40.085938 214.144531 C 42.460938 216.066406 63.609375 233.171875 65.105469 234.96875 C 66.597656 236.765625 69.148438 239.496094 69.285156 242.046875 C 69.285156 242.046875 72.0625 244.054688 73.394531 247.21875 C 73.394531 247.21875 71.363281 251.039062 72.988281 254.476562 C 74.609375 257.910156 78.574219 260.882812 82.359375 258.003906 C 86.140625 255.128906 83.410156 250.679688 83.410156 250.679688 C 83.410156 250.679688 82.363281 249.398438 83.390625 247.59375 L 82.683594 246.667969 C 82.683594 246.667969 80.035156 249.167969 77.488281 247.699219 C 74.941406 246.226562 72.09375 245.183594 71.929688 241.15625 C 71.929688 241.15625 66.917969 237.328125 67.941406 233.84375 C 67.941406 233.84375 70.703125 231.160156 76.078125 235.980469 C 76.078125 235.980469 80.34375 236.007812 82.808594 238.789062 C 85.277344 241.570312 84.511719 243.78125 84.511719 243.78125 L 86.550781 245 C 86.550781 245 87.417969 244.5625 88.410156 244.5 C 89.40625 244.4375 90.828125 245.589844 94.449219 242.816406 C 94.449219 242.816406 98.015625 242.832031 99.335938 243.820312 C 100.660156 244.8125 101.410156 244.90625 102.089844 244.355469 C 102.089844 244.355469 102.597656 243.6875 100.503906 242.847656 C 98.40625 242.007812 97.5625 242.664062 95.496094 239.96875 C 93.429688 237.273438 93.351562 235.71875 90.511719 234.324219 C 87.667969 232.929688 84.679688 236.332031 81.929688 235.796875 C 79.175781 235.261719 77.503906 233.003906 77.503906 233.003906 C 77.503906 233.003906 76.492188 234.113281 73.757812 232.53125 C 71.027344 230.949219 63.621094 228.34375 63.621094 228.34375 L 38.351562 212.152344 C 38.351562 212.152344 37.707031 212.222656 40.085938 214.144531 " fill-opacity="1" fill-rule="nonzero"/></g></g></g></g></g><g clip-path="url(#83e8105c68)"><g clip-path="url(#902409ec33)"><g clip-path="url(#2dddee182d)"><g clip-path="url(#de78f365ca)"><g clip-path="url(#03f1a19c70)"><path fill="#ffffff" d="M 297.042969 226.527344 C 297.207031 227.082031 299.242188 229.011719 302.691406 231.242188 C 306.136719 233.46875 308.726562 234.53125 309.304688 234.457031 L 309.347656 234.394531 L 309.488281 234.34375 C 309.496094 234.339844 309.527344 234.328125 309.578125 234.3125 C 311.589844 233.683594 321.996094 230.078125 329.246094 220.898438 C 331.246094 218.367188 332.027344 215.664062 331.5625 212.867188 C 330.449219 206.160156 322.660156 201.058594 322.328125 200.84375 C 321.996094 200.628906 314.152344 195.628906 307.582031 197.367188 C 304.839844 198.09375 302.695312 199.914062 301.207031 202.777344 C 295.335938 214.085938 297.042969 226.175781 297.0625 226.296875 L 297.085938 226.457031 Z M 302.222656 231.96875 C 300.464844 230.835938 298.886719 229.65625 297.769531 228.652344 C 296.53125 227.535156 296.039062 226.8125 296.1875 226.300781 C 296.019531 224.980469 294.753906 213.324219 300.4375 202.375 C 302.039062 199.285156 304.371094 197.320312 307.359375 196.527344 C 314.296875 194.691406 322.453125 199.894531 322.800781 200.117188 C 325.929688 202.140625 331.480469 207.074219 332.417969 212.722656 C 332.925781 215.773438 332.085938 218.707031 329.929688 221.4375 C 322.578125 230.742188 312.058594 234.441406 309.886719 235.125 C 309.488281 235.492188 308.625 235.347656 307.074219 234.667969 C 305.699219 234.0625 303.976562 233.105469 302.222656 231.96875 " fill-opacity="1" fill-rule="nonzero"/></g></g></g></g></g><g clip-path="url(#fffa5586eb)"><g clip-path="url(#41e3d2a809)"><g clip-path="url(#226c19c06d)"><path fill="#ffffff" d="M 303.824219 202.199219 C 303.105469 203.425781 302.460938 204.671875 301.867188 205.9375 C 301.277344 207.207031 300.726562 208.488281 300.273438 209.804688 C 299.800781 211.113281 299.390625 212.449219 299.058594 213.804688 C 298.699219 215.160156 298.46875 216.539062 298.1875 217.9375 C 298.101562 216.519531 298.140625 215.078125 298.382812 213.667969 C 298.46875 212.953125 298.652344 212.261719 298.808594 211.5625 C 298.886719 211.210938 299.007812 210.875 299.105469 210.527344 C 299.207031 210.183594 299.316406 209.84375 299.441406 209.507812 C 299.925781 208.15625 300.527344 206.847656 301.257812 205.617188 C 301.980469 204.382812 302.8125 203.203125 303.824219 202.199219 " fill-opacity="1" fill-rule="nonzero"/></g></g></g><g clip-path="url(#1a6715d66d)"><g clip-path="url(#67e6dc3464)"><g clip-path="url(#7d6d0f527b)"><path fill="#ffffff" d="M 299.035156 227.78125 C 298.84375 226.414062 298.8125 225.035156 298.851562 223.660156 C 298.890625 222.285156 299.023438 220.910156 299.242188 219.546875 C 299.484375 218.1875 299.78125 216.832031 300.246094 215.527344 C 300.710938 214.222656 301.304688 212.949219 302.128906 211.84375 C 301.628906 213.128906 301.242188 214.417969 300.90625 215.722656 C 300.835938 216.054688 300.761719 216.382812 300.679688 216.707031 C 300.601562 217.035156 300.542969 217.371094 300.476562 217.699219 C 300.332031 218.359375 300.226562 219.027344 300.113281 219.691406 C 299.882812 221.023438 299.714844 222.367188 299.535156 223.714844 L 299.035156 227.78125 " fill-opacity="1" fill-rule="nonzero"/></g></g></g><g clip-path="url(#26b071fe79)"><g clip-path="url(#f97130f7ac)"><g clip-path="url(#3263f76478)"><path fill="#ffffff" d="M 328.625 218.226562 C 327.523438 220.058594 326.183594 221.742188 324.746094 223.328125 C 323.304688 224.914062 321.722656 226.371094 320.050781 227.714844 C 319.621094 228.042969 319.210938 228.386719 318.769531 228.695312 L 317.453125 229.621094 C 317.007812 229.921875 316.539062 230.1875 316.085938 230.472656 L 315.398438 230.890625 C 315.167969 231.027344 314.921875 231.144531 314.6875 231.269531 L 313.257812 232.007812 L 311.777344 232.640625 L 311.035156 232.945312 L 310.269531 233.199219 C 309.761719 233.363281 309.25 233.523438 308.742188 233.675781 C 309.21875 233.433594 309.699219 233.199219 310.175781 232.972656 L 310.894531 232.632812 L 311.59375 232.25 L 312.988281 231.496094 L 314.339844 230.671875 C 316.128906 229.554688 317.863281 228.359375 319.496094 227.023438 C 321.148438 225.71875 322.730469 224.316406 324.253906 222.847656 C 325.765625 221.371094 327.230469 219.839844 328.625 218.226562 " fill-opacity="1" fill-rule="nonzero"/></g></g></g><g clip-path="url(#b93a137332)"><g clip-path="url(#a1a59052ca)"><g clip-path="url(#9068d5dfbe)"><path fill="#ffffff" d="M 307.335938 233.171875 C 308.539062 232.382812 309.71875 231.589844 310.886719 230.785156 C 312.050781 229.972656 313.210938 229.160156 314.339844 228.304688 C 315.480469 227.464844 316.597656 226.597656 317.703125 225.707031 C 318.816406 224.828125 319.886719 223.898438 321.015625 223 C 320.15625 224.152344 319.203125 225.238281 318.160156 226.226562 C 317.652344 226.742188 317.097656 227.199219 316.558594 227.675781 C 316.003906 228.132812 315.445312 228.585938 314.867188 229.015625 C 313.710938 229.871094 312.507812 230.664062 311.25 231.367188 C 310 232.070312 308.703125 232.710938 307.335938 233.171875 " fill-opacity="1" fill-rule="nonzero"/></g></g></g><g clip-path="url(#7aa63eac74)"><g clip-path="url(#340fc002c5)"><g clip-path="url(#4ce95e63b1)"><path fill="#ffffff" d="M 306.484375 233.070312 C 309.410156 230.40625 312.375 227.820312 315.203125 225.097656 C 316.625 223.75 318.011719 222.359375 319.328125 220.910156 C 320.632812 219.457031 321.910156 217.96875 322.949219 216.277344 C 322.238281 218.140625 321.078125 219.800781 319.851562 221.359375 C 319.25 222.152344 318.566406 222.875 317.910156 223.621094 C 317.21875 224.335938 316.53125 225.054688 315.8125 225.734375 C 314.375 227.101562 312.882812 228.410156 311.324219 229.632812 C 309.769531 230.855469 308.171875 232.03125 306.484375 233.070312 " fill-opacity="1" fill-rule="nonzero"/></g></g></g><g clip-path="url(#eea8530f47)"><g clip-path="url(#44a8c4329a)"><g clip-path="url(#524a038130)"><path fill="#ffffff" d="M 317.898438 214.144531 C 317.257812 215.902344 316.273438 217.515625 315.253906 219.074219 C 314.222656 220.632812 313.101562 222.125 311.921875 223.566406 C 311.332031 224.289062 310.714844 224.988281 310.109375 225.695312 C 309.480469 226.378906 308.859375 227.074219 308.210938 227.746094 C 307.5625 228.410156 306.90625 229.070312 306.242188 229.71875 C 305.558594 230.355469 304.882812 230.992188 304.175781 231.601562 C 304.738281 230.859375 305.332031 230.140625 305.921875 229.425781 C 306.511719 228.707031 307.097656 227.988281 307.699219 227.285156 C 308.875 225.851562 310.074219 224.445312 311.234375 223.007812 L 312.117188 221.9375 L 312.980469 220.855469 C 313.5625 220.136719 314.128906 219.40625 314.691406 218.675781 C 315.808594 217.203125 316.929688 215.734375 317.898438 214.144531 " fill-opacity="1" fill-rule="nonzero"/></g></g></g><g clip-path="url(#7101ffa1dc)"><g clip-path="url(#9e1f27ca65)"><g clip-path="url(#1bafe2eacc)"><path fill="#ffffff" d="M 321.078125 214.84375 C 320.371094 214.675781 319.722656 214.335938 319.117188 213.933594 C 318.519531 213.523438 317.957031 213.054688 317.441406 212.535156 C 316.929688 212.023438 316.425781 211.464844 316.007812 210.898438 L 315.910156 210.761719 L 315.730469 210.734375 C 315.039062 210.625 314.363281 210.441406 313.75 210.140625 C 313.136719 209.839844 312.597656 209.417969 312.152344 208.910156 C 311.707031 208.398438 311.367188 207.792969 311.132812 207.144531 C 310.898438 206.5 310.738281 205.785156 310.714844 205.125 L 310.703125 204.8125 L 310.421875 204.742188 C 308.929688 204.375 307.476562 203.746094 306.269531 202.78125 C 305.675781 202.292969 305.132812 201.726562 304.792969 201.039062 C 304.625 200.699219 304.515625 200.324219 304.519531 199.941406 C 304.527344 199.558594 304.667969 199.175781 304.925781 198.871094 C 304.628906 199.136719 304.410156 199.511719 304.355469 199.925781 C 304.300781 200.339844 304.367188 200.765625 304.515625 201.15625 C 304.8125 201.9375 305.335938 202.605469 305.933594 203.164062 C 306.53125 203.734375 307.214844 204.203125 307.941406 204.585938 C 308.578125 204.929688 309.25 205.203125 309.945312 205.414062 C 309.976562 206.117188 310.105469 206.773438 310.328125 207.425781 C 310.585938 208.164062 310.972656 208.871094 311.484375 209.480469 C 312 210.089844 312.660156 210.578125 313.371094 210.917969 C 314.039062 211.230469 314.75 211.4375 315.464844 211.53125 C 315.925781 212.089844 316.414062 212.59375 316.949219 213.066406 C 317.527344 213.570312 318.144531 214.039062 318.824219 214.417969 C 319.503906 214.785156 320.238281 215.085938 321.019531 215.171875 C 321.792969 215.277344 322.59375 215.121094 323.25 214.75 C 322.535156 214.996094 321.777344 215.019531 321.078125 214.84375 " fill-opacity="1" fill-rule="nonzero"/></g></g></g><g clip-path="url(#bfe1629994)"><g clip-path="url(#01d2b2de54)"><g clip-path="url(#b903263952)"><path fill="#ffffff" d="M 308.785156 206.136719 C 307.328125 207.625 306.175781 209.355469 305.191406 211.148438 C 304.21875 212.957031 303.4375 214.859375 302.855469 216.824219 C 302.238281 218.78125 301.925781 220.804688 301.503906 222.859375 C 301.089844 224.898438 300.644531 226.933594 300.113281 228.953125 C 300.277344 226.867188 300.53125 224.800781 300.820312 222.742188 C 300.957031 221.707031 301.113281 220.695312 301.277344 219.644531 C 301.46875 218.609375 301.710938 217.582031 302.011719 216.570312 C 302.625 214.550781 303.476562 212.59375 304.597656 210.804688 C 305.722656 209.027344 307.078125 207.355469 308.785156 206.136719 " fill-opacity="1" fill-rule="nonzero"/></g></g></g><g clip-path="url(#ce5e800c56)"><g clip-path="url(#bb0e917c2b)"><g clip-path="url(#8cd9be410c)"><path fill="#ffffff" d="M 307.453125 209.65625 C 306.570312 211.179688 305.789062 212.730469 305.144531 214.335938 C 304.492188 215.9375 303.972656 217.585938 303.5625 219.261719 C 303.355469 220.101562 303.191406 220.941406 303.019531 221.804688 C 302.863281 222.671875 302.664062 223.53125 302.453125 224.386719 C 302.015625 226.089844 301.503906 227.785156 300.804688 229.398438 C 301.195312 227.683594 301.527344 225.972656 301.824219 224.253906 C 301.976562 223.394531 302.109375 222.53125 302.238281 221.671875 L 302.441406 220.363281 C 302.527344 219.925781 302.609375 219.492188 302.714844 219.058594 C 302.902344 218.191406 303.175781 217.339844 303.453125 216.5 C 303.753906 215.660156 304.097656 214.839844 304.488281 214.039062 C 305.269531 212.449219 306.25 210.945312 307.453125 209.65625 " fill-opacity="1" fill-rule="nonzero"/></g></g></g><g clip-path="url(#0446506945)"><g clip-path="url(#56fc99b633)"><g clip-path="url(#e377573b8c)"><path fill="#ffffff" d="M 315.484375 206.351562 C 315.773438 206.136719 316.15625 206.125 316.488281 206.175781 C 316.824219 206.234375 317.140625 206.375 317.417969 206.574219 C 317.691406 206.777344 317.925781 207.042969 318.078125 207.367188 C 318.222656 207.683594 318.28125 208.097656 318.085938 208.40625 C 317.898438 208.105469 317.707031 207.9375 317.507812 207.765625 C 317.308594 207.597656 317.105469 207.445312 316.894531 207.285156 L 316.242188 206.824219 C 316.015625 206.667969 315.792969 206.511719 315.484375 206.351562 " fill-opacity="1" fill-rule="nonzero"/></g></g></g><g clip-path="url(#274a0eb10b)"><g clip-path="url(#dd3595c8c9)"><g clip-path="url(#e5ae4eb8b3)"><path fill="#ffffff" d="M 308.492188 198.894531 C 308.90625 198.675781 309.371094 198.613281 309.828125 198.625 C 310.289062 198.640625 310.753906 198.757812 311.179688 198.972656 C 311.605469 199.183594 311.980469 199.511719 312.246094 199.902344 C 312.523438 200.285156 312.664062 200.753906 312.675781 201.210938 C 312.324219 200.898438 312.058594 200.601562 311.734375 200.371094 C 311.429688 200.132812 311.117188 199.929688 310.777344 199.761719 C 310.101562 199.410156 309.355469 199.1875 308.492188 198.894531 " fill-opacity="1" fill-rule="nonzero"/></g></g></g><g clip-path="url(#7fed22bace)"><g clip-path="url(#c62d222cd1)"><g clip-path="url(#639857fad1)"><path fill="#ffffff" d="M 316.386719 199.785156 C 317.035156 199.601562 317.738281 199.65625 318.398438 199.855469 C 319.054688 200.058594 319.679688 200.425781 320.175781 200.917969 C 320.421875 201.167969 320.644531 201.441406 320.824219 201.738281 C 320.941406 201.917969 320.941406 201.933594 321.039062 202.03125 C 321.132812 202.109375 321.238281 202.199219 321.363281 202.277344 C 321.863281 202.589844 322.457031 202.855469 323.046875 203.160156 C 322.378906 203.210938 321.714844 203.140625 321.054688 202.894531 C 320.890625 202.835938 320.722656 202.753906 320.558594 202.640625 C 320.398438 202.539062 320.203125 202.292969 320.136719 202.210938 C 319.957031 201.976562 319.761719 201.753906 319.554688 201.546875 C 318.722656 200.714844 317.65625 200.152344 316.386719 199.785156 " fill-opacity="1" fill-rule="nonzero"/></g></g></g><g clip-path="url(#954116f8b6)"><g clip-path="url(#6dc12ca634)"><g clip-path="url(#81bf046f48)"><path fill="#ffffff" d="M 330.613281 216.867188 C 330.308594 217.304688 329.820312 217.601562 329.292969 217.75 C 328.757812 217.898438 328.167969 217.878906 327.632812 217.710938 C 327.097656 217.535156 326.632812 217.21875 326.257812 216.839844 C 326.070312 216.648438 325.921875 216.425781 325.765625 216.214844 C 325.644531 215.980469 325.523438 215.75 325.4375 215.503906 C 325.675781 215.628906 325.878906 215.777344 326.082031 215.917969 L 326.691406 216.296875 C 327.097656 216.53125 327.492188 216.730469 327.902344 216.871094 C 328.726562 217.128906 329.601562 217.132812 330.613281 216.867188 " fill-opacity="1" fill-rule="nonzero"/></g></g></g><g clip-path="url(#b7ea86c78f)"><g clip-path="url(#54d4761bb6)"><g clip-path="url(#1dcdeccbe1)"><path fill="#ffffff" d="M 321.441406 207.839844 C 321.386719 208.3125 321.691406 208.664062 321.996094 208.953125 C 322.308594 209.246094 322.675781 209.476562 323.050781 209.664062 C 323.433594 209.839844 323.832031 209.988281 324.207031 210.011719 C 324.355469 210.015625 324.644531 210.003906 324.902344 210.035156 C 325.15625 210.070312 325.5 210.144531 325.777344 210.429688 C 326.046875 210.730469 326.078125 211.007812 326.15625 211.191406 C 326.191406 211.285156 326.230469 211.378906 326.261719 211.449219 C 326.253906 211.445312 326.277344 211.480469 326.339844 211.515625 C 326.464844 211.597656 326.667969 211.671875 326.875 211.738281 C 327.082031 211.804688 327.304688 211.867188 327.527344 211.945312 C 327.96875 212.09375 328.433594 212.28125 328.828125 212.605469 C 329.21875 212.933594 329.457031 213.453125 329.390625 213.917969 C 329.246094 213.46875 328.949219 213.144531 328.578125 212.972656 C 328.207031 212.785156 327.785156 212.707031 327.351562 212.621094 C 327.128906 212.585938 326.90625 212.546875 326.675781 212.496094 C 326.441406 212.441406 326.203125 212.390625 325.925781 212.253906 C 325.789062 212.179688 325.625 212.070312 325.507812 211.863281 C 325.433594 211.730469 325.378906 211.617188 325.335938 211.496094 C 325.25 211.257812 325.179688 211.070312 325.132812 211.03125 C 325.09375 210.980469 324.96875 210.925781 324.777344 210.894531 C 324.585938 210.859375 324.414062 210.871094 324.109375 210.828125 C 323.574219 210.742188 323.117188 210.527344 322.710938 210.25 C 322.300781 209.972656 321.945312 209.628906 321.671875 209.222656 C 321.539062 209.015625 321.417969 208.796875 321.363281 208.550781 C 321.300781 208.3125 321.316406 208.039062 321.441406 207.839844 " fill-opacity="1" fill-rule="nonzero"/></g></g></g><g clip-path="url(#049254e456)"><g clip-path="url(#34b7b7baca)"><g clip-path="url(#ca7c714482)"><path fill="#ffffff" d="M 309.160156 217.898438 C 308.683594 219.019531 308.152344 220.105469 307.605469 221.175781 C 307.0625 222.253906 306.488281 223.308594 305.921875 224.371094 C 305.335938 225.417969 304.757812 226.472656 304.144531 227.511719 C 303.535156 228.546875 302.921875 229.585938 302.238281 230.59375 C 302.589844 229.429688 303.03125 228.296875 303.53125 227.195312 C 303.765625 226.636719 304.046875 226.101562 304.304688 225.550781 L 305.144531 223.945312 C 305.730469 222.886719 306.339844 221.84375 307.007812 220.832031 C 307.671875 219.820312 308.371094 218.828125 309.160156 217.898438 " fill-opacity="1" fill-rule="nonzero"/></g></g></g><g clip-path="url(#91f7a5060c)"><g clip-path="url(#1108a2a6d1)"><g clip-path="url(#8fa326f50b)"><path fill="#ffffff" d="M 320.101562 216.097656 C 319.777344 217.003906 319.335938 217.859375 318.851562 218.679688 C 318.371094 219.507812 317.820312 220.289062 317.238281 221.046875 C 316.644531 221.796875 316.007812 222.515625 315.3125 223.179688 C 314.617188 223.835938 313.859375 224.441406 313.023438 224.917969 C 313.617188 224.160156 314.21875 223.441406 314.804688 222.710938 C 315.382812 221.972656 315.972656 221.246094 316.542969 220.503906 C 317.703125 219.03125 318.832031 217.539062 320.101562 216.097656 " fill-opacity="1" fill-rule="nonzero"/></g></g></g><g clip-path="url(#4d06fcbf68)"><g clip-path="url(#c7e5275667)"><g clip-path="url(#c9549462a5)"><g clip-path="url(#891f43ae3f)"><g clip-path="url(#481edef7d7)"><path fill="#ffffff" d="M 293.609375 257.113281 C 292.898438 256.816406 292.179688 256.539062 291.484375 256.203125 C 290.089844 255.554688 288.738281 254.804688 287.4375 253.96875 C 286.148438 253.117188 284.898438 252.203125 283.753906 251.160156 C 282.617188 250.121094 281.53125 248.992188 280.714844 247.679688 C 281.8125 248.757812 282.996094 249.707031 284.195312 250.632812 C 285.40625 251.542969 286.644531 252.40625 287.917969 253.226562 C 288.554688 253.640625 289.191406 254.046875 289.847656 254.429688 C 290.484375 254.84375 291.15625 255.195312 291.804688 255.59375 C 292.460938 255.976562 293.132812 256.332031 293.792969 256.71875 C 294.460938 257.089844 295.136719 257.445312 295.796875 257.847656 C 295.058594 257.625 294.332031 257.375 293.609375 257.113281 Z M 282.238281 245.503906 C 282.5625 245.070312 282.957031 244.6875 283.394531 244.367188 C 283.832031 244.039062 284.320312 243.78125 284.839844 243.609375 C 285.351562 243.429688 285.90625 243.355469 286.449219 243.398438 C 285.996094 243.71875 285.550781 243.953125 285.136719 244.238281 C 284.71875 244.507812 284.3125 244.785156 283.917969 245.078125 C 283.117188 245.65625 282.371094 246.289062 281.511719 246.953125 C 281.640625 246.414062 281.917969 245.9375 282.238281 245.503906 Z M 288.792969 236.003906 C 289.207031 234.773438 289.742188 233.582031 290.367188 232.4375 C 291.007812 231.296875 291.734375 230.199219 292.636719 229.21875 C 293.089844 228.730469 293.578125 228.261719 294.152344 227.878906 C 294.4375 227.6875 294.75 227.515625 295.078125 227.382812 C 295.421875 227.253906 295.730469 227.148438 296.164062 227.121094 L 296.363281 227.105469 L 296.507812 227.285156 C 296.996094 227.882812 297.609375 228.472656 298.226562 229.011719 C 298.851562 229.554688 299.503906 230.066406 300.183594 230.550781 C 300.859375 231.042969 301.558594 231.5 302.273438 231.941406 C 302.625 232.167969 302.992188 232.371094 303.351562 232.589844 L 304.453125 233.214844 C 303.65625 232.933594 302.867188 232.621094 302.101562 232.257812 C 301.332031 231.898438 300.585938 231.488281 299.851562 231.054688 C 299.128906 230.601562 298.417969 230.125 297.742188 229.59375 C 297.136719 229.097656 296.550781 228.601562 296.003906 227.996094 C 295.816406 228.03125 295.597656 228.101562 295.40625 228.183594 C 295.140625 228.292969 294.886719 228.4375 294.644531 228.605469 C 294.15625 228.945312 293.695312 229.359375 293.273438 229.808594 C 292.429688 230.71875 291.6875 231.742188 291.023438 232.820312 C 289.699219 234.976562 288.644531 237.3125 287.921875 239.785156 C 288.058594 238.5 288.375 237.234375 288.792969 236.003906 Z M 294.714844 232.679688 C 295.121094 232.199219 295.578125 231.761719 296.070312 231.371094 C 296.5625 230.980469 297.09375 230.632812 297.691406 230.394531 C 297.324219 230.917969 296.9375 231.394531 296.550781 231.863281 L 295.390625 233.253906 L 294.21875 234.628906 C 293.824219 235.085938 293.449219 235.5625 293.003906 236.027344 C 293.121094 235.398438 293.34375 234.796875 293.648438 234.242188 C 293.949219 233.683594 294.300781 233.15625 294.714844 232.679688 Z M 291.300781 243.925781 L 293.449219 245.589844 C 294.164062 246.152344 294.890625 246.699219 295.59375 247.316406 C 294.710938 247.019531 293.867188 246.628906 293.066406 246.164062 C 292.257812 245.714844 291.492188 245.1875 290.757812 244.625 C 290.027344 244.054688 289.339844 243.425781 288.703125 242.753906 C 288.070312 242.078125 287.476562 241.355469 287.019531 240.539062 Z M 293.972656 230.730469 C 294.644531 230.09375 295.417969 229.503906 296.316406 229.246094 C 295.605469 229.824219 295.035156 230.503906 294.480469 231.191406 C 293.933594 231.886719 293.433594 232.617188 292.953125 233.363281 C 292.46875 234.105469 292.019531 234.875 291.550781 235.640625 C 291.335938 236.035156 291.097656 236.417969 290.867188 236.808594 C 290.636719 237.199219 290.410156 237.59375 290.144531 237.976562 C 290.226562 237.519531 290.347656 237.078125 290.46875 236.632812 C 290.609375 236.195312 290.765625 235.761719 290.933594 235.335938 C 291.296875 234.488281 291.699219 233.65625 292.210938 232.882812 C 292.707031 232.101562 293.296875 231.371094 293.972656 230.730469 Z M 299.800781 252.0625 C 299.824219 251.546875 299.941406 251.050781 300.136719 250.589844 L 300.140625 250.589844 C 300.445312 250.789062 300.859375 250.699219 301.054688 250.394531 C 301.25 250.089844 301.164062 249.679688 300.859375 249.484375 L 300.839844 249.472656 C 301.046875 249.234375 301.285156 249.023438 301.546875 248.835938 C 312.882812 240.886719 309.652344 234.800781 309.632812 234.761719 C 309.253906 235.335938 306.042969 233.925781 302.457031 231.605469 C 298.867188 229.285156 296.261719 226.9375 296.632812 226.359375 C 296.632812 226.359375 289.71875 225.867188 287.117188 239.511719 C 287.054688 239.824219 286.960938 240.128906 286.828125 240.417969 L 286.8125 240.40625 C 286.507812 240.207031 286.097656 240.296875 285.898438 240.601562 C 285.703125 240.90625 285.792969 241.316406 286.097656 241.511719 L 286.101562 241.515625 C 285.761719 241.882812 285.351562 242.195312 284.894531 242.425781 C 283.421875 243.175781 281.445312 244.46875 280.367188 246.390625 C 280.222656 246.613281 280.308594 247 280.597656 247.5 C 280.453125 247.71875 280.074219 248.308594 280 248.425781 C 279.453125 249.269531 282.480469 252.613281 286.992188 255.53125 C 291.507812 258.449219 295.796875 259.832031 296.34375 258.988281 C 296.421875 258.871094 296.816406 258.257812 296.941406 258.066406 C 297.515625 258.121094 297.902344 258.042969 298.046875 257.816406 C 298.050781 257.8125 298.050781 257.808594 298.054688 257.804688 C 299.355469 256.039062 299.722656 253.707031 299.800781 252.0625 " fill-opacity="1" fill-rule="nonzero"/></g></g></g></g></g><g clip-path="url(#c08b0323e3)"><g clip-path="url(#390922891a)"><g clip-path="url(#3b72fde6b4)"><path fill="#ffffff" d="M 315.566406 212.300781 C 315.175781 214.148438 314.363281 215.878906 313.519531 217.554688 C 312.65625 219.230469 311.6875 220.851562 310.652344 222.417969 C 310.136719 223.207031 309.589844 223.96875 309.054688 224.742188 C 308.488281 225.492188 307.9375 226.253906 307.355469 226.988281 C 306.769531 227.722656 306.175781 228.449219 305.570312 229.167969 C 304.949219 229.871094 304.332031 230.578125 303.683594 231.257812 C 304.175781 230.457031 304.703125 229.679688 305.222656 228.902344 C 305.746094 228.128906 306.261719 227.347656 306.796875 226.582031 C 307.835938 225.027344 308.898438 223.492188 309.914062 221.933594 L 310.6875 220.769531 L 311.4375 219.589844 C 311.945312 218.808594 312.433594 218.015625 312.917969 217.222656 C 313.867188 215.621094 314.828125 214.023438 315.566406 212.300781 " fill-opacity="1" fill-rule="nonzero"/></g></g></g></svg>