<svg xmlns="http://www.w3.org/2000/svg" xmlns:xlink="http://www.w3.org/1999/xlink" width="500" zoomAndPan="magnify" viewBox="0 0 375 374.999991" height="500" preserveAspectRatio="xMidYMid meet" version="1.0"><defs><clipPath id="29bffff847"><path d="M 37.5 37.5 L 337.5 37.5 L 337.5 337.5 L 37.5 337.5 Z M 37.5 37.5 " clip-rule="nonzero"/></clipPath></defs><g clip-path="url(#29bffff847)"><path fill="#b3854a" d="M 187.5 337.5 C 104.65625 337.5 37.5 270.34375 37.5 187.5 C 37.5 104.65625 104.65625 37.5 187.5 37.5 C 270.34375 37.5 337.5 104.65625 337.5 187.5 C 337.5 270.34375 270.34375 337.5 187.5 337.5 " fill-opacity="1" fill-rule="nonzero"/></g><path fill="#ffffff" d="M 121.949219 99.8125 C 109.742188 99.8125 99.8125 109.742188 99.8125 121.949219 L 99.8125 253.050781 C 99.8125 265.257812 109.742188 275.1875 121.949219 275.1875 L 253.050781 275.1875 C 265.257812 275.1875 275.1875 265.257812 275.1875 253.050781 L 275.1875 121.949219 C 275.1875 109.742188 265.257812 99.8125 253.050781 99.8125 Z M 253.050781 285.960938 L 121.949219 285.960938 C 103.800781 285.960938 89.039062 271.199219 89.039062 253.050781 L 89.039062 121.949219 C 89.039062 103.800781 103.800781 89.039062 121.949219 89.039062 L 253.050781 89.039062 C 271.199219 89.039062 285.960938 103.800781 285.960938 121.949219 L 285.960938 253.050781 C 285.960938 271.199219 271.199219 285.960938 253.050781 285.960938 " fill-opacity="1" fill-rule="nonzero"/><path fill="#ffffff" d="M 187.5 147.746094 C 165.582031 147.746094 147.746094 165.582031 147.746094 187.5 C 147.746094 209.417969 165.582031 227.253906 187.5 227.253906 C 209.417969 227.253906 227.253906 209.417969 227.253906 187.5 C 227.253906 165.582031 209.417969 147.746094 187.5 147.746094 Z M 187.5 238.027344 C 174.003906 238.027344 161.316406 232.769531 151.773438 223.226562 C 142.230469 213.683594 136.972656 200.996094 136.972656 187.5 C 136.972656 174.003906 142.230469 161.316406 151.773438 151.773438 C 161.316406 142.230469 174.003906 136.972656 187.5 136.972656 C 200.996094 136.972656 213.683594 142.230469 223.226562 151.773438 C 232.769531 161.316406 238.027344 174.003906 238.027344 187.5 C 238.027344 200.996094 232.769531 213.683594 223.226562 223.226562 C 213.683594 232.769531 200.996094 238.027344 187.5 238.027344 " fill-opacity="1" fill-rule="nonzero"/><path fill="#ffffff" d="M 259.890625 116.402344 C 259.890625 121.753906 255.550781 126.097656 250.195312 126.097656 C 244.84375 126.097656 240.5 121.753906 240.5 116.402344 C 240.5 111.046875 244.84375 106.707031 250.195312 106.707031 C 255.550781 106.707031 259.890625 111.046875 259.890625 116.402344 " fill-opacity="1" fill-rule="nonzero"/></svg>