<svg xmlns="http://www.w3.org/2000/svg" xmlns:xlink="http://www.w3.org/1999/xlink" width="500" zoomAndPan="magnify" viewBox="0 0 375 374.999991" height="500" preserveAspectRatio="xMidYMid meet" version="1.0"><defs><clipPath id="3e36739dc1"><path d="M 37.5 37.5 L 337.5 37.5 L 337.5 337.5 L 37.5 337.5 Z M 37.5 37.5 " clip-rule="nonzero"/></clipPath></defs><g clip-path="url(#3e36739dc1)"><path fill="#b3854a" d="M 337.523438 187.484375 C 337.523438 189.941406 337.460938 192.394531 337.34375 194.84375 C 337.222656 197.296875 337.042969 199.746094 336.800781 202.1875 C 336.558594 204.628906 336.257812 207.066406 335.898438 209.496094 C 335.539062 211.921875 335.121094 214.339844 334.640625 216.75 C 334.160156 219.15625 333.625 221.550781 333.027344 223.933594 C 332.429688 226.3125 331.777344 228.679688 331.0625 231.027344 C 330.351562 233.378906 329.582031 235.707031 328.753906 238.019531 C 327.925781 240.332031 327.042969 242.621094 326.105469 244.886719 C 325.164062 247.15625 324.171875 249.398438 323.121094 251.621094 C 322.070312 253.839844 320.96875 256.03125 319.8125 258.195312 C 318.652344 260.359375 317.445312 262.496094 316.183594 264.601562 C 314.917969 266.707031 313.605469 268.78125 312.242188 270.824219 C 310.878906 272.863281 309.464844 274.871094 308.003906 276.84375 C 306.539062 278.8125 305.03125 280.75 303.472656 282.644531 C 301.917969 284.542969 300.3125 286.402344 298.664062 288.222656 C 297.015625 290.039062 295.324219 291.816406 293.589844 293.554688 C 291.851562 295.289062 290.074219 296.980469 288.253906 298.628906 C 286.4375 300.277344 284.578125 301.882812 282.679688 303.4375 C 280.78125 304.996094 278.847656 306.507812 276.875 307.96875 C 274.90625 309.429688 272.898438 310.84375 270.855469 312.207031 C 268.816406 313.570312 266.742188 314.886719 264.636719 316.148438 C 262.53125 317.410156 260.394531 318.617188 258.230469 319.777344 C 256.066406 320.933594 253.875 322.035156 251.652344 323.085938 C 249.433594 324.136719 247.191406 325.128906 244.921875 326.070312 C 242.65625 327.007812 240.367188 327.894531 238.054688 328.71875 C 235.742188 329.546875 233.414062 330.316406 231.0625 331.03125 C 228.714844 331.742188 226.347656 332.398438 223.96875 332.992188 C 221.585938 333.589844 219.191406 334.128906 216.785156 334.605469 C 214.375 335.085938 211.957031 335.503906 209.53125 335.863281 C 207.101562 336.226562 204.664062 336.527344 202.222656 336.765625 C 199.777344 337.007812 197.332031 337.1875 194.878906 337.308594 C 192.425781 337.429688 189.972656 337.488281 187.519531 337.488281 C 185.0625 337.488281 182.609375 337.429688 180.160156 337.308594 C 177.707031 337.1875 175.257812 337.007812 172.816406 336.765625 C 170.375 336.527344 167.9375 336.226562 165.507812 335.863281 C 163.082031 335.503906 160.664062 335.085938 158.253906 334.605469 C 155.847656 334.128906 153.453125 333.589844 151.070312 332.992188 C 148.691406 332.398438 146.324219 331.742188 143.976562 331.03125 C 141.625 330.316406 139.296875 329.546875 136.984375 328.71875 C 134.671875 327.894531 132.382812 327.007812 130.113281 326.070312 C 127.847656 325.128906 125.605469 324.136719 123.382812 323.085938 C 121.164062 322.035156 118.972656 320.933594 116.808594 319.777344 C 114.644531 318.617188 112.507812 317.410156 110.402344 316.148438 C 108.296875 314.886719 106.222656 313.570312 104.179688 312.207031 C 102.140625 310.84375 100.132812 309.429688 98.160156 307.96875 C 96.191406 306.507812 94.253906 304.996094 92.359375 303.4375 C 90.460938 301.882812 88.601562 300.277344 86.78125 298.628906 C 84.964844 296.980469 83.1875 295.289062 81.449219 293.554688 C 79.714844 291.816406 78.023438 290.039062 76.375 288.222656 C 74.726562 286.402344 73.121094 284.542969 71.566406 282.644531 C 70.007812 280.75 68.496094 278.8125 67.035156 276.839844 C 65.574219 274.871094 64.160156 272.863281 62.796875 270.824219 C 61.433594 268.78125 60.117188 266.707031 58.855469 264.601562 C 57.59375 262.496094 56.386719 260.359375 55.226562 258.195312 C 54.070312 256.03125 52.96875 253.839844 51.917969 251.621094 C 50.867188 249.398438 49.875 247.15625 48.933594 244.886719 C 47.996094 242.621094 47.109375 240.332031 46.285156 238.019531 C 45.457031 235.707031 44.6875 233.378906 43.972656 231.027344 C 43.261719 228.679688 42.605469 226.3125 42.011719 223.933594 C 41.414062 221.550781 40.875 219.15625 40.398438 216.75 C 39.917969 214.339844 39.5 211.921875 39.140625 209.496094 C 38.777344 207.066406 38.476562 204.628906 38.238281 202.1875 C 37.996094 199.746094 37.816406 197.296875 37.695312 194.84375 C 37.574219 192.394531 37.515625 189.941406 37.515625 187.484375 C 37.515625 185.03125 37.574219 182.578125 37.695312 180.125 C 37.816406 177.671875 37.996094 175.226562 38.238281 172.78125 C 38.476562 170.339844 38.777344 167.902344 39.140625 165.472656 C 39.5 163.046875 39.917969 160.628906 40.398438 158.21875 C 40.875 155.8125 41.414062 153.417969 42.011719 151.035156 C 42.605469 148.65625 43.261719 146.289062 43.972656 143.941406 C 44.6875 141.589844 45.457031 139.261719 46.285156 136.949219 C 47.109375 134.636719 47.996094 132.347656 48.933594 130.082031 C 49.875 127.8125 50.867188 125.570312 51.917969 123.351562 C 52.96875 121.128906 54.070312 118.9375 55.226562 116.773438 C 56.386719 114.609375 57.59375 112.472656 58.855469 110.367188 C 60.117188 108.261719 61.433594 106.1875 62.796875 104.148438 C 64.160156 102.105469 65.574219 100.097656 67.035156 98.128906 C 68.496094 96.15625 70.007812 94.222656 71.566406 92.324219 C 73.121094 90.425781 74.726562 88.566406 76.375 86.75 C 78.023438 84.929688 79.714844 83.152344 81.449219 81.414062 C 83.1875 79.679688 84.964844 77.988281 86.78125 76.339844 C 88.601562 74.691406 90.460938 73.085938 92.359375 71.53125 C 94.253906 69.972656 96.191406 68.460938 98.160156 67 C 100.132812 65.539062 102.140625 64.125 104.179688 62.761719 C 106.222656 61.398438 108.296875 60.085938 110.402344 58.820312 C 112.507812 57.558594 114.644531 56.351562 116.808594 55.191406 C 118.972656 54.035156 121.164062 52.933594 123.382812 51.882812 C 125.601562 50.832031 127.847656 49.839844 130.113281 48.898438 C 132.382812 47.960938 134.671875 47.078125 136.984375 46.25 C 139.296875 45.421875 141.625 44.652344 143.976562 43.941406 C 146.324219 43.226562 148.691406 42.574219 151.070312 41.976562 C 153.453125 41.378906 155.847656 40.84375 158.253906 40.363281 C 160.664062 39.882812 163.082031 39.464844 165.507812 39.105469 C 167.9375 38.746094 170.375 38.445312 172.816406 38.203125 C 175.257812 37.960938 177.707031 37.78125 180.160156 37.660156 C 182.609375 37.542969 185.0625 37.480469 187.519531 37.480469 C 189.972656 37.480469 192.425781 37.542969 194.878906 37.660156 C 197.332031 37.78125 199.777344 37.960938 202.222656 38.203125 C 204.664062 38.445312 207.101562 38.746094 209.53125 39.105469 C 211.957031 39.464844 214.375 39.882812 216.785156 40.363281 C 219.191406 40.84375 221.585938 41.378906 223.96875 41.976562 C 226.347656 42.574219 228.714844 43.226562 231.0625 43.941406 C 233.414062 44.652344 235.742188 45.421875 238.054688 46.25 C 240.367188 47.078125 242.65625 47.960938 244.921875 48.898438 C 247.191406 49.839844 249.433594 50.832031 251.652344 51.882812 C 253.875 52.933594 256.066406 54.035156 258.230469 55.191406 C 260.394531 56.351562 262.53125 57.558594 264.636719 58.820312 C 266.742188 60.085938 268.816406 61.398438 270.855469 62.761719 C 272.898438 64.125 274.90625 65.539062 276.875 67 C 278.847656 68.460938 280.78125 69.972656 282.679688 71.53125 C 284.578125 73.085938 286.4375 74.691406 288.253906 76.339844 C 290.074219 77.988281 291.851562 79.679688 293.589844 81.414062 C 295.324219 83.152344 297.015625 84.929688 298.664062 86.75 C 300.3125 88.566406 301.917969 90.425781 303.472656 92.324219 C 305.03125 94.222656 306.539062 96.15625 308.003906 98.128906 C 309.464844 100.097656 310.878906 102.105469 312.242188 104.148438 C 313.605469 106.1875 314.917969 108.261719 316.183594 110.367188 C 317.445312 112.472656 318.652344 114.609375 319.8125 116.773438 C 320.96875 118.9375 322.070312 121.128906 323.121094 123.351562 C 324.171875 125.570312 325.164062 127.8125 326.105469 130.082031 C 327.042969 132.347656 327.925781 134.636719 328.753906 136.949219 C 329.582031 139.261719 330.351562 141.589844 331.0625 143.941406 C 331.777344 146.289062 332.429688 148.65625 333.027344 151.035156 C 333.625 153.417969 334.160156 155.8125 334.640625 158.21875 C 335.121094 160.628906 335.539062 163.046875 335.898438 165.472656 C 336.257812 167.902344 336.558594 170.339844 336.800781 172.78125 C 337.042969 175.226562 337.222656 177.671875 337.34375 180.125 C 337.460938 182.578125 337.523438 185.03125 337.523438 187.484375 Z M 337.523438 187.484375 " fill-opacity="1" fill-rule="nonzero"/></g><path fill="#ffffff" d="M 252.191406 154.917969 C 252.167969 152.8125 252.042969 150.71875 251.8125 148.625 C 251.585938 146.535156 251.257812 144.460938 250.828125 142.402344 C 250.398438 140.34375 249.867188 138.308594 249.242188 136.300781 C 248.613281 134.292969 247.886719 132.324219 247.066406 130.386719 C 246.246094 128.449219 245.332031 126.558594 244.328125 124.710938 C 243.324219 122.863281 242.230469 121.066406 241.050781 119.328125 C 239.867188 117.585938 238.605469 115.90625 237.261719 114.289062 C 235.917969 112.671875 234.496094 111.125 233.003906 109.644531 C 231.507812 108.164062 229.941406 106.761719 228.3125 105.433594 C 226.679688 104.109375 224.984375 102.863281 223.230469 101.703125 C 221.480469 100.542969 219.671875 99.46875 217.8125 98.484375 C 215.957031 97.5 214.054688 96.605469 212.109375 95.804688 C 210.164062 95.007812 208.183594 94.304688 206.167969 93.695312 C 204.15625 93.089844 202.117188 92.582031 200.054688 92.175781 C 197.988281 91.769531 195.910156 91.460938 193.816406 91.257812 C 191.726562 91.054688 189.625 90.949219 187.523438 90.949219 C 185.417969 90.949219 183.320312 91.054688 181.226562 91.257812 C 179.132812 91.460938 177.054688 91.769531 174.992188 92.175781 C 172.929688 92.582031 170.890625 93.089844 168.875 93.695312 C 166.863281 94.304688 164.882812 95.007812 162.9375 95.804688 C 160.992188 96.605469 159.089844 97.5 157.230469 98.484375 C 155.375 99.46875 153.566406 100.542969 151.8125 101.703125 C 150.058594 102.863281 148.367188 104.109375 146.734375 105.433594 C 145.101562 106.761719 143.539062 108.164062 142.042969 109.644531 C 140.546875 111.125 139.128906 112.671875 137.785156 114.289062 C 136.441406 115.90625 135.175781 117.585938 133.996094 119.328125 C 132.816406 121.066406 131.722656 122.863281 130.71875 124.710938 C 129.714844 126.558594 128.800781 128.449219 127.980469 130.386719 C 127.160156 132.324219 126.433594 134.292969 125.804688 136.300781 C 125.175781 138.308594 124.648438 140.34375 124.21875 142.402344 C 123.789062 144.460938 123.460938 146.535156 123.230469 148.625 C 123.003906 150.71875 122.878906 152.8125 122.855469 154.917969 C 122.847656 160.742188 123.617188 166.464844 125.160156 172.082031 C 126.703125 177.699219 128.96875 183.007812 131.957031 188.011719 L 187.527344 284.722656 L 243.097656 188.011719 C 246.082031 183.007812 248.347656 177.699219 249.894531 172.082031 C 251.4375 166.464844 252.207031 160.742188 252.199219 154.917969 Z M 187.519531 124.570312 C 188.511719 124.570312 189.503906 124.621094 190.492188 124.71875 C 191.484375 124.816406 192.464844 124.960938 193.4375 125.15625 C 194.414062 125.347656 195.375 125.589844 196.328125 125.878906 C 197.277344 126.167969 198.214844 126.5 199.132812 126.882812 C 200.050781 127.261719 200.949219 127.6875 201.824219 128.15625 C 202.699219 128.625 203.550781 129.132812 204.378906 129.6875 C 205.203125 130.238281 206 130.828125 206.769531 131.460938 C 207.539062 132.089844 208.273438 132.757812 208.976562 133.460938 C 209.679688 134.164062 210.347656 134.898438 210.976562 135.667969 C 211.605469 136.433594 212.199219 137.230469 212.75 138.058594 C 213.300781 138.882812 213.8125 139.734375 214.28125 140.613281 C 214.75 141.488281 215.175781 142.386719 215.554688 143.304688 C 215.933594 144.222656 216.269531 145.15625 216.558594 146.109375 C 216.847656 147.058594 217.085938 148.023438 217.28125 148.996094 C 217.476562 149.972656 217.621094 150.953125 217.71875 151.941406 C 217.816406 152.933594 217.863281 153.921875 217.863281 154.917969 C 217.863281 155.910156 217.816406 156.902344 217.71875 157.890625 C 217.621094 158.878906 217.476562 159.863281 217.28125 160.835938 C 217.085938 161.8125 216.847656 162.773438 216.558594 163.726562 C 216.269531 164.675781 215.933594 165.613281 215.554688 166.53125 C 215.175781 167.449219 214.75 168.34375 214.28125 169.222656 C 213.8125 170.097656 213.300781 170.949219 212.75 171.777344 C 212.199219 172.601562 211.605469 173.398438 210.976562 174.167969 C 210.347656 174.9375 209.679688 175.671875 208.976562 176.375 C 208.273438 177.078125 207.539062 177.742188 206.769531 178.375 C 206 179.003906 205.203125 179.597656 204.378906 180.148438 C 203.550781 180.699219 202.699219 181.210938 201.824219 181.679688 C 200.949219 182.148438 200.050781 182.574219 199.132812 182.953125 C 198.214844 183.332031 197.277344 183.667969 196.328125 183.957031 C 195.375 184.246094 194.414062 184.484375 193.4375 184.679688 C 192.464844 184.875 191.484375 185.019531 190.492188 185.117188 C 189.503906 185.214844 188.511719 185.261719 187.519531 185.261719 C 186.523438 185.261719 185.535156 185.214844 184.542969 185.117188 C 183.554688 185.019531 182.574219 184.875 181.597656 184.679688 C 180.625 184.484375 179.660156 184.246094 178.710938 183.957031 C 177.757812 183.667969 176.824219 183.332031 175.90625 182.953125 C 174.988281 182.574219 174.089844 182.148438 173.214844 181.679688 C 172.339844 181.210938 171.488281 180.699219 170.660156 180.148438 C 169.832031 179.597656 169.035156 179.003906 168.269531 178.375 C 167.5 177.742188 166.765625 177.078125 166.0625 176.375 C 165.359375 175.671875 164.691406 174.9375 164.0625 174.167969 C 163.429688 173.398438 162.839844 172.601562 162.289062 171.777344 C 161.734375 170.949219 161.226562 170.097656 160.757812 169.222656 C 160.289062 168.34375 159.863281 167.449219 159.484375 166.53125 C 159.101562 165.613281 158.769531 164.675781 158.480469 163.726562 C 158.191406 162.773438 157.949219 161.8125 157.757812 160.835938 C 157.5625 159.863281 157.417969 158.878906 157.320312 157.890625 C 157.222656 156.902344 157.171875 155.910156 157.171875 154.917969 C 157.171875 153.921875 157.222656 152.933594 157.320312 151.941406 C 157.417969 150.953125 157.5625 149.972656 157.757812 148.996094 C 157.949219 148.023438 158.191406 147.058594 158.480469 146.109375 C 158.769531 145.15625 159.101562 144.222656 159.484375 143.304688 C 159.863281 142.386719 160.289062 141.488281 160.757812 140.613281 C 161.226562 139.734375 161.734375 138.882812 162.289062 138.058594 C 162.839844 137.230469 163.429688 136.433594 164.0625 135.667969 C 164.691406 134.898438 165.359375 134.164062 166.0625 133.460938 C 166.765625 132.757812 167.5 132.089844 168.269531 131.460938 C 169.035156 130.828125 169.832031 130.238281 170.660156 129.6875 C 171.488281 129.132812 172.339844 128.625 173.214844 128.15625 C 174.089844 127.6875 174.988281 127.261719 175.90625 126.882812 C 176.824219 126.5 177.757812 126.167969 178.710938 125.878906 C 179.660156 125.589844 180.625 125.347656 181.597656 125.15625 C 182.574219 124.960938 183.554688 124.816406 184.542969 124.71875 C 185.535156 124.621094 186.523438 124.570312 187.519531 124.570312 Z M 187.519531 124.570312 " fill-opacity="1" fill-rule="nonzero"/></svg>