<svg xmlns="http://www.w3.org/2000/svg" xmlns:xlink="http://www.w3.org/1999/xlink" width="500" zoomAndPan="magnify" viewBox="0 0 375 374.999991" height="500" preserveAspectRatio="xMidYMid meet" version="1.0"><defs><clipPath id="bb45dd5246"><path d="M 25 88 L 351 88 L 351 368.988281 L 25 368.988281 Z M 25 88 " clip-rule="nonzero"/></clipPath></defs><path fill="#ffffff" d="M 232.621094 159.578125 C 235.8125 136.050781 266.378906 119.113281 247.078125 98.183594 C 247.078125 98.183594 256.71875 101.59375 256.320312 113.851562 C 256.320312 113.851562 269.667969 98.289062 259.835938 81.429688 C 264.65625 66.597656 265.816406 48.59375 253.507812 36.296875 C 253.507812 36.296875 262.046875 48.753906 258.125 61.082031 C 258.125 61.082031 257.523438 31.886719 220.375 27.074219 C 220.375 27.074219 238.753906 33.589844 244.574219 50.945312 C 244.574219 50.945312 245 44.765625 240.4375 37.730469 C 240.4375 37.730469 254.230469 48.519531 248.8125 69.46875 C 248.8125 69.46875 245.601562 51.332031 230.542969 42.890625 C 215.484375 34.472656 197.714844 31.164062 190.480469 18.917969 C 190.480469 18.917969 192.089844 29.261719 205.539062 35.878906 C 205.539062 35.878906 177.03125 31.164062 170.808594 6.09375 C 170.808594 6.09375 169.707031 25.636719 192.488281 35.074219 C 215.28125 44.5 220.597656 52.214844 221.609375 59.546875 C 221.609375 59.546875 223.71875 52.917969 216.789062 44.613281 C 216.789062 44.613281 229.535156 54.640625 229.839844 71.578125 C 229.839844 71.578125 233.457031 59.046875 226.324219 49.609375 C 226.324219 49.609375 236.960938 57.742188 234.457031 72.175781 C 234.457031 72.175781 246.703125 74.398438 251.625 79.609375 C 251.625 79.609375 232.050781 74.183594 217.492188 78.40625 C 217.492188 78.40625 224.5625 74.996094 232.246094 75.535156 C 232.246094 75.535156 213.375 70.925781 194.300781 89.378906 C 194.300781 89.378906 203.25 73.847656 219 71.945312 C 219 71.945312 224.421875 50.761719 196.910156 40.753906 C 196.910156 40.753906 205.847656 45.964844 210.0625 53.886719 C 210.0625 53.886719 201.324219 42.839844 185.0625 36.816406 C 168.800781 30.800781 167.191406 24.601562 166.285156 21.882812 C 166.285156 21.882812 164.878906 36.328125 186.058594 44.949219 C 186.058594 44.949219 161.871094 42.242188 162.074219 16.964844 C 162.074219 16.964844 151.226562 52.082031 194.597656 58.496094 C 194.597656 58.496094 169.695312 59.699219 161.871094 46.066406 C 161.871094 46.066406 156.746094 63.394531 178.03125 71.628906 C 178.03125 71.628906 150.125 69.835938 148.71875 39.347656 C 148.71875 39.347656 146.210938 47.21875 147.8125 53.621094 C 147.8125 53.621094 137.074219 35.726562 157.753906 19.277344 C 157.753906 19.277344 129.035156 34.136719 141.085938 60.785156 C 141.085938 60.785156 129.839844 48.359375 138.273438 32.722656 C 138.273438 32.722656 132.652344 39.738281 132.652344 46.953125 C 132.652344 46.953125 129.542969 26.890625 154.035156 14.246094 C 154.035156 14.246094 114.28125 18.859375 115.6875 58.78125 C 115.6875 58.78125 117.195312 46.851562 123.316406 40.539062 C 123.316406 40.539062 109.765625 68.320312 145.5 87.792969 C 145.5 87.792969 103.9375 82.96875 114.585938 40.234375 C 114.585938 40.234375 94.890625 81.011719 141.445312 88.832031 C 141.445312 88.832031 135.035156 95.34375 135.238281 104.28125 C 135.238281 104.28125 137.785156 94.359375 146.335938 89.480469 C 148.363281 89.714844 150.480469 89.867188 152.734375 89.980469 C 152.734375 89.980469 136.5625 81.980469 131.050781 66.710938 C 131.050781 66.710938 144.398438 89.199219 170.707031 84.371094 C 170.707031 84.371094 153.832031 82.265625 143.398438 70.222656 C 143.398438 70.222656 169.59375 88.882812 197.410156 75.535156 C 197.410156 75.535156 190.175781 80.859375 186.863281 90.5 C 186.863281 90.5 192.785156 81.980469 198.714844 79.058594 C 198.714844 79.058594 191.183594 86.070312 189.371094 93.992188 C 189.371094 93.992188 210.359375 88.78125 227.324219 98.316406 C 227.324219 98.316406 212.164062 92.890625 199.417969 95.914062 C 199.417969 95.914062 204.003906 101.707031 207.019531 110.09375 L 172.527344 109.832031 C 172.527344 109.832031 153.355469 101.675781 141.914062 110.695312 C 136.867188 114.15625 131.335938 104.414062 125.652344 111.632812 C 123.625 114.207031 121.382812 130.574219 136.492188 131.074219 C 136.492188 131.074219 134.882812 135.867188 132.976562 136.570312 C 132.976562 136.570312 140.710938 135.371094 140.109375 118.332031 C 140.109375 118.332031 142.535156 116.089844 143.023438 119.367188 C 147.503906 150.039062 175.636719 136.855469 173.679688 117.210938 L 208.894531 116.894531 C 210.269531 124.039062 209.859375 132.164062 205.03125 139.929688 C 205.03125 139.929688 211.257812 132.816406 211.460938 126.199219 C 211.460938 126.199219 217.890625 161.410156 185.957031 148.765625 C 185.957031 148.765625 189.675781 152.992188 196.199219 154.996094 C 196.199219 154.996094 185.855469 154.996094 181.945312 145.773438 C 181.945312 145.773438 182.542969 151.472656 185.355469 155.078125 C 188.167969 158.691406 187.261719 166.222656 179.132812 165.804688 C 179.132812 165.804688 190.574219 169.714844 191.378906 179.46875 C 191.378906 179.46875 189.421875 173.65625 183.246094 171.230469 C 183.246094 171.230469 193.386719 178.347656 188.972656 189.074219 C 188.972656 189.074219 190.378906 176.046875 177.023438 170.945312 C 177.023438 170.945312 181.136719 174.355469 183.644531 178.449219 C 183.644531 178.449219 177.226562 169.113281 163.164062 168.929688 C 163.164062 168.929688 174.8125 172.738281 166.386719 188.375 C 166.386719 188.375 172.601562 180.820312 171.449219 174.355469 C 171.449219 174.355469 175.363281 188.140625 160.199219 193.851562 C 160.199219 193.851562 168.484375 184.679688 165.824219 176.808594 C 165.824219 176.808594 165.925781 180.300781 165.019531 182.824219 C 165.019531 182.824219 166.476562 174.386719 160.710938 170.996094 C 160.710938 170.996094 167.882812 184.28125 147.351562 182.980469 C 147.351562 182.980469 156.035156 182.328125 158.742188 177.613281 C 158.742188 177.613281 151.417969 178.449219 147.25 174.691406 C 143.082031 170.945312 134.503906 172.433594 135.105469 179.75 C 135.105469 179.75 133.148438 174.203125 137.714844 171.648438 C 137.714844 171.648438 130.632812 166.570312 134.148438 160.707031 C 137.664062 154.84375 144.644531 156.949219 148.054688 160.257812 C 151.46875 163.566406 161.8125 169.480469 171.796875 162.761719 C 171.796875 162.761719 167.382812 164.167969 162.515625 162.964844 C 162.515625 162.964844 182.238281 163.800781 178.824219 146.261719 C 178.824219 146.261719 177.074219 159.707031 160.109375 156.429688 C 160.109375 156.429688 168.035156 156.402344 171.847656 152.410156 C 171.847656 152.410156 161.964844 155.902344 153.832031 146.394531 C 153.832031 146.394531 154.832031 149.652344 156.789062 151.992188 C 156.789062 151.992188 151.316406 150.039062 150.523438 145.273438 C 150.523438 145.273438 150.316406 137.140625 142.277344 138.660156 C 142.277344 138.660156 147.351562 139.910156 146.152344 143.523438 C 146.152344 143.523438 140.167969 139.410156 136.054688 143.035156 C 136.054688 143.035156 137.359375 140.113281 138.867188 139.777344 C 138.867188 139.777344 136.503906 140.328125 134.230469 142.617188 C 131.855469 140.949219 132.070312 138.292969 132.070312 138.292969 C 129.890625 141.050781 132.691406 144.519531 132.691406 144.519531 C 131.949219 145.660156 131.285156 147.078125 130.835938 148.796875 C 130.835938 148.796875 132.539062 146.628906 133.457031 146.058594 C 133.457031 146.058594 133.863281 154.84375 123.726562 153.042969 C 123.726562 153.042969 125.957031 155.699219 129.890625 155.496094 C 129.890625 155.496094 124.46875 158.019531 121.363281 153.507812 C 121.363281 153.507812 122.238281 161.144531 131.273438 161.5625 C 131.273438 161.5625 133.535156 184.566406 119.578125 191.296875 C 119.578125 191.296875 127.210938 191.246094 130.675781 184.128906 C 130.675781 184.128906 129.09375 196.292969 119.476562 198.511719 C 119.476562 198.511719 123.949219 200.234375 128.808594 197.261719 C 128.808594 197.261719 118.121094 217.925781 146.027344 231.65625 C 146.027344 231.65625 132.261719 216.101562 140.710938 199.582031 C 140.710938 199.582031 132.171875 225.039062 161.496094 232.46875 C 161.496094 232.46875 169.921875 221.230469 161.789062 206.980469 C 161.789062 206.980469 172.835938 218.421875 165.40625 231.371094 C 165.40625 231.371094 192.214844 224.335938 196.625 189.023438 C 196.625 189.023438 196.625 204.476562 192.40625 212.507812 C 192.40625 212.507812 219.894531 196.792969 214.597656 165.15625 C 214.597656 165.15625 218.714844 178.816406 216.207031 188.636719 C 216.207031 188.636719 226.742188 176.910156 220.925781 154.027344 C 215.097656 131.175781 218.113281 116.222656 223.035156 111.917969 C 223.035156 111.917969 218.316406 114.320312 216.410156 119.835938 C 219.222656 98.164062 249.199219 100.710938 241.75 122.390625 C 236.402344 137.976562 231.011719 140.449219 232.621094 159.578125 " fill-opacity="1" fill-rule="evenodd"/><path fill="#ffffff" d="M 235.628906 190.226562 C 235.628906 190.226562 237.246094 201.117188 189.484375 221.597656 C 189.484375 221.597656 183.582031 228.53125 181.964844 236.632812 L 174.660156 236.632812 L 180.851562 233.539062 C 180.851562 233.539062 181.800781 227.460938 185.816406 222.382812 C 186.4375 221.730469 187.058594 221.050781 187.679688 220.328125 C 188.789062 219.277344 190.074219 218.320312 191.542969 217.558594 C 200.464844 212.925781 236.597656 198.328125 233.203125 187.4375 C 233.203125 187.4375 237.472656 175.191406 245.734375 186.835938 L 250.59375 209.667969 L 257.605469 211.226562 C 257.605469 211.226562 248.902344 241.640625 224.867188 263.742188 C 224.867188 263.742188 247.722656 233.824219 250.675781 213.945312 C 250.675781 213.945312 240.652344 229.261719 221.769531 240.910156 C 221.769531 240.910156 239.46875 225.4375 245.214844 214.230469 C 245.214844 214.230469 236.074219 224.703125 227.824219 228.09375 C 227.824219 228.09375 239.613281 217.769531 244.917969 210.105469 C 244.917969 210.105469 234.597656 219.390625 228.402344 222.046875 C 228.402344 222.046875 236.808594 213.78125 239.171875 210.707031 C 239.171875 210.707031 231.980469 217.253906 225.644531 220.507812 C 225.644531 220.507812 235.445312 211.804688 240.386719 205.179688 C 240.386719 205.179688 229.554688 213.292969 221.375 217.539062 C 221.375 217.539062 231.246094 209.066406 235.667969 204.507812 C 235.667969 204.507812 224.683594 212.089844 217.308594 214.980469 C 217.308594 214.980469 236.257812 202.371094 242.453125 191.761719 C 242.453125 191.761719 243.136719 187.152344 239.0625 185.664062 C 234.984375 184.179688 235.628906 190.226562 235.628906 190.226562 Z M 172.082031 242.375 L 184.683594 242.730469 C 184.683594 242.730469 202.75 233.375 213.070312 233.539062 C 213.070312 233.539062 201.863281 232.074219 192.132812 236.480469 C 192.132812 236.480469 203.777344 227.125 211.519531 225.304688 C 211.519531 225.304688 195.75 228.164062 186.601562 236.398438 C 186.601562 236.398438 192.203125 220.582031 215.800781 220.195312 C 215.800781 220.195312 224.5 247.6875 211.519531 264.625 C 211.519531 264.625 196.5625 258.316406 182.625 246.355469 L 173.78125 246.933594 C 173.78125 246.933594 163.449219 260.484375 148.566406 261.082031 C 148.566406 261.082031 143.65625 246.019531 144.53125 233.824219 C 144.601562 233.84375 158 235.566406 164.816406 238.667969 C 164.816406 238.667969 159.761719 238.070312 157.59375 238.332031 C 157.59375 238.332031 168.953125 239.972656 172.082031 242.375 " fill-opacity="1" fill-rule="evenodd"/><g clip-path="url(#bb45dd5246)"><path fill="#ffffff" d="M 187.773438 369.148438 L 25.394531 88.148438 L 107.617188 88.148438 L 107.617188 106.21875 L 56.664062 106.21875 L 122.21875 219.644531 L 187.773438 333.082031 L 253.324219 219.644531 L 318.878906 106.21875 L 278.53125 106.21875 L 278.53125 88.148438 L 350.148438 88.148438 L 187.773438 369.148438 " fill-opacity="1" fill-rule="evenodd"/></g></svg>