<svg xmlns="http://www.w3.org/2000/svg" xmlns:xlink="http://www.w3.org/1999/xlink" width="500" zoomAndPan="magnify" viewBox="0 0 375 374.999991" height="500" preserveAspectRatio="xMidYMid meet" version="1.0"><path fill="#fffefe" d="M 145.980469 125.484375 C 146.730469 125.503906 147.683594 125.609375 148.847656 125.902344 C 159.433594 128.347656 169.816406 131.828125 187.773438 132.105469 C 205.765625 131.789062 215.933594 128.34375 226.535156 125.902344 C 229.671875 125.171875 231.125 125.523438 231.890625 125.980469 C 232.660156 126.4375 233.359375 127.332031 234.027344 129.425781 C 238.859375 143.089844 237.867188 160.78125 250.730469 170.03125 C 251.417969 170.652344 252.289062 171.089844 253.28125 171.214844 C 257.472656 171.695312 259.40625 173.144531 260.5625 175.488281 C 253.804688 181.363281 247.140625 190.863281 244.546875 207.628906 L 226.828125 229.648438 C 222.128906 235.953125 221.007812 242.835938 222.84375 248.199219 C 220.273438 250.398438 217.617188 252.410156 214.917969 254.238281 C 213.476562 255.113281 210.863281 256.53125 209.582031 257.558594 C 190.316406 267.648438 185.078125 267.640625 165.824219 257.558594 C 164.546875 256.539062 161.984375 255.148438 160.546875 254.296875 C 157.835938 252.449219 155.132812 250.417969 152.542969 248.21875 C 154.410156 242.828125 153.242188 235.980469 148.574219 229.648438 L 130.859375 207.628906 C 128.242188 190.863281 121.597656 181.363281 114.839844 175.488281 C 116.003906 173.144531 117.929688 171.695312 122.121094 171.214844 C 123.113281 171.109375 123.988281 170.652344 124.671875 170.03125 C 137.574219 160.789062 136.550781 143.101562 141.355469 129.425781 C 142.042969 127.328125 142.769531 126.433594 143.535156 125.980469 C 144.015625 125.710938 144.742188 125.464844 146.007812 125.484375 Z M 187.695312 79.4375 C 231.683594 79.328125 254.042969 105.175781 252.269531 143.769531 L 250.648438 156.113281 C 246.636719 146.992188 246.246094 137.515625 242.660156 126.625 C 240.53125 118.746094 232.839844 114.734375 224.503906 117.101562 C 213.363281 119.679688 204.546875 122.765625 187.695312 123.078125 C 170.847656 122.769531 162.027344 119.679688 150.882812 117.101562 C 142.578125 114.730469 134.886719 118.773438 132.765625 126.625 C 129.1875 137.515625 128.695312 146.972656 124.753906 156.113281 L 123.113281 143.828125 L 123.113281 143.765625 C 121.367188 105.160156 143.695312 79.339844 187.695312 79.4375 Z M 187.695312 70.390625 C 139.34375 69.808594 111.40625 101.367188 114.113281 144.386719 C 114.113281 144.496094 114.132812 144.613281 114.132812 144.722656 L 116.703125 164.222656 C 113.21875 165.613281 110.3125 167.667969 108.222656 170.164062 C 100.359375 164.589844 80.160156 143.925781 72.429688 136.566406 C 68.957031 133.167969 63.710938 139.289062 67.011719 142.523438 L 89.957031 164.976562 C 107.066406 182.421875 119.710938 181.523438 123.867188 211.914062 L 142.253906 234.71875 C 146.902344 242.039062 146.496094 245.535156 143.6875 248.707031 C 143.539062 248.804688 143.417969 248.933594 143.289062 249.011719 L 143.269531 249.03125 C 143.269531 249.03125 143.269531 249.03125 143.253906 249.03125 C 142.359375 249.671875 141.382812 249.738281 140.324219 249.140625 C 140.367188 249.199219 140.425781 249.261719 140.46875 249.304688 C 140.097656 249.117188 139.703125 248.84375 139.304688 248.476562 L 113.15625 224.527344 C 111.582031 223.054688 108.324219 224.921875 110.859375 227.367188 L 135.429688 251.0625 C 136.960938 252.558594 140.46875 254.113281 143.289062 253.632812 L 159.539062 263.082031 C 165.179688 266.378906 165.949219 270.859375 165.765625 273.953125 C 165.640625 276.109375 164.105469 276.402344 162.425781 275.445312 L 150.617188 268.765625 C 150.617188 268.746094 150.617188 268.746094 150.617188 268.722656 L 141.613281 263.617188 C 141.613281 263.617188 141.613281 263.636719 141.613281 263.660156 L 104.570312 242.6875 C 99.261719 239.679688 95.546875 235.007812 93.925781 229.507812 C 90.773438 218.863281 83.136719 202.410156 81.417969 198.90625 C 77.722656 191.394531 76.042969 188.609375 72.699219 185.769531 L 46.902344 164.558594 C 42.503906 160.925781 37.648438 167.398438 41.441406 170.535156 L 67.445312 192.011719 C 69.808594 193.960938 70.515625 195.203125 74.105469 202.511719 C 75.574219 205.503906 83.359375 222.414062 86.140625 231.8125 C 88.359375 239.324219 93.523438 245.777344 100.558594 249.761719 L 141.542969 272.960938 C 141.410156 278.410156 141.65625 285.316406 141.085938 290.746094 L 87.734375 310.1875 C 82.171875 312.285156 85.191406 320.636719 90.808594 318.675781 C 90.808594 318.675781 138.203125 301.414062 138.203125 301.414062 C 137.390625 303.28125 136.355469 305.226562 135.089844 307.347656 C 132.414062 311.765625 138.058594 314.792969 141.085938 310.710938 C 149.839844 298.890625 150.703125 289.8125 150.550781 278.066406 L 158.4375 282.53125 C 166.238281 287.582031 175.347656 280.21875 173.730469 271.34375 C 184.023438 275.144531 191.386719 275.132812 201.683594 271.34375 C 199.988281 280.242188 209.199219 287.574219 216.96875 282.53125 C 216.96875 282.53125 224.839844 278.066406 224.839844 278.066406 C 224.683594 289.8125 225.554688 298.894531 234.300781 310.710938 C 237.328125 314.792969 242.972656 311.765625 240.296875 307.347656 C 239.011719 305.226562 237.988281 303.28125 237.160156 301.414062 L 284.574219 318.675781 C 290.1875 320.632812 293.210938 312.300781 287.648438 310.1875 C 287.648438 310.1875 234.296875 290.746094 234.296875 290.746094 C 233.714844 285.316406 233.972656 278.410156 233.839844 272.960938 L 274.84375 249.761719 C 281.875 245.777344 287.046875 239.324219 289.265625 231.8125 C 292.042969 222.414062 299.804688 205.503906 301.296875 202.511719 C 304.886719 195.207031 305.570312 193.964844 307.9375 192.011719 L 333.941406 170.535156 C 337.761719 167.398438 332.90625 160.925781 328.507812 164.558594 L 302.691406 185.765625 C 299.371094 188.605469 297.691406 191.390625 293.976562 198.902344 C 292.253906 202.40625 284.621094 218.863281 281.484375 229.503906 C 279.863281 235.003906 276.148438 239.671875 270.820312 242.683594 L 233.761719 263.65625 C 233.761719 263.636719 233.761719 263.636719 233.761719 263.613281 L 224.773438 268.742188 C 224.773438 268.742188 224.773438 268.742188 224.773438 268.761719 L 212.96875 275.441406 C 211.308594 276.398438 209.75 276.109375 209.628906 273.949219 C 209.4375 270.855469 210.230469 266.375 215.871094 263.078125 L 232.097656 253.628906 C 234.917969 254.109375 238.429688 252.550781 239.964844 251.058594 L 264.535156 227.363281 C 267.085938 224.914062 263.832031 223.046875 262.230469 224.523438 L 236.105469 248.46875 C 235.710938 248.839844 235.320312 249.113281 234.941406 249.300781 C 234.984375 249.234375 235.050781 249.191406 235.089844 249.136719 C 234.234375 249.632812 233.429688 249.671875 232.679688 249.363281 C 232.679688 249.34375 232.679688 249.363281 232.679688 249.363281 C 232.664062 249.34375 232.664062 249.34375 232.644531 249.34375 C 232.515625 249.28125 232.371094 249.195312 232.246094 249.117188 C 232.101562 249.007812 231.957031 248.910156 231.832031 248.78125 C 231.394531 248.410156 231.003906 247.933594 230.632812 247.332031 C 229.304688 245.296875 228.847656 240.941406 233.136719 234.738281 L 251.523438 211.914062 C 251.75 211.597656 251.902344 211.226562 251.9375 210.832031 C 255.9375 180.492188 268.8125 182.605469 285.433594 164.996094 C 285.433594 164.996094 308.402344 142.523438 308.402344 142.523438 C 311.699219 139.308594 306.429688 133.167969 302.964844 136.566406 C 295.148438 144.027344 275.128906 164.515625 267.191406 170.179688 C 265.09375 167.695312 262.167969 165.617188 258.703125 164.222656 L 261.253906 144.722656 C 261.273438 144.613281 261.296875 144.496094 261.296875 144.386719 C 263.976562 101.359375 236.078125 69.820312 187.695312 70.390625 Z M 187.695312 70.390625 " fill-opacity="1" fill-rule="nonzero"/><path fill="#fffefe" d="M 174.808594 239.28125 C 174.246094 239.300781 173.851562 239.550781 173.597656 239.945312 C 172.433594 245.21875 181.4375 249.226562 186.410156 248.992188 C 191.375 249.238281 200.40625 245.195312 199.214844 239.945312 C 198.671875 239.050781 197.265625 238.929688 195.210938 240.378906 C 190.441406 243.625 182.386719 243.636719 177.632812 240.378906 C 176.464844 239.570312 175.511719 239.234375 174.808594 239.28125 Z M 174.808594 239.28125 " fill-opacity="1" fill-rule="nonzero"/><path fill="#fffefe" d="M 178.441406 227.058594 C 174.101562 227.148438 171.902344 231.015625 166.46875 229.816406 C 161.910156 228.851562 161.753906 234.792969 165.59375 235.25 C 170.179688 236.316406 173.066406 235.773438 177.421875 234.171875 C 179.121094 233.550781 180.078125 234.378906 181.195312 235.269531 C 182.339844 236.183594 184.0625 237.453125 186.410156 237.453125 C 188.75 237.453125 190.472656 236.183594 191.617188 235.269531 C 192.734375 234.363281 193.691406 233.550781 195.390625 234.171875 C 199.746094 235.769531 202.632812 236.3125 207.222656 235.25 C 211.039062 234.796875 210.921875 228.851562 206.34375 229.816406 C 201.617188 230.832031 199.417969 228.140625 196.054688 227.285156 C 195.433594 227.140625 194.871094 227.058594 194.375 227.058594 C 191.253906 226.863281 188.8125 230.144531 186.410156 230.625 C 183.996094 230.148438 181.5625 226.867188 178.441406 227.058594 Z M 178.441406 227.058594 " fill-opacity="1" fill-rule="nonzero"/><path fill="#fffefe" d="M 195.988281 158.148438 C 186.425781 167.488281 184.019531 183.671875 190.679688 201.722656 C 192.941406 207.90625 191.449219 211.996094 186.488281 211.890625 C 182.359375 211.804688 182.566406 216.703125 186.363281 217.574219 C 197.460938 219.757812 201.621094 207.914062 197.695312 199.066406 C 185.96875 170.957031 206.632812 146.25 231.183594 161.589844 C 235.277344 164.394531 237.703125 159.597656 234.734375 156.757812 C 223.96875 146.097656 205.269531 147.609375 195.988281 158.148438 Z M 195.988281 158.148438 " fill-opacity="1" fill-rule="nonzero"/><path fill="#fffefe" d="M 140.546875 156.488281 C 137.644531 159.226562 140.628906 163.605469 143.386719 161.589844 C 152.933594 154.640625 164.429688 155.40625 172.355469 162.609375 C 173.890625 163.980469 176.257812 163.851562 177.648438 162.339844 C 179.0625 160.804688 178.933594 158.417969 177.394531 157.003906 C 167.117188 147.589844 150.824219 146.371094 140.546875 156.488281 Z M 140.546875 156.488281 " fill-opacity="1" fill-rule="nonzero"/><path fill="#fffefe" d="M 140.398438 180.996094 C 137.851562 178.589844 140.464844 174.730469 142.890625 176.492188 C 151.292969 182.628906 161.40625 181.925781 168.371094 175.617188 C 169.722656 174.390625 171.816406 174.5 173.042969 175.84375 C 174.265625 177.195312 174.183594 179.289062 172.835938 180.535156 C 163.765625 188.785156 149.449219 189.878906 140.421875 180.992188 L 140.398438 180.992188 Z M 140.398438 180.996094 " fill-opacity="1" fill-rule="nonzero"/><path fill="#fffefe" d="M 232.414062 180.996094 C 234.960938 178.589844 232.347656 174.730469 229.921875 176.492188 C 221.519531 182.628906 211.417969 181.945312 204.441406 175.617188 C 203.089844 174.390625 201.019531 174.5 199.769531 175.84375 C 198.546875 177.195312 198.628906 179.289062 199.976562 180.535156 C 209.058594 188.796875 223.351562 189.871094 232.414062 180.996094 Z M 232.414062 180.996094 " fill-opacity="1" fill-rule="nonzero"/></svg>