<svg xmlns="http://www.w3.org/2000/svg" xmlns:xlink="http://www.w3.org/1999/xlink" width="500" zoomAndPan="magnify" viewBox="0 0 375 374.999991" height="500" preserveAspectRatio="xMidYMid meet" version="1.0"><defs><clipPath id="1e1a636ba3"><path d="M 37.5 39.839844 L 335.25 39.839844 L 335.25 337.589844 L 37.5 337.589844 Z M 37.5 39.839844 " clip-rule="nonzero"/></clipPath><clipPath id="58f2ee54b5"><path d="M 37.5 39.839844 L 262 39.839844 L 262 330 L 37.5 330 Z M 37.5 39.839844 " clip-rule="nonzero"/></clipPath></defs><g clip-path="url(#1e1a636ba3)"><path fill="#b3854a" d="M 335.257812 188.71875 C 335.257812 191.15625 335.199219 193.589844 335.078125 196.023438 C 334.960938 198.457031 334.78125 200.886719 334.542969 203.308594 C 334.304688 205.734375 334.003906 208.152344 333.648438 210.5625 C 333.289062 212.972656 332.875 215.371094 332.398438 217.761719 C 331.921875 220.152344 331.390625 222.527344 330.796875 224.890625 C 330.203125 227.253906 329.554688 229.601562 328.847656 231.933594 C 328.140625 234.265625 327.375 236.578125 326.554688 238.871094 C 325.734375 241.167969 324.859375 243.4375 323.925781 245.691406 C 322.992188 247.941406 322.007812 250.167969 320.964844 252.371094 C 319.921875 254.574219 318.828125 256.75 317.679688 258.898438 C 316.53125 261.046875 315.332031 263.164062 314.078125 265.253906 C 312.824219 267.34375 311.523438 269.402344 310.167969 271.429688 C 308.816406 273.453125 307.414062 275.445312 305.960938 277.402344 C 304.511719 279.359375 303.011719 281.28125 301.464844 283.164062 C 299.921875 285.046875 298.328125 286.890625 296.691406 288.695312 C 295.054688 290.5 293.378906 292.265625 291.652344 293.988281 C 289.929688 295.710938 288.167969 297.390625 286.363281 299.027344 C 284.558594 300.664062 282.710938 302.253906 280.828125 303.800781 C 278.945312 305.347656 277.027344 306.84375 275.070312 308.296875 C 273.113281 309.746094 271.121094 311.148438 269.09375 312.503906 C 267.070312 313.855469 265.011719 315.160156 262.921875 316.414062 C 260.832031 317.664062 258.710938 318.867188 256.5625 320.015625 C 254.414062 321.164062 252.238281 322.257812 250.035156 323.300781 C 247.832031 324.339844 245.605469 325.328125 243.355469 326.261719 C 241.105469 327.191406 238.832031 328.070312 236.539062 328.890625 C 234.246094 329.710938 231.929688 330.476562 229.601562 331.183594 C 227.269531 331.890625 224.921875 332.539062 222.558594 333.132812 C 220.195312 333.722656 217.816406 334.257812 215.429688 334.734375 C 213.039062 335.207031 210.636719 335.625 208.226562 335.980469 C 205.816406 336.339844 203.402344 336.636719 200.976562 336.875 C 198.550781 337.113281 196.121094 337.292969 193.6875 337.414062 C 191.253906 337.535156 188.820312 337.59375 186.382812 337.59375 C 183.949219 337.59375 181.511719 337.535156 179.078125 337.414062 C 176.644531 337.292969 174.214844 337.113281 171.792969 336.875 C 169.367188 336.636719 166.949219 336.339844 164.539062 335.980469 C 162.128906 335.625 159.730469 335.207031 157.339844 334.734375 C 154.949219 334.257812 152.574219 333.722656 150.210938 333.132812 C 147.847656 332.539062 145.5 331.890625 143.167969 331.183594 C 140.835938 330.476562 138.523438 329.710938 136.230469 328.890625 C 133.933594 328.070312 131.664062 327.191406 129.410156 326.261719 C 127.160156 325.328125 124.933594 324.339844 122.730469 323.300781 C 120.527344 322.257812 118.351562 321.164062 116.203125 320.015625 C 114.054688 318.867188 111.9375 317.664062 109.847656 316.414062 C 107.757812 315.160156 105.699219 313.855469 103.671875 312.503906 C 101.648438 311.148438 99.65625 309.746094 97.699219 308.296875 C 95.742188 306.84375 93.820312 305.347656 91.9375 303.800781 C 90.054688 302.253906 88.210938 300.664062 86.40625 299.027344 C 84.601562 297.390625 82.835938 295.710938 81.113281 293.988281 C 79.390625 292.265625 77.710938 290.5 76.074219 288.695312 C 74.4375 286.890625 72.847656 285.046875 71.300781 283.164062 C 69.757812 281.28125 68.257812 279.359375 66.804688 277.402344 C 65.355469 275.445312 63.953125 273.453125 62.597656 271.429688 C 61.246094 269.402344 59.941406 267.34375 58.6875 265.253906 C 57.4375 263.164062 56.234375 261.046875 55.085938 258.898438 C 53.9375 256.75 52.84375 254.574219 51.800781 252.371094 C 50.761719 250.167969 49.773438 247.941406 48.839844 245.691406 C 47.910156 243.4375 47.03125 241.167969 46.210938 238.871094 C 45.390625 236.578125 44.625 234.265625 43.917969 231.933594 C 43.210938 229.601562 42.5625 227.253906 41.96875 224.890625 C 41.378906 222.527344 40.84375 220.152344 40.371094 217.761719 C 39.894531 215.371094 39.476562 212.972656 39.121094 210.5625 C 38.761719 208.152344 38.464844 205.734375 38.226562 203.308594 C 37.988281 200.886719 37.808594 198.457031 37.6875 196.023438 C 37.570312 193.589844 37.507812 191.15625 37.507812 188.71875 C 37.507812 186.28125 37.570312 183.847656 37.6875 181.414062 C 37.808594 178.980469 37.988281 176.550781 38.226562 174.125 C 38.464844 171.699219 38.761719 169.285156 39.121094 166.875 C 39.476562 164.464844 39.894531 162.0625 40.371094 159.675781 C 40.84375 157.285156 41.378906 154.90625 41.96875 152.542969 C 42.5625 150.179688 43.210938 147.832031 43.917969 145.503906 C 44.625 143.171875 45.390625 140.859375 46.210938 138.5625 C 47.03125 136.269531 47.910156 133.996094 48.839844 131.746094 C 49.773438 129.496094 50.761719 127.269531 51.800781 125.066406 C 52.84375 122.863281 53.9375 120.6875 55.085938 118.539062 C 56.234375 116.390625 57.4375 114.269531 58.6875 112.179688 C 59.941406 110.089844 61.246094 108.035156 62.597656 106.007812 C 63.953125 103.980469 65.355469 101.992188 66.804688 100.035156 C 68.257812 98.078125 69.757812 96.15625 71.300781 94.273438 C 72.847656 92.390625 74.4375 90.546875 76.074219 88.738281 C 77.710938 86.933594 79.390625 85.171875 81.113281 83.449219 C 82.835938 81.726562 84.601562 80.046875 86.40625 78.410156 C 88.210938 76.773438 90.054688 75.183594 91.9375 73.636719 C 93.820312 72.089844 95.742188 70.59375 97.699219 69.140625 C 99.65625 67.6875 101.648438 66.285156 103.671875 64.933594 C 105.699219 63.578125 107.757812 62.277344 109.847656 61.023438 C 111.9375 59.769531 114.054688 58.570312 116.203125 57.421875 C 118.351562 56.273438 120.527344 55.179688 122.730469 54.136719 C 124.933594 53.09375 127.160156 52.109375 129.410156 51.175781 C 131.664062 50.242188 133.933594 49.367188 136.230469 48.546875 C 138.523438 47.726562 140.835938 46.960938 143.167969 46.253906 C 145.5 45.546875 147.847656 44.898438 150.210938 44.304688 C 152.574219 43.710938 154.949219 43.179688 157.339844 42.703125 C 159.730469 42.226562 162.128906 41.8125 164.539062 41.453125 C 166.949219 41.097656 169.367188 40.800781 171.792969 40.558594 C 174.214844 40.320312 176.644531 40.140625 179.078125 40.023438 C 181.511719 39.902344 183.949219 39.84375 186.382812 39.84375 C 188.820312 39.84375 191.253906 39.902344 193.6875 40.023438 C 196.121094 40.140625 198.550781 40.320312 200.976562 40.558594 C 203.402344 40.800781 205.816406 41.097656 208.226562 41.453125 C 210.636719 41.8125 213.039062 42.226562 215.429688 42.703125 C 217.816406 43.179688 220.195312 43.710938 222.558594 44.304688 C 224.921875 44.898438 227.269531 45.546875 229.601562 46.253906 C 231.929688 46.960938 234.246094 47.726562 236.539062 48.546875 C 238.832031 49.367188 241.105469 50.242188 243.355469 51.175781 C 245.605469 52.109375 247.832031 53.09375 250.035156 54.136719 C 252.238281 55.179688 254.414062 56.273438 256.5625 57.421875 C 258.710938 58.570312 260.832031 59.769531 262.921875 61.023438 C 265.011719 62.277344 267.070312 63.578125 269.09375 64.933594 C 271.121094 66.285156 273.113281 67.6875 275.070312 69.140625 C 277.027344 70.59375 278.945312 72.089844 280.828125 73.636719 C 282.710938 75.183594 284.558594 76.773438 286.363281 78.410156 C 288.167969 80.046875 289.929688 81.726562 291.652344 83.449219 C 293.378906 85.171875 295.054688 86.933594 296.691406 88.738281 C 298.328125 90.546875 299.921875 92.390625 301.464844 94.273438 C 303.011719 96.15625 304.511719 98.078125 305.960938 100.035156 C 307.414062 101.992188 308.816406 103.980469 310.167969 106.007812 C 311.523438 108.035156 312.824219 110.089844 314.078125 112.179688 C 315.332031 114.269531 316.53125 116.390625 317.679688 118.539062 C 318.828125 120.6875 319.921875 122.863281 320.964844 125.066406 C 322.007812 127.269531 322.992188 129.496094 323.925781 131.746094 C 324.859375 133.996094 325.734375 136.269531 326.554688 138.5625 C 327.375 140.859375 328.140625 143.171875 328.847656 145.503906 C 329.554688 147.832031 330.203125 150.179688 330.796875 152.542969 C 331.390625 154.90625 331.921875 157.285156 332.398438 159.675781 C 332.875 162.0625 333.289062 164.464844 333.648438 166.875 C 334.003906 169.285156 334.304688 171.699219 334.542969 174.125 C 334.78125 176.550781 334.960938 178.980469 335.078125 181.414062 C 335.199219 183.847656 335.257812 186.28125 335.257812 188.71875 Z M 335.257812 188.71875 " fill-opacity="1" fill-rule="nonzero"/></g><g clip-path="url(#58f2ee54b5)"><path fill="#b3854a" d="M 63.511719 200.824219 C 63.511719 255.496094 92.980469 303.285156 136.898438 329.171875 C 79 308.773438 37.507812 253.589844 37.507812 188.71875 C 37.507812 106.496094 104.160156 39.84375 186.382812 39.84375 C 213.933594 39.84375 239.738281 47.328125 261.871094 60.375 C 246.390625 54.917969 229.734375 51.949219 212.386719 51.949219 C 130.164062 51.949219 63.511719 118.605469 63.511719 200.824219 Z M 63.511719 200.824219 " fill-opacity="1" fill-rule="nonzero"/></g><path fill="#f9f9f9" d="M 270.175781 238.015625 C 274.71875 241.742188 275.257812 248.511719 271.308594 252.859375 C 271.285156 252.886719 271.261719 252.910156 271.238281 252.9375 C 269.816406 254.503906 268.359375 256.039062 266.867188 257.546875 C 251.804688 272.773438 229.867188 279.007812 209.011719 274.105469 C 198.9375 271.734375 189.265625 268.335938 180.109375 264.015625 C 171.882812 260.132812 164.082031 255.519531 156.777344 250.246094 C 143.363281 240.578125 131.648438 228.710938 122.164062 215.160156 C 119.90625 211.949219 117.78125 208.640625 115.78125 205.242188 C 109.527344 194.597656 104.566406 183.09375 101.128906 170.953125 C 94.449219 147.363281 102.492188 122.035156 121.554688 106.617188 C 121.652344 106.539062 121.753906 106.457031 121.851562 106.378906 C 122.933594 105.507812 124.03125 104.648438 125.140625 103.808594 C 129.738281 100.3125 136.316406 101.246094 139.738281 105.898438 C 146.613281 115.25 152.410156 125.441406 156.945312 136.292969 C 158.648438 140.363281 157.589844 145.058594 154.339844 148.042969 C 149.234375 152.722656 144.457031 157.757812 140.050781 163.113281 C 137.398438 166.339844 136.949219 170.839844 138.902344 174.53125 C 144.878906 185.816406 152.28125 196.226562 160.871094 205.53125 C 162.878906 207.714844 164.957031 209.832031 167.097656 211.882812 C 178.011719 222.375 190.535156 231.195312 204.265625 237.941406 C 208.390625 239.964844 213.355469 239.046875 216.5 235.691406 C 220.46875 231.460938 224.1875 226.996094 227.636719 222.316406 C 230.589844 218.304688 235.964844 216.929688 240.457031 219.082031 C 251.140625 224.207031 261.109375 230.582031 270.175781 238.019531 Z M 270.175781 238.015625 " fill-opacity="1" fill-rule="nonzero"/></svg>