<svg xmlns="http://www.w3.org/2000/svg" xmlns:xlink="http://www.w3.org/1999/xlink" width="500" zoomAndPan="magnify" viewBox="0 0 375 374.999991" height="500" preserveAspectRatio="xMidYMid meet" version="1.0"><defs><clipPath id="c5fb4b60e0"><path d="M 114 42 L 239 42 L 239 310 L 114 310 Z M 114 42 " clip-rule="nonzero"/></clipPath><clipPath id="ee19533a33"><path d="M 238.449219 37.195312 L 264.601562 324.757812 L 120.445312 337.867188 L 94.292969 50.304688 Z M 238.449219 37.195312 " clip-rule="nonzero"/></clipPath><clipPath id="ad7feca9f0"><path d="M 238.449219 37.195312 L 264.601562 324.757812 L 120.445312 337.867188 L 94.292969 50.304688 Z M 238.449219 37.195312 " clip-rule="nonzero"/></clipPath><clipPath id="2c3fa60548"><path d="M 127 260 L 149 260 L 149 283 L 127 283 Z M 127 260 " clip-rule="nonzero"/></clipPath><clipPath id="70a912e6c0"><path d="M 238.449219 37.195312 L 264.601562 324.757812 L 120.445312 337.867188 L 94.292969 50.304688 Z M 238.449219 37.195312 " clip-rule="nonzero"/></clipPath><clipPath id="65710a2015"><path d="M 238.449219 37.195312 L 264.601562 324.757812 L 120.445312 337.867188 L 94.292969 50.304688 Z M 238.449219 37.195312 " clip-rule="nonzero"/></clipPath><clipPath id="4c95454168"><path d="M 213 69 L 225 69 L 225 81 L 213 81 Z M 213 69 " clip-rule="nonzero"/></clipPath><clipPath id="b49b65e35f"><path d="M 238.449219 37.195312 L 264.601562 324.757812 L 120.445312 337.867188 L 94.292969 50.304688 Z M 238.449219 37.195312 " clip-rule="nonzero"/></clipPath><clipPath id="ead84a5eab"><path d="M 238.449219 37.195312 L 264.601562 324.757812 L 120.445312 337.867188 L 94.292969 50.304688 Z M 238.449219 37.195312 " clip-rule="nonzero"/></clipPath></defs><g clip-path="url(#c5fb4b60e0)"><g clip-path="url(#ee19533a33)"><g clip-path="url(#ad7feca9f0)"><path fill="#fffefe" d="M 160.765625 301.96875 C 162.183594 299.144531 161.085938 297.789062 161.871094 283.019531 C 161.464844 188.34375 191.492188 132.796875 209.621094 107.496094 C 213.648438 140.921875 224.90625 139.929688 191.074219 145.074219 L 196.617188 309.007812 C 244.578125 302.1875 234.820312 327.480469 237.972656 135.613281 C 230.695312 124.582031 225.0625 106.324219 225.828125 88.554688 C 235.128906 80.238281 241.710938 78.355469 236.507812 68.484375 C 236.191406 68.117188 235.859375 67.792969 235.519531 67.484375 C 234.628906 64.976562 232.726562 63 230.519531 61.675781 C 231.785156 56.945312 232.875 53.882812 233.574219 51.929688 C 238.484375 38.183594 208.136719 39.964844 207.511719 58.34375 C 207.4375 60.636719 207.414062 63.839844 207.457031 67.609375 C 164.75 102.433594 111.636719 235.164062 114.988281 273.351562 C 114.894531 274.742188 114.910156 275.957031 115.046875 276.976562 C 116.996094 291.515625 154.261719 314.917969 160.765625 301.96875 Z M 228.046875 49.410156 C 227.222656 51.710938 226.066406 54.914062 224.714844 59.960938 C 220.765625 59.792969 216.894531 61.355469 213.488281 63.355469 C 213.507812 53.898438 215.769531 47.988281 228.046875 49.410156 Z M 157.574219 286.332031 C 153.488281 195.929688 182.425781 134.632812 202.769531 111.953125 C 181.757812 137.886719 157.605469 196.042969 157.574219 286.332031 Z M 231.890625 137.351562 C 228.898438 322.644531 237.945312 297.015625 202.4375 302.066406 L 197.355469 151.746094 C 214.394531 151.339844 217.886719 155.1875 217.886719 155.1875 C 222.511719 154.789062 221.90625 286.453125 221.832031 294.238281 C 229.601562 140.824219 225.300781 149.566406 212.371094 146.566406 C 227.121094 141.34375 217.960938 132.378906 215.007812 100.371094 C 214.890625 99.121094 214.785156 97.835938 214.6875 96.511719 C 217.222656 93.597656 218.613281 92.1875 219.675781 91.15625 C 219.660156 92.371094 219.675781 93.566406 219.710938 94.753906 C 220.359375 117.066406 229.550781 133.515625 231.890625 137.351562 Z M 127.316406 231.796875 C 146.398438 164.632812 202.289062 59.546875 225.203125 65.78125 C 226.597656 66.164062 227.871094 66.953125 229.007812 68.191406 C 233.621094 77.425781 224.699219 75.25 208.480469 94.453125 C 196.921875 108.136719 186.441406 125.1875 177.953125 144.1875 C 146.378906 214.875 152.6875 286.597656 151.417969 296.027344 C 144.863281 294.761719 122.402344 284.199219 121.109375 273.726562 C 119.90625 264.011719 122.382812 249.175781 127.316406 231.796875 Z M 127.316406 231.796875 " fill-opacity="1" fill-rule="nonzero"/></g></g></g><g clip-path="url(#2c3fa60548)"><g clip-path="url(#70a912e6c0)"><g clip-path="url(#65710a2015)"><path fill="#fffefe" d="M 133.113281 280.828125 C 145.878906 287.238281 155.570312 267.90625 142.804688 261.496094 C 130.039062 255.085938 120.347656 274.417969 133.113281 280.828125 Z M 135.824219 275.414062 C 130.207031 272.59375 134.472656 264.085938 140.089844 266.90625 C 145.707031 269.726562 141.441406 278.234375 135.824219 275.414062 Z M 135.824219 275.414062 " fill-opacity="1" fill-rule="nonzero"/></g></g></g><g clip-path="url(#4c95454168)"><g clip-path="url(#b49b65e35f)"><g clip-path="url(#ead84a5eab)"><path fill="#fffefe" d="M 218 69.5625 C 216.59375 69.714844 215.214844 70.601562 214.160156 72.558594 C 214.113281 72.644531 214.066406 72.726562 214.023438 72.816406 C 211.898438 77.054688 215.871094 81.902344 220.496094 80.492188 C 228.523438 78.042969 223.078125 69.011719 218 69.5625 Z M 218 69.5625 " fill-opacity="1" fill-rule="nonzero"/></g></g></g></svg>