<svg xmlns="http://www.w3.org/2000/svg" xmlns:xlink="http://www.w3.org/1999/xlink" width="500" zoomAndPan="magnify" viewBox="0 0 375 374.999991" height="500" preserveAspectRatio="xMidYMid meet" version="1.0"><defs><clipPath id="342ae4bdd1"><path d="M 49 73 L 319 73 L 319 308 L 49 308 Z M 49 73 " clip-rule="nonzero"/></clipPath><clipPath id="19800dace9"><path d="M 30.003906 83.382812 L 302.164062 37.496094 L 345.054688 291.90625 L 72.898438 337.792969 Z M 30.003906 83.382812 " clip-rule="nonzero"/></clipPath><clipPath id="8ea2f91ea7"><path d="M 30.003906 83.382812 L 302.164062 37.496094 L 345.054688 291.90625 L 72.898438 337.792969 Z M 30.003906 83.382812 " clip-rule="nonzero"/></clipPath><clipPath id="40357372f0"><path d="M 290 138 L 312 138 L 312 180 L 290 180 Z M 290 138 " clip-rule="nonzero"/></clipPath><clipPath id="e60cc4c71b"><path d="M 30.003906 83.382812 L 302.164062 37.496094 L 345.054688 291.90625 L 72.898438 337.792969 Z M 30.003906 83.382812 " clip-rule="nonzero"/></clipPath><clipPath id="08a06ab739"><path d="M 30.003906 83.382812 L 302.164062 37.496094 L 345.054688 291.90625 L 72.898438 337.792969 Z M 30.003906 83.382812 " clip-rule="nonzero"/></clipPath><clipPath id="c239fcebef"><path d="M 213 182 L 277 182 L 277 222 L 213 222 Z M 213 182 " clip-rule="nonzero"/></clipPath><clipPath id="1ed932da8d"><path d="M 30.003906 83.382812 L 302.164062 37.496094 L 345.054688 291.90625 L 72.898438 337.792969 Z M 30.003906 83.382812 " clip-rule="nonzero"/></clipPath><clipPath id="a8189a2b48"><path d="M 30.003906 83.382812 L 302.164062 37.496094 L 345.054688 291.90625 L 72.898438 337.792969 Z M 30.003906 83.382812 " clip-rule="nonzero"/></clipPath><clipPath id="b47c86230b"><path d="M 178 220 L 193 220 L 193 234 L 178 234 Z M 178 220 " clip-rule="nonzero"/></clipPath><clipPath id="2c2429c5cb"><path d="M 30.003906 83.382812 L 302.164062 37.496094 L 345.054688 291.90625 L 72.898438 337.792969 Z M 30.003906 83.382812 " clip-rule="nonzero"/></clipPath><clipPath id="b27e3c3950"><path d="M 30.003906 83.382812 L 302.164062 37.496094 L 345.054688 291.90625 L 72.898438 337.792969 Z M 30.003906 83.382812 " clip-rule="nonzero"/></clipPath><clipPath id="3c226c43a4"><path d="M 146 233 L 192 233 L 192 271 L 146 271 Z M 146 233 " clip-rule="nonzero"/></clipPath><clipPath id="011130b43b"><path d="M 30.003906 83.382812 L 302.164062 37.496094 L 345.054688 291.90625 L 72.898438 337.792969 Z M 30.003906 83.382812 " clip-rule="nonzero"/></clipPath><clipPath id="31f8e22af2"><path d="M 30.003906 83.382812 L 302.164062 37.496094 L 345.054688 291.90625 L 72.898438 337.792969 Z M 30.003906 83.382812 " clip-rule="nonzero"/></clipPath><clipPath id="06a006e997"><path d="M 102 113 L 137 113 L 137 149 L 102 149 Z M 102 113 " clip-rule="nonzero"/></clipPath><clipPath id="a38cbbfe18"><path d="M 30.003906 83.382812 L 302.164062 37.496094 L 345.054688 291.90625 L 72.898438 337.792969 Z M 30.003906 83.382812 " clip-rule="nonzero"/></clipPath><clipPath id="b0a3ee7e36"><path d="M 30.003906 83.382812 L 302.164062 37.496094 L 345.054688 291.90625 L 72.898438 337.792969 Z M 30.003906 83.382812 " clip-rule="nonzero"/></clipPath><clipPath id="af16dfaf11"><path d="M 96 85 L 116 85 L 116 111 L 96 111 Z M 96 85 " clip-rule="nonzero"/></clipPath><clipPath id="9657f63aa3"><path d="M 30.003906 83.382812 L 302.164062 37.496094 L 345.054688 291.90625 L 72.898438 337.792969 Z M 30.003906 83.382812 " clip-rule="nonzero"/></clipPath><clipPath id="5851b34a56"><path d="M 30.003906 83.382812 L 302.164062 37.496094 L 345.054688 291.90625 L 72.898438 337.792969 Z M 30.003906 83.382812 " clip-rule="nonzero"/></clipPath><clipPath id="6b58edb683"><path d="M 85 273 L 143 273 L 143 300 L 85 300 Z M 85 273 " clip-rule="nonzero"/></clipPath><clipPath id="1948265cca"><path d="M 30.003906 83.382812 L 302.164062 37.496094 L 345.054688 291.90625 L 72.898438 337.792969 Z M 30.003906 83.382812 " clip-rule="nonzero"/></clipPath><clipPath id="b225607a19"><path d="M 30.003906 83.382812 L 302.164062 37.496094 L 345.054688 291.90625 L 72.898438 337.792969 Z M 30.003906 83.382812 " clip-rule="nonzero"/></clipPath><clipPath id="96b09408a9"><path d="M 58 171 L 97 171 L 97 208 L 58 208 Z M 58 171 " clip-rule="nonzero"/></clipPath><clipPath id="5c9da1d52d"><path d="M 30.003906 83.382812 L 302.164062 37.496094 L 345.054688 291.90625 L 72.898438 337.792969 Z M 30.003906 83.382812 " clip-rule="nonzero"/></clipPath><clipPath id="931bf7e885"><path d="M 30.003906 83.382812 L 302.164062 37.496094 L 345.054688 291.90625 L 72.898438 337.792969 Z M 30.003906 83.382812 " clip-rule="nonzero"/></clipPath></defs><g clip-path="url(#342ae4bdd1)"><g clip-path="url(#19800dace9)"><g clip-path="url(#8ea2f91ea7)"><path fill="#fffefe" d="M 96.242188 202.652344 C 102.183594 193.960938 100.214844 183.742188 93.660156 176.011719 C 85.011719 167.164062 68.972656 159.957031 58.742188 170.976562 C 49.40625 181.039062 52.6875 197.304688 63.871094 204.65625 C 73.179688 210.792969 88.863281 213.441406 96.242188 202.652344 Z M 154.816406 225.117188 C 154.597656 225.027344 154.375 224.914062 154.15625 224.828125 C 141.90625 233.402344 130.3125 242.476562 117.46875 250.253906 C 103.890625 258.476562 90.257812 266.582031 78.148438 276.917969 C 78.09375 277.066406 78.039062 277.226562 77.949219 277.367188 C 77.566406 278.0625 77.453125 278.738281 77.503906 279.414062 C 80.789062 275.21875 85.699219 272.933594 90.210938 270.183594 C 98.273438 265.292969 106.417969 260.519531 114.488281 255.640625 C 123.164062 250.367188 130.789062 243.933594 138.972656 237.988281 C 144.519531 233.945312 149.0625 228.8125 154.816406 225.117188 Z M 162.835938 207.34375 C 162.492188 206.667969 162.171875 205.972656 161.832031 205.277344 C 147.296875 201.226562 132.0625 198.886719 118.800781 191.363281 C 115.261719 189.347656 111.730469 187.777344 107.976562 186.234375 C 106.890625 185.789062 105.167969 185.253906 104.378906 184.3125 C 101.015625 180.25 101.414062 174.707031 97.863281 170.589844 C 89.351562 160.675781 72.65625 157.703125 62.476562 164.285156 C 74.316406 158.824219 87.292969 164.503906 96.4375 173.859375 C 96.542969 173.972656 96.660156 174.230469 96.722656 174.351562 C 98.21875 176.167969 99.480469 178.023438 100.507812 180.125 C 101.542969 182.222656 102.347656 184.566406 102.902344 187.382812 C 114.777344 189.75 125.726562 196.863281 137.675781 200.398438 C 143.828125 202.230469 149.929688 203.804688 156.164062 205.371094 C 157.617188 205.746094 160.09375 206.601562 162.835938 207.34375 Z M 172.101562 195.644531 C 173.828125 195.875 175.5625 196.125 177.289062 196.261719 C 173.726562 191.390625 169.308594 187.269531 165.132812 182.875 C 160.5 178.011719 156.648438 172.640625 152.648438 167.265625 C 148.699219 162 144.433594 157.054688 140.378906 151.894531 C 139.320312 150.554688 138.960938 148.992188 138.992188 147.398438 C 138.632812 147.734375 138.261719 148.0625 137.898438 148.378906 C 136.347656 149.753906 134.640625 150.722656 133.144531 151.234375 C 132.414062 151.515625 131.714844 151.679688 131.09375 151.800781 C 130.472656 151.949219 129.964844 151.992188 129.539062 151.992188 C 128.683594 152.019531 128.195312 151.96875 128.167969 151.796875 C 128.042969 151.425781 129.984375 150.949219 132.445312 149.664062 C 133.710938 149.015625 135.058594 148.058594 136.402344 146.722656 C 137.082031 146.058594 137.777344 145.347656 138.503906 144.550781 L 139.039062 143.953125 L 139.46875 143.390625 C 139.714844 143.066406 139.96875 142.714844 140.230469 142.375 C 145.089844 129.265625 143.699219 116.039062 128.257812 111.621094 C 121.410156 109.65625 112.921875 108.34375 107.285156 103.628906 C 102.019531 99.242188 100.761719 93.140625 103.613281 86.855469 C 104.390625 85.152344 105.328125 83.457031 105.953125 81.691406 C 107.410156 79.074219 105.800781 77.578125 101.109375 77.207031 C 99.121094 78.242188 97.386719 79.644531 95.96875 81.375 C 91.484375 86.988281 89.246094 93.21875 90.585938 100.488281 C 91.667969 106.332031 94.832031 110.691406 97.171875 115.722656 C 97.132812 115.324219 97.085938 114.941406 96.964844 114.605469 C 96.832031 114.085938 96.703125 113.582031 96.585938 113.078125 C 96.417969 112.566406 96.214844 112.050781 96.050781 111.542969 C 95.726562 110.515625 95.269531 109.542969 94.90625 108.601562 C 94.132812 106.734375 93.453125 104.96875 92.953125 103.480469 C 91.984375 100.421875 92.046875 98.375 92.320312 98.355469 C 92.707031 98.292969 93.226562 100.113281 94.546875 102.847656 C 95.234375 104.230469 96.050781 105.871094 96.953125 107.699219 C 97.390625 108.644531 97.871094 109.613281 98.277344 110.714844 C 98.46875 111.261719 98.691406 111.792969 98.878906 112.371094 C 99.035156 112.984375 99.203125 113.613281 99.351562 114.246094 C 99.550781 114.898438 99.554688 115.445312 99.628906 116.039062 L 99.710938 116.886719 L 99.753906 117.3125 C 99.777344 117.609375 99.75 117.644531 99.753906 117.835938 C 99.769531 119.023438 99.621094 120.160156 99.460938 121.207031 C 99.363281 121.835938 99.242188 122.425781 99.125 122.988281 C 99.035156 126.945312 97.335938 130.953125 98.15625 134.863281 C 101.070312 148.792969 116.046875 155.082031 129.058594 153.714844 C 129.929688 153.613281 130.554688 154.074219 130.882812 154.695312 C 131.136719 154.839844 131.394531 155.042969 131.570312 155.34375 C 140.304688 169.242188 151.605469 181.285156 160.0625 195.355469 C 160.070312 195.355469 160.085938 195.34375 160.085938 195.34375 C 161.433594 195.070312 162.773438 194.960938 164.125 194.9375 C 163.613281 194.597656 163.117188 194.226562 162.6875 193.777344 C 161.410156 192.527344 160.484375 191.066406 159.464844 189.648438 C 158.421875 188.253906 157.332031 186.800781 156.230469 185.308594 C 154.027344 182.335938 151.953125 179.460938 150.082031 176.835938 C 148.175781 174.246094 146.457031 171.898438 145.058594 169.90625 C 142.246094 165.902344 140.632812 163.335938 140.90625 163.128906 C 141.167969 162.925781 143.25 165.121094 146.414062 168.84375 C 147.988281 170.714844 149.847656 172.953125 151.859375 175.472656 C 153.824219 178.035156 155.980469 180.886719 158.191406 183.886719 C 159.296875 185.386719 160.378906 186.867188 161.417969 188.296875 C 162.40625 189.746094 163.292969 191.167969 164.289062 192.226562 C 166.148438 194.363281 169.058594 194.804688 171.398438 195.460938 C 171.644531 195.515625 171.851562 195.585938 172.101562 195.644531 Z M 185.636719 209.539062 C 183.34375 206.71875 181.292969 203.753906 180.019531 200.300781 C 179.910156 200.1875 179.820312 200.070312 179.734375 199.921875 C 174.109375 199.984375 168.519531 198.128906 162.917969 198.574219 C 163.378906 199.882812 163.90625 201.164062 164.464844 202.433594 C 164.835938 202.726562 165.011719 203.152344 165.015625 203.585938 C 165.675781 205.027344 166.386719 206.453125 167.121094 207.875 C 167.195312 208.039062 167.25 208.207031 167.273438 208.363281 C 171.152344 209.007812 174.824219 208.894531 176.449219 206.480469 C 176.742188 206.023438 177.132812 205.796875 177.527344 205.730469 C 178.054688 205.4375 178.726562 205.367188 179.375 205.738281 C 181.519531 206.9375 183.582031 208.226562 185.636719 209.539062 Z M 195.496094 244.769531 C 195.410156 244.671875 195.324219 244.585938 195.21875 244.488281 C 194.882812 244.183594 194.6875 243.808594 194.625 243.425781 C 182.679688 237.875 170.710938 232.371094 158.730469 226.90625 C 158.644531 226.992188 158.542969 227.054688 158.421875 227.136719 C 151.3125 231 145.691406 237.378906 139.203125 242.1875 C 133.007812 246.800781 127.222656 252.027344 120.613281 256.089844 C 113.015625 260.738281 105.308594 265.199219 97.6875 269.820312 C 91.730469 273.425781 83.46875 276.703125 79.5625 282.679688 C 85.054688 290.890625 94.683594 308.449219 105.628906 302.464844 C 115.691406 296.96875 125.4375 290.226562 135.109375 284.03125 C 155.300781 271.117188 175.984375 258.65625 195.496094 244.769531 Z M 194.695312 214.609375 C 194.652344 214.546875 194.601562 214.472656 194.566406 214.410156 C 191.925781 210.53125 189.804688 206.316406 187.113281 202.496094 C 186.566406 202.839844 186.046875 203.175781 185.519531 203.511719 C 188.039062 207.527344 191.636719 210.988281 194.695312 214.609375 Z M 203.523438 218.625 C 204.28125 216.546875 201.589844 213.359375 200.59375 211.820312 C 197.890625 207.570312 195.34375 203.242188 192.5625 199.011719 C 191.546875 199.664062 190.523438 200.316406 189.511719 200.957031 C 193.050781 206.0625 195.585938 211.875 199.789062 216.511719 C 200.15625 216.902344 202.976562 220.148438 203.523438 218.625 Z M 210.539062 212.417969 C 213.578125 215.226562 214.894531 214.453125 214.476562 210.09375 C 210.085938 204.566406 207.320312 197.839844 202.375 192.769531 C 201.269531 193.46875 200.183594 194.175781 199.085938 194.867188 C 201.511719 198.953125 204.917969 202.363281 207.464844 206.382812 C 208.296875 207.679688 208.902344 208.742188 209.5 210.140625 C 209.820312 210.921875 210.167969 211.679688 210.539062 212.417969 Z M 220.695312 205.527344 C 224.996094 204.929688 226.285156 203.53125 224.582031 201.367188 C 224.09375 200.578125 223.613281 199.78125 223.132812 198.992188 C 222.320312 197.539062 221.601562 196.054688 220.851562 194.597656 C 219.109375 191.171875 217.3125 187.773438 215.46875 184.398438 C 213.640625 185.566406 211.824219 186.734375 210 187.902344 C 211.878906 190.996094 214.0625 193.949219 215.71875 197.160156 C 217.164062 199.933594 218.464844 203.332031 220.695312 205.527344 Z M 234.304688 198.449219 C 237.300781 201.523438 239.800781 197.476562 238.039062 194.453125 C 237.085938 192.792969 235.996094 191.210938 235.082031 189.527344 C 232.6875 185.152344 230.179688 180.871094 227.527344 176.65625 C 225.890625 177.722656 224.246094 178.769531 222.609375 179.828125 C 226.5625 185.660156 229.410156 193.40625 234.304688 198.449219 Z M 225.839844 274.871094 C 229.578125 278.195312 257.007812 302.011719 264.242188 299.476562 C 259.4375 292.488281 253.757812 286.308594 248.660156 279.550781 C 244.027344 273.421875 239.582031 267.191406 234.007812 261.871094 C 233.9375 261.8125 233.898438 261.738281 233.84375 261.675781 C 225.632812 257.851562 217.402344 254.007812 209.171875 250.183594 C 211.136719 254.832031 213.953125 258.753906 216.910156 262.046875 C 220.539062 266.140625 224.3125 269.421875 227.761719 272.3125 C 234.707031 278.011719 240.464844 282.121094 244.621094 285.621094 C 246.6875 287.367188 248.351562 288.96875 249.722656 290.257812 C 251.097656 291.570312 252.273438 292.492188 253.140625 293.277344 C 255.058594 294.597656 255.851562 295.261719 255.785156 295.386719 C 255.71875 295.53125 254.78125 295.121094 252.660156 293.953125 C 251.683594 293.273438 250.394531 292.398438 248.933594 291.152344 C 247.460938 289.9375 245.773438 288.453125 243.660156 286.804688 C 239.429688 283.511719 233.609375 279.539062 226.492188 273.847656 C 222.976562 270.96875 219.109375 267.660156 215.332031 263.449219 C 211.84375 259.605469 208.445312 254.816406 206.363281 248.871094 C 204.785156 248.132812 203.222656 247.402344 201.648438 246.683594 C 203.933594 250.042969 205.78125 253.691406 208.457031 256.882812 C 213.800781 263.261719 219.621094 269.332031 225.839844 274.871094 Z M 246.828125 192.136719 C 249.222656 190.066406 249.609375 188.207031 247.980469 186.554688 C 247.089844 185.316406 246.347656 184.074219 245.546875 182.78125 C 242.933594 178.488281 239.953125 174.550781 236.59375 170.828125 C 235.699219 171.40625 234.792969 171.976562 233.890625 172.574219 C 238.441406 178.109375 240.785156 184.738281 245.152344 190.296875 C 245.648438 190.96875 246.203125 191.585938 246.828125 192.136719 Z M 257.238281 185.632812 C 260.777344 183.695312 261.316406 181.640625 258.824219 179.476562 C 258.1875 178.695312 257.53125 177.917969 256.878906 177.140625 C 256.082031 176.15625 255.390625 175.144531 254.71875 174.070312 C 252.488281 170.511719 250.398438 166.859375 248.230469 163.253906 C 246.714844 164.257812 245.179688 165.242188 243.644531 166.25 C 245.644531 169.480469 248.402344 172.113281 250.34375 175.375 C 252.316406 178.640625 253.976562 183.445312 257.238281 185.632812 Z M 282.308594 280.101562 C 283.496094 280.566406 284.28125 280.390625 284.664062 279.597656 C 281.460938 273.914062 275.738281 269.433594 269.734375 265.535156 C 263.261719 261.511719 254.765625 257.101562 245.355469 252.6875 C 239.632812 249.992188 234.191406 247.429688 229.230469 245.097656 C 224.316406 242.675781 219.882812 240.472656 216.242188 238.40625 C 212.554688 236.453125 209.757812 234.605469 207.820312 233.324219 C 205.878906 232.054688 204.847656 231.269531 204.929688 231.121094 C 205.011719 230.976562 206.199219 231.496094 208.277344 232.511719 C 210.375 233.527344 213.3125 235.171875 217.054688 236.902344 C 220.734375 238.742188 225.210938 240.773438 230.183594 243.0625 C 233.984375 244.773438 238.046875 246.621094 242.304688 248.582031 C 238.550781 246.242188 234.800781 243.890625 231.132812 241.4375 C 222.59375 235.78125 212.96875 232.296875 204.648438 226.347656 C 201.175781 223.890625 197.671875 221.460938 194.140625 219.097656 C 193.824219 219.019531 193.511719 218.839844 193.261719 218.511719 C 188.488281 215.34375 183.65625 212.316406 178.703125 209.484375 C 175.863281 212.964844 172.390625 212.820312 167.820312 211.753906 C 160.8125 210.121094 153.839844 208.542969 146.9375 206.5625 C 138.519531 204.144531 130.28125 201.691406 122.261719 198.15625 C 116.035156 195.425781 109.867188 192.664062 103.363281 190.699219 C 103.507812 193.292969 103.230469 195.859375 102.511719 198.328125 C 107.300781 198.832031 111.871094 201.082031 116.089844 203.265625 C 122.566406 206.632812 129.109375 209.621094 135.78125 212.589844 C 152.96875 220.242188 170.054688 228.105469 187.125 235.988281 C 188.734375 236.738281 190.351562 237.488281 191.957031 238.230469 C 192.53125 237.597656 193.148438 236.777344 193.695312 236.019531 C 194.382812 235.042969 195.03125 234.015625 195.625 233.003906 C 196.214844 231.980469 196.765625 230.9375 197.207031 229.921875 C 197.40625 229.417969 197.582031 228.890625 197.671875 228.464844 C 197.726562 228.101562 197.703125 227.707031 197.519531 227.300781 C 197.207031 226.492188 196.558594 225.644531 195.78125 224.929688 C 195.03125 224.179688 194.183594 223.496094 193.320312 222.851562 C 191.585938 221.570312 189.78125 220.4375 187.984375 219.355469 C 187.085938 218.804688 186.171875 218.277344 185.300781 217.738281 C 184.367188 217.210938 183.519531 216.589844 182.707031 216.089844 C 181.890625 215.570312 181.082031 215.183594 180.320312 214.980469 C 179.5625 214.84375 178.789062 214.839844 177.976562 215.128906 C 177.183594 215.359375 176.40625 215.757812 175.414062 216.128906 C 174.453125 216.484375 173.421875 216.679688 172.414062 216.75 C 170.355469 216.785156 168.578125 216.242188 166.925781 215.855469 C 153.503906 212.640625 143.296875 209.175781 135.578125 206.433594 C 133.628906 205.761719 131.847656 205.128906 130.207031 204.5625 C 128.578125 203.949219 127.109375 203.335938 125.753906 202.816406 C 123.078125 201.722656 120.925781 200.859375 119.25 200.183594 C 115.921875 198.792969 114.519531 198.113281 114.578125 197.972656 C 114.628906 197.847656 116.132812 198.25 119.550781 199.386719 C 121.257812 199.980469 123.433594 200.730469 126.175781 201.679688 C 127.53125 202.152344 129.019531 202.675781 130.660156 203.257812 C 132.320312 203.78125 134.105469 204.367188 136.0625 204.988281 C 143.820312 207.542969 154.003906 210.816406 167.378906 213.921875 C 169.058594 214.316406 170.742188 214.769531 172.339844 214.71875 C 173.125 214.648438 173.910156 214.519531 174.707031 214.207031 C 175.441406 213.929688 176.375 213.453125 177.394531 213.140625 C 178.40625 212.792969 179.621094 212.738281 180.777344 212.953125 C 181.914062 213.238281 182.90625 213.753906 183.796875 214.308594 C 184.699219 214.867188 185.507812 215.441406 186.378906 215.941406 C 187.265625 216.457031 188.152344 216.992188 189.078125 217.519531 C 190.894531 218.632812 192.757812 219.785156 194.589844 221.136719 C 195.519531 221.8125 196.425781 222.550781 197.277344 223.390625 C 198.148438 224.238281 199.003906 225.207031 199.535156 226.570312 C 199.703125 226.890625 199.742188 227.273438 199.796875 227.648438 C 199.867188 228.015625 199.835938 228.472656 199.789062 228.828125 C 199.664062 229.558594 199.429688 230.160156 199.191406 230.75 C 198.691406 231.925781 198.117188 233 197.484375 234.082031 C 196.851562 235.167969 196.1875 236.230469 195.449219 237.269531 C 194.972656 237.917969 194.527344 238.542969 193.988281 239.175781 C 208.707031 246 223.40625 252.863281 238.117188 259.722656 C 246.609375 263.679688 255.109375 267.65625 263.605469 271.59375 C 267.851562 273.578125 272.179688 275.425781 276.355469 277.515625 C 278.078125 278.363281 280.371094 279.976562 282.308594 280.101562 Z M 271.664062 176.414062 C 271 175.054688 270.175781 173.789062 269.203125 172.648438 C 267.820312 171.015625 266.398438 169.417969 265.136719 167.675781 C 262.585938 164.21875 260 160.78125 257.445312 157.304688 C 256.585938 157.84375 255.757812 158.382812 254.921875 158.914062 C 258.996094 165.027344 262.546875 171.667969 267.386719 177.234375 C 268.4375 179.144531 269.863281 178.878906 271.664062 176.414062 Z M 279.03125 172.066406 C 282.023438 172.289062 282.234375 171.136719 279.707031 168.613281 C 279.039062 167.800781 278.34375 167.039062 277.582031 166.308594 C 276.011719 164.796875 274.441406 163.3125 273.128906 161.570312 C 270.75 158.410156 268.652344 155.078125 266.628906 151.691406 C 265.640625 152.292969 264.648438 152.886719 263.660156 153.488281 C 266.28125 156.722656 269.292969 159.652344 271.726562 162.996094 C 273.84375 165.933594 275.925781 170.058594 279.03125 172.066406 Z M 286.148438 133.953125 C 283.402344 134.699219 280.828125 137.0625 277.898438 138.878906 C 273.390625 141.664062 268.742188 144.195312 264.03125 146.652344 C 253.636719 152.0625 243.894531 158.25 234.292969 164.964844 C 224.769531 171.613281 215.4375 178.550781 205.644531 184.792969 C 198.21875 189.527344 191.230469 195.25 183.4375 199.371094 C 183.554688 199.707031 183.699219 200.027344 183.839844 200.351562 C 212.957031 181.8125 241.847656 162.910156 270.886719 144.226562 C 276.070312 140.882812 281.242188 137.632812 286.148438 133.953125 Z M 288.640625 166.832031 C 288.230469 165.984375 287.804688 165.144531 287.328125 164.316406 C 285.808594 161.617188 284.207031 158.957031 282.46875 156.382812 C 280.167969 152.980469 277.753906 149.65625 275.332031 146.351562 C 274.492188 146.886719 273.667969 147.40625 272.816406 147.941406 C 275.636719 151.195312 278.832031 154.429688 281.128906 158.046875 C 282.949219 160.902344 284.472656 164.054688 286.699219 166.625 C 287.15625 167.710938 287.808594 167.78125 288.640625 166.832031 Z M 295.949219 162.722656 C 299.515625 162.308594 300.265625 161.132812 298.171875 159.195312 C 293.378906 153.015625 289.027344 146.441406 285.082031 139.664062 C 283.6875 140.71875 282.253906 141.742188 280.8125 142.746094 C 283.953125 146.65625 287.265625 150.460938 290.289062 154.453125 C 291.597656 156.183594 292.9375 157.910156 294.105469 159.738281 C 294.742188 160.722656 295.34375 161.722656 295.949219 162.722656 Z M 282.34375 190.359375 C 292.828125 185.15625 322.074219 175.179688 313.261719 159.148438 C 310.46875 154.058594 296.621094 129.996094 289.007812 136.5 C 288.46875 136.972656 287.882812 137.398438 287.320312 137.859375 C 290.8125 143.839844 294.550781 148.761719 298.953125 154.039062 C 300.308594 155.703125 302.042969 157.671875 303.320312 160.53125 C 303.898438 161.960938 304.277344 163.875 303.570312 165.699219 C 303.453125 166.15625 303.179688 166.582031 302.890625 167.011719 L 302.472656 167.652344 L 302.046875 168.070312 L 301.625 168.503906 L 301.410156 168.71875 C 301.371094 168.753906 301.25 168.863281 301.25 168.863281 L 301.1875 168.917969 L 301.050781 168.992188 L 300.054688 169.730469 C 298.695312 170.703125 297.363281 171.640625 296.089844 172.554688 C 294.761719 173.363281 293.464844 174.132812 292.234375 174.882812 C 291.609375 175.238281 291.003906 175.597656 290.421875 175.933594 C 289.820312 176.25 289.230469 176.535156 288.652344 176.847656 C 287.511719 177.394531 286.433594 177.929688 285.445312 178.398438 C 281.511719 180.152344 278.964844 180.949219 278.824219 180.667969 C 278.660156 180.351562 280.980469 178.992188 284.707031 176.863281 C 285.628906 176.316406 286.617188 175.714844 287.6875 175.0625 C 288.230469 174.757812 288.785156 174.425781 289.347656 174.082031 C 289.917969 173.730469 290.484375 173.359375 291.066406 172.96875 C 292.253906 172.214844 293.5 171.402344 294.789062 170.582031 C 296.003906 169.683594 297.285156 168.757812 298.578125 167.8125 L 299.558594 167.105469 L 299.6875 167.011719 L 299.710938 166.988281 L 299.898438 166.796875 L 300.332031 166.378906 L 300.742188 165.964844 L 300.957031 165.597656 C 301.113281 165.378906 301.289062 165.152344 301.363281 164.847656 C 301.460938 164.597656 301.515625 164.339844 301.5625 164.085938 C 301.242188 164.65625 300.769531 165.222656 300.140625 165.816406 C 297.359375 168.40625 294.148438 165.414062 292.789062 163.078125 C 288.84375 156.3125 283.296875 150.445312 278.417969 144.339844 C 278.195312 144.484375 277.988281 144.636719 277.753906 144.773438 C 281.996094 150.308594 296.574219 169.535156 290.394531 171.199219 C 286.511719 172.253906 284.144531 168.15625 282.292969 165.371094 C 278.566406 159.75 274.707031 154.628906 270.320312 149.453125 C 269.902344 149.710938 269.496094 149.972656 269.078125 150.230469 C 271.285156 153.996094 273.535156 157.933594 276.488281 161.144531 C 278.605469 163.445312 280.964844 165.445312 282.777344 167.996094 C 284.421875 170.332031 285.351562 174.632812 282.011719 175.761719 C 278.238281 177.039062 274.304688 171.546875 272.566406 169.132812 C 269.027344 164.179688 264.898438 159.796875 261.164062 155 C 260.738281 155.269531 260.304688 155.527344 259.886719 155.785156 C 264.316406 161.714844 269.25 167.394531 273.347656 173.503906 C 275.503906 176.710938 275.789062 180.835938 272.28125 182.960938 C 268.6875 185.15625 263.867188 177.464844 262.53125 175.476562 C 259.164062 170.496094 255.929688 165.410156 252.523438 160.472656 C 251.894531 160.878906 251.269531 161.285156 250.640625 161.703125 C 253.0625 165.824219 255.242188 170.429688 258.199219 174.183594 C 259.753906 176.160156 261.949219 178.125 262.925781 180.492188 C 264.308594 183.863281 264.464844 187.726562 260.773438 189.449219 C 257.066406 191.203125 252.945312 185.484375 251.464844 183.007812 C 248.308594 177.761719 244.398438 173.03125 241.246094 167.808594 C 240.511719 168.285156 239.769531 168.765625 239.035156 169.253906 C 243.863281 174.691406 247.738281 180.75 251.636719 186.871094 C 253.234375 189.351562 252.800781 195.195312 248.785156 195.367188 C 244.769531 195.53125 242.714844 192.148438 240.894531 188.910156 C 237.960938 183.722656 235.355469 178.683594 231.472656 174.125 C 230.960938 174.441406 230.449219 174.777344 229.9375 175.113281 C 233.882812 181.355469 238.085938 187.832031 241.25 194.488281 C 242.515625 197.164062 241.164062 202.183594 237.765625 202.667969 C 233.847656 203.242188 231.566406 199.984375 229.664062 196.914062 C 226.484375 191.765625 223.660156 186.335938 220.222656 181.367188 C 219.449219 181.863281 218.652344 182.359375 217.875 182.855469 C 219.804688 186.339844 221.664062 189.84375 223.449219 193.386719 C 224.796875 196.027344 226.757812 198.65625 227.859375 201.398438 C 229.074219 204.445312 228.453125 208.554688 224.632812 209.472656 C 220.542969 210.457031 218.011719 207.277344 216.132812 204.015625 C 213.320312 199.128906 210.480469 194.285156 207.582031 189.449219 C 206.660156 190.019531 205.753906 190.609375 204.835938 191.207031 C 209.339844 195.972656 211.785156 202.113281 215.855469 207.222656 C 218.089844 210.007812 219.953125 213.699219 215.90625 216.035156 C 211.886719 218.351562 209.097656 216.480469 207.394531 212.496094 C 204.78125 206.390625 200.066406 201.957031 196.675781 196.402344 C 196.121094 196.753906 195.5625 197.113281 195.007812 197.464844 C 199.023438 203.332031 203.753906 209.566406 206.230469 216.164062 C 207.09375 218.433594 206.050781 221.289062 203.777344 221.851562 C 206.066406 223.382812 208.402344 224.871094 210.789062 226.253906 C 213.613281 227.910156 216.585938 229.230469 219.539062 230.59375 C 230.710938 222.894531 242.144531 215.597656 253.597656 208.339844 C 263.058594 202.328125 272.277344 195.351562 282.34375 190.359375 Z M 316.507812 157.632812 C 324.566406 173.917969 304.777344 183.414062 292.6875 189.316406 C 268.398438 201.179688 245.480469 217.003906 223.222656 232.398438 C 223.804688 232.691406 224.390625 232.964844 224.96875 233.292969 C 229.34375 235.71875 233.390625 238.695312 237.613281 241.375 C 247.929688 247.953125 258.492188 254.15625 268.640625 260.996094 C 275.09375 265.34375 282.097656 269.480469 286.542969 275.871094 C 286.933594 275.921875 287.3125 276.105469 287.640625 276.484375 C 289.902344 279.121094 290.066406 281.828125 286.535156 283.277344 C 281.054688 285.5 274.601562 280.636719 269.996094 278.519531 C 260.777344 274.238281 251.585938 269.945312 242.375 265.664062 C 246.003906 270 249.265625 274.609375 252.8125 279.070312 C 257.785156 285.308594 263.011719 291.222656 267.480469 297.847656 C 267.496094 297.878906 267.5 297.90625 267.523438 297.945312 C 268.453125 298.359375 269.109375 299.507812 268.382812 300.625 C 265.398438 305.214844 260.332031 302.84375 256.257812 300.777344 C 248.042969 296.597656 240.3125 291.578125 233.132812 285.761719 C 225.890625 279.890625 218.925781 273.675781 212.546875 266.875 C 209.175781 263.289062 205.820312 259.644531 203 255.59375 C 201.121094 252.917969 199.765625 250.046875 197.894531 247.476562 C 174.523438 264.132812 149.789062 279.355469 125.339844 294.382812 C 119.453125 298.011719 113.527344 303.015625 107.136719 305.726562 C 103.84375 307.125 99.847656 308.101562 96.421875 306.351562 C 87.050781 301.574219 81.941406 292.152344 76.042969 283.859375 C 75.585938 283.757812 75.144531 283.46875 74.875 282.917969 C 73.632812 280.457031 73.636719 277.996094 74.878906 275.585938 C 74.910156 275.1875 75.105469 274.773438 75.496094 274.449219 C 87.289062 264.328125 100.515625 256.335938 113.761719 248.3125 C 126.589844 240.554688 138.210938 231.679688 150.390625 223.101562 C 149.398438 222.65625 148.386719 222.175781 147.390625 221.742188 C 138.261719 217.605469 128.785156 213.964844 119.917969 209.296875 C 114.167969 206.269531 107.800781 202.183594 101.132812 201.828125 C 100.097656 203.839844 98.675781 205.722656 96.820312 207.394531 C 85.980469 217.167969 68.1875 214.699219 58.238281 204.644531 C 51.453125 197.808594 47.863281 186.574219 50.636719 177.28125 C 53.371094 157.632812 75.382812 152.820312 91.453125 160.933594 C 95.246094 162.84375 99.035156 165.800781 101.441406 169.355469 C 102.625 171.109375 103.914062 172.960938 104.488281 175.003906 C 106.164062 180.945312 109.167969 182.554688 114.011719 184.632812 C 122.613281 188.339844 129.796875 193.132812 138.988281 195.621094 C 145.984375 197.496094 153.019531 199.199219 160.015625 201.082031 C 159.921875 200.832031 159.855469 200.59375 159.75 200.351562 C 159.195312 200.3125 158.648438 200.023438 158.296875 199.417969 C 149.816406 184.410156 137.835938 171.851562 128.621094 157.332031 C 117.925781 158.175781 105.285156 154.695312 98.945312 145.394531 C 95.292969 140.035156 93.976562 134.910156 94.9375 128.453125 C 95.808594 122.738281 94.925781 118.605469 91.804688 113.769531 C 90.484375 111.71875 89.164062 109.625 88.5 107.257812 C 85.023438 94.96875 86.898438 83.039062 97.636719 75.082031 C 103.199219 70.941406 112.699219 73.503906 109.8125 81.582031 C 107.898438 86.957031 102.640625 94.128906 107.835938 99.328125 C 111.671875 103.148438 117.214844 104.777344 122.285156 106.234375 C 132.46875 109.117188 141.339844 111.199219 145.476562 122.046875 C 147.460938 127.285156 147.425781 133.808594 145.429688 139.03125 C 143.636719 143.703125 141.578125 147.859375 145.515625 152.433594 C 148.414062 155.773438 151.140625 159.261719 153.785156 162.796875 C 158.804688 169.53125 163.613281 176.269531 169.523438 182.25 C 173.910156 186.699219 178.222656 191.078125 181.644531 196.261719 C 187.304688 193.285156 191.960938 189.078125 197.363281 185.710938 C 202.914062 182.21875 208.511719 178.8125 213.84375 174.984375 C 224.402344 167.433594 234.96875 159.773438 245.917969 152.785156 C 256.949219 145.730469 269.402344 140.949219 279.800781 132.964844 C 284.921875 129.046875 288.082031 128.21875 292.355469 130.953125 C 293.527344 131.121094 294.703125 131.660156 295.640625 132.335938 C 304.0625 138.304688 312.003906 148.472656 316.507812 157.632812 " fill-opacity="1" fill-rule="nonzero"/></g></g></g><g clip-path="url(#40357372f0)"><g clip-path="url(#e60cc4c71b)"><g clip-path="url(#08a06ab739)"><path fill="#fffefe" d="M 308.917969 166.902344 L 308.925781 166.847656 L 308.953125 166.640625 C 309.023438 166.050781 308.90625 165.253906 308.710938 164.46875 C 308.320312 162.875 307.621094 161.199219 306.859375 159.535156 C 303.640625 152.855469 299.75 147.191406 296.703125 143.414062 C 295.144531 141.539062 293.757812 140.15625 292.703125 139.417969 C 292.164062 139.066406 291.714844 138.882812 291.460938 138.839844 C 291.117188 138.800781 290.875 138.847656 290.863281 138.761719 C 290.851562 138.691406 290.949219 138.5 291.335938 138.363281 C 291.796875 138.214844 292.417969 138.3125 293.128906 138.585938 C 294.523438 139.167969 296.183594 140.457031 297.964844 142.269531 C 301.488281 145.921875 305.6875 151.519531 309.046875 158.515625 C 309.867188 160.269531 310.59375 162.054688 311.027344 163.9375 C 311.230469 164.878906 311.394531 165.855469 311.246094 166.972656 L 311.160156 167.402344 L 311.132812 167.515625 L 311.101562 167.652344 L 311.039062 167.804688 L 310.832031 168.402344 C 310.722656 168.773438 310.445312 169.265625 310.261719 169.667969 C 308.511719 172.910156 305.867188 174.726562 303.777344 176.117188 C 301.625 177.464844 299.824219 178.355469 298.570312 178.957031 C 297.304688 179.550781 296.578125 179.832031 296.492188 179.6875 C 296.398438 179.554688 296.960938 178.996094 298.070312 178.152344 C 299.175781 177.292969 300.847656 176.167969 302.800781 174.699219 C 304.679688 173.21875 306.960938 171.335938 308.261719 168.683594 C 308.386719 168.324219 308.554688 168.109375 308.675781 167.671875 L 308.875 167.070312 L 308.921875 166.910156 L 308.917969 166.902344 " fill-opacity="1" fill-rule="nonzero"/></g></g></g><g clip-path="url(#c239fcebef)"><g clip-path="url(#1ed932da8d)"><g clip-path="url(#a8189a2b48)"><path fill="#fffefe" d="M 276.382812 182.359375 C 276.5625 182.578125 273.46875 185.417969 267.839844 189.191406 C 262.257812 192.992188 254.082031 197.53125 245.054688 202.328125 C 240.546875 204.738281 236.265625 207.078125 232.449219 209.273438 C 228.632812 211.507812 225.238281 213.582031 222.484375 215.457031 C 216.980469 219.15625 213.746094 221.859375 213.507812 221.542969 C 213.320312 221.335938 216.097656 218.230469 221.496094 214.070312 C 224.152344 211.988281 227.507812 209.734375 231.292969 207.355469 C 235.105469 205.027344 239.390625 202.617188 243.914062 200.195312 C 252.984375 195.386719 261.171875 191.132812 266.949219 187.742188 C 272.726562 184.378906 276.15625 182.050781 276.382812 182.359375 " fill-opacity="1" fill-rule="nonzero"/></g></g></g><g clip-path="url(#b47c86230b)"><g clip-path="url(#2c2429c5cb)"><g clip-path="url(#b27e3c3950)"><path fill="#fffefe" d="M 190.203125 226.992188 C 190.074219 226.078125 189.714844 225.09375 189.039062 224.292969 C 188.394531 223.46875 187.441406 222.855469 186.4375 222.695312 C 185.453125 222.550781 184.410156 222.921875 183.488281 223.726562 C 183.277344 223.949219 183.09375 224.078125 182.867188 224.355469 L 182.511719 224.78125 L 182.34375 224.976562 C 182.324219 225.015625 182.253906 225.082031 182.25 225.109375 C 181.886719 225.640625 181.570312 226.171875 181.363281 226.6875 C 180.964844 227.75 180.992188 228.695312 181.496094 229.433594 C 181.984375 230.214844 182.890625 230.746094 183.820312 231.066406 C 184.742188 231.367188 185.695312 231.496094 186.546875 231.441406 C 187.195312 231.414062 187.742188 231.277344 188.257812 231.121094 C 188.824219 230.703125 189.355469 230.179688 189.761719 229.472656 C 190.140625 228.769531 190.304688 227.90625 190.203125 226.992188 Z M 190.804688 222.929688 C 191.695312 224.121094 192.144531 225.515625 192.199219 226.839844 C 192.257812 228.1875 191.859375 229.445312 191.199219 230.382812 C 190.984375 230.675781 190.769531 230.917969 190.53125 231.144531 C 189.785156 232.035156 188.464844 232.878906 186.734375 233.144531 C 185.683594 233.328125 184.5 233.296875 183.261719 233 C 182.042969 232.664062 180.652344 232.054688 179.675781 230.71875 C 179.179688 230.054688 178.855469 229.222656 178.777344 228.347656 C 178.699219 227.472656 178.878906 226.644531 179.148438 225.871094 C 179.417969 225.097656 179.828125 224.378906 180.269531 223.738281 C 180.359375 223.625 180.339844 223.628906 180.488281 223.441406 L 180.644531 223.230469 L 181 222.804688 C 181.230469 222.527344 181.597656 222.191406 181.910156 221.890625 C 182.570312 221.34375 183.304688 220.855469 184.164062 220.566406 C 185.019531 220.289062 185.945312 220.203125 186.8125 220.351562 C 188.570312 220.667969 189.945312 221.734375 190.804688 222.929688 " fill-opacity="1" fill-rule="nonzero"/></g></g></g><g clip-path="url(#3c226c43a4)"><g clip-path="url(#011130b43b)"><g clip-path="url(#31f8e22af2)"><path fill="#fffefe" d="M 190.101562 244.066406 L 191.253906 245.070312 L 189.976562 245.898438 C 188.566406 246.800781 187.128906 247.726562 185.65625 248.695312 C 184.1875 249.652344 182.613281 250.476562 181.050781 251.40625 C 176.296875 254.101562 171.652344 256.429688 167.5 258.621094 C 163.332031 260.789062 159.632812 262.839844 156.617188 264.664062 C 155.121094 265.582031 153.761719 266.421875 152.566406 267.167969 C 151.402344 267.941406 150.417969 268.675781 149.582031 269.234375 C 147.925781 270.355469 146.964844 270.925781 146.863281 270.785156 C 146.75 270.652344 147.511719 269.839844 148.988281 268.5 C 149.734375 267.832031 150.628906 266.976562 151.75 266.097656 C 152.898438 265.246094 154.21875 264.296875 155.671875 263.214844 C 158.644531 261.167969 162.296875 258.957031 166.429688 256.652344 C 170.554688 254.339844 175.167969 251.964844 179.867188 249.289062 C 181.398438 248.375 182.96875 247.578125 184.398438 246.644531 C 185.390625 246.011719 186.355469 245.414062 187.332031 244.796875 C 184.65625 242.746094 181.628906 241.355469 178.902344 240.144531 C 175.726562 238.773438 172.8125 237.746094 170.394531 236.8125 C 165.550781 235.007812 162.761719 233.613281 162.859375 233.367188 C 162.976562 233.097656 165.902344 233.992188 170.875 235.40625 C 173.339844 236.136719 176.335938 237.007812 179.671875 238.285156 C 182.945312 239.605469 186.714844 241.128906 190.101562 244.066406 " fill-opacity="1" fill-rule="nonzero"/></g></g></g><g clip-path="url(#06a006e997)"><g clip-path="url(#a38cbbfe18)"><g clip-path="url(#b0a3ee7e36)"><path fill="#fffefe" d="M 118.535156 137.640625 C 123.5 137.691406 130.90625 135.148438 129.5625 128.707031 C 128.328125 122.824219 122.703125 116.953125 116.402344 118.625 C 111.175781 123.761719 108.25 137.546875 118.535156 137.640625 Z M 132.757812 133.789062 C 132.808594 133.246094 132.832031 132.699219 132.828125 132.140625 C 131.578125 137.253906 126.910156 140.820312 121.21875 141.140625 C 114.789062 141.515625 108.78125 138.753906 108.160156 131.59375 C 107.816406 127.507812 108.691406 123.175781 110.828125 119.65625 C 108.269531 121.425781 106.554688 124.246094 106.222656 128.210938 C 105.632812 135.191406 107.257812 142.242188 114.652344 144.546875 C 122.128906 145.605469 131.835938 142.40625 132.757812 133.789062 Z M 123.304688 114.328125 C 132.78125 117.339844 137.929688 125.882812 136.035156 135.640625 C 134.140625 145.460938 123.019531 149.460938 114.0625 148.101562 C 113.960938 148.074219 113.859375 148.046875 113.746094 148.011719 C 113.699219 148.003906 113.65625 147.992188 113.609375 147.992188 C 103.738281 145.089844 100.414062 133.488281 103.308594 124.242188 C 105.878906 116.078125 115.046875 111.6875 123.304688 114.328125 " fill-opacity="1" fill-rule="nonzero"/></g></g></g><g clip-path="url(#af16dfaf11)"><g clip-path="url(#9657f63aa3)"><g clip-path="url(#5851b34a56)"><path fill="#fffefe" d="M 110.449219 108.671875 C 113.804688 108.746094 116.011719 108.933594 115.992188 109.300781 C 115.972656 109.605469 113.949219 110.019531 110.472656 110.390625 C 108.757812 110.519531 106.511719 110.625 104.121094 109.652344 C 102.933594 109.183594 101.789062 108.445312 100.773438 107.417969 L 100.15625 106.742188 C 99.863281 106.390625 99.71875 106.15625 99.5 105.847656 C 99.0625 105.273438 98.738281 104.644531 98.425781 104.003906 C 97.230469 101.390625 96.917969 98.699219 96.945312 96.34375 C 96.960938 93.960938 97.335938 91.871094 97.828125 90.15625 C 98.304688 88.460938 98.875 87.15625 99.382812 86.269531 C 99.867188 85.425781 100.246094 85.03125 100.390625 85.089844 C 100.71875 85.253906 99.980469 87.246094 99.488281 90.523438 C 99.25 92.164062 99.078125 94.144531 99.164062 96.296875 C 99.261719 98.457031 99.636719 100.824219 100.628906 102.976562 C 100.886719 103.5 101.144531 104.035156 101.476562 104.492188 L 101.929688 105.128906 L 102.546875 105.824219 C 103.253906 106.566406 104.105469 107.195312 105 107.609375 C 106.804688 108.46875 108.785156 108.589844 110.449219 108.671875 " fill-opacity="1" fill-rule="nonzero"/></g></g></g><g clip-path="url(#6b58edb683)"><g clip-path="url(#1948265cca)"><g clip-path="url(#b225607a19)"><path fill="#fffefe" d="M 142.898438 273.15625 C 143.070312 273.429688 139.445312 276.242188 133.410156 280.535156 C 127.417969 284.867188 118.925781 290.527344 109.480469 296.675781 C 108.257812 297.421875 107.109375 298.253906 105.570312 298.808594 C 104.851562 299.113281 103.945312 299.195312 103.136719 299.199219 L 101.910156 299.03125 C 101.511719 298.96875 101.148438 298.78125 100.785156 298.664062 C 100.011719 298.402344 99.476562 298.066406 98.902344 297.753906 L 98.257812 297.410156 L 98.152344 297.351562 L 98.121094 297.320312 L 98.058594 297.285156 L 97.953125 297.222656 C 97.671875 297.03125 97.390625 296.828125 97.128906 296.644531 C 96.066406 295.878906 95.066406 295.097656 94.097656 294.304688 C 92.199219 292.714844 90.433594 291.148438 88.921875 289.476562 C 88.152344 288.664062 87.46875 287.800781 86.871094 286.882812 C 86.738281 286.636719 86.601562 286.402344 86.457031 286.160156 C 86.320312 285.890625 86.15625 285.554688 86.054688 285.253906 C 85.949219 284.941406 85.917969 284.769531 85.875 284.511719 L 85.867188 284.46875 L 85.890625 284.339844 L 85.914062 284.316406 L 85.917969 284.289062 L 85.945312 284.179688 L 85.964844 283.945312 L 86.023438 283.5 C 86.269531 282.320312 86.964844 281.503906 87.585938 280.875 C 88.234375 280.242188 88.914062 279.746094 89.550781 279.335938 C 90.824219 278.507812 91.972656 277.949219 92.894531 277.484375 C 94.769531 276.601562 95.773438 276.101562 95.867188 276.226562 C 95.976562 276.351562 95.113281 277.171875 93.371094 278.308594 C 92.519531 278.886719 91.453125 279.566406 90.332031 280.4375 C 89.765625 280.871094 89.214844 281.371094 88.714844 281.9375 C 88.222656 282.5 87.785156 283.160156 87.699219 283.8125 L 87.6875 284.0625 L 87.695312 284.195312 L 87.691406 284.238281 C 87.734375 284.445312 87.761719 284.753906 87.835938 284.871094 C 87.9375 285.015625 87.964844 285.125 88.066406 285.296875 L 88.425781 285.847656 C 88.96875 286.597656 89.628906 287.359375 90.371094 288.09375 C 91.867188 289.589844 93.617188 291.074219 95.5 292.566406 C 96.449219 293.3125 97.433594 294.042969 98.46875 294.757812 C 98.71875 294.9375 98.980469 295.105469 99.226562 295.269531 L 99.328125 295.332031 L 99.367188 295.359375 L 99.542969 295.453125 L 99.980469 295.683594 C 100.570312 295.972656 101.164062 296.328125 101.660156 296.445312 C 102.714844 296.898438 103.714844 296.9375 104.761719 296.527344 C 105.832031 296.152344 106.988281 295.371094 108.167969 294.640625 C 117.613281 288.484375 126.269531 283.054688 132.5 279.082031 C 138.75 275.160156 142.71875 272.875 142.898438 273.15625 " fill-opacity="1" fill-rule="nonzero"/></g></g></g><g clip-path="url(#96b09408a9)"><g clip-path="url(#5c9da1d52d)"><g clip-path="url(#931bf7e885)"><path fill="#fffefe" d="M 91.980469 196.347656 C 92.332031 195.078125 92.5 193.761719 92.503906 192.476562 C 88.117188 197.789062 80.394531 199.863281 73.636719 197.28125 C 65.835938 194.316406 62.871094 188.476562 63.035156 181.28125 C 61.425781 184.164062 61.09375 187.710938 62.429688 191.214844 C 64.757812 197.339844 69.558594 201.191406 75.734375 203.0625 C 81.984375 204.398438 89.90625 203.738281 91.980469 196.347656 Z M 91.457031 187.414062 C 91.503906 187.324219 91.542969 187.238281 91.609375 187.15625 C 91.289062 186.304688 90.933594 185.46875 90.472656 184.667969 C 86.179688 177.042969 77.472656 172.277344 68.851562 176.074219 C 68.234375 176.355469 67.640625 176.671875 67.097656 177.027344 C 65.917969 183.488281 66.289062 190.644531 73.472656 193.375 C 80.210938 195.941406 88.402344 194.648438 91.457031 187.414062 Z M 95.753906 188.792969 C 98.042969 202 87.257812 209.332031 75.03125 206.566406 C 74.964844 206.539062 74.933594 206.519531 74.875 206.519531 C 74.78125 206.5 74.683594 206.492188 74.578125 206.445312 C 65.890625 203.898438 58.023438 196.425781 58.078125 186.808594 C 58.132812 177.449219 65.316406 172.097656 74.121094 171.386719 C 84.324219 170.554688 94.027344 178.714844 95.753906 188.792969 " fill-opacity="1" fill-rule="nonzero"/></g></g></g></svg>