<svg xmlns="http://www.w3.org/2000/svg" xmlns:xlink="http://www.w3.org/1999/xlink" width="500" zoomAndPan="magnify" viewBox="0 0 375 374.999991" height="500" preserveAspectRatio="xMidYMid meet" version="1.0"><defs><clipPath id="1000703977"><path d="M 131.625 117 L 243.375 117 L 243.375 337.5 L 131.625 337.5 Z M 131.625 117 " clip-rule="nonzero"/></clipPath><clipPath id="0ffde4fe84"><path d="M 168 37.5 L 242 37.5 L 242 56 L 168 56 Z M 168 37.5 " clip-rule="nonzero"/></clipPath></defs><g clip-path="url(#1000703977)"><path fill="#fffefe" d="M 220.703125 337.304688 L 154.269531 337.304688 C 153.527344 337.300781 152.785156 337.265625 152.046875 337.191406 C 151.308594 337.117188 150.578125 337.007812 149.851562 336.863281 C 149.121094 336.71875 148.40625 336.539062 147.695312 336.320312 C 146.984375 336.105469 146.289062 335.855469 145.601562 335.570312 C 144.917969 335.289062 144.25 334.96875 143.59375 334.621094 C 142.941406 334.269531 142.304688 333.890625 141.6875 333.476562 C 141.070312 333.066406 140.476562 332.625 139.902344 332.152344 C 139.332031 331.683594 138.78125 331.183594 138.257812 330.660156 C 137.734375 330.136719 137.234375 329.585938 136.765625 329.015625 C 136.292969 328.441406 135.851562 327.84375 135.441406 327.230469 C 135.027344 326.613281 134.648438 325.976562 134.296875 325.324219 C 133.945312 324.667969 133.628906 324 133.34375 323.316406 C 133.0625 322.628906 132.8125 321.933594 132.59375 321.222656 C 132.378906 320.511719 132.199219 319.792969 132.054688 319.066406 C 131.910156 318.339844 131.800781 317.605469 131.726562 316.867188 C 131.652344 316.132812 131.613281 315.390625 131.613281 314.648438 L 131.613281 158.398438 C 131.613281 135.726562 150.058594 117.28125 172.730469 117.28125 L 202.242188 117.28125 C 224.914062 117.28125 243.359375 135.722656 243.359375 158.398438 L 243.359375 314.648438 C 243.359375 315.390625 243.320312 316.128906 243.246094 316.867188 C 243.175781 317.605469 243.066406 318.339844 242.917969 319.066406 C 242.773438 319.792969 242.59375 320.511719 242.378906 321.222656 C 242.160156 321.933594 241.910156 322.628906 241.628906 323.3125 C 241.34375 324 241.027344 324.667969 240.675781 325.324219 C 240.328125 325.976562 239.945312 326.613281 239.53125 327.230469 C 239.121094 327.84375 238.679688 328.441406 238.207031 329.015625 C 237.738281 329.585938 237.238281 330.136719 236.714844 330.660156 C 236.191406 331.183594 235.640625 331.683594 235.070312 332.152344 C 234.496094 332.625 233.898438 333.066406 233.285156 333.476562 C 232.667969 333.890625 232.03125 334.269531 231.378906 334.621094 C 230.722656 334.972656 230.054688 335.289062 229.367188 335.574219 C 228.683594 335.855469 227.984375 336.105469 227.277344 336.324219 C 226.566406 336.539062 225.847656 336.71875 225.121094 336.863281 C 224.394531 337.007812 223.660156 337.117188 222.921875 337.191406 C 222.183594 337.265625 221.445312 337.300781 220.703125 337.304688 Z M 172.730469 121.371094 C 171.519531 121.371094 170.308594 121.433594 169.101562 121.554688 C 167.898438 121.671875 166.699219 121.851562 165.511719 122.089844 C 164.320312 122.328125 163.148438 122.621094 161.988281 122.976562 C 160.828125 123.328125 159.6875 123.738281 158.566406 124.203125 C 157.449219 124.664062 156.355469 125.183594 155.285156 125.757812 C 154.214844 126.328125 153.179688 126.949219 152.171875 127.625 C 151.164062 128.296875 150.191406 129.019531 149.253906 129.789062 C 148.316406 130.558594 147.417969 131.371094 146.5625 132.226562 C 145.703125 133.085938 144.890625 133.984375 144.121094 134.917969 C 143.351562 135.855469 142.632812 136.828125 141.957031 137.835938 C 141.285156 138.84375 140.660156 139.882812 140.089844 140.953125 C 139.515625 142.019531 139 143.113281 138.535156 144.234375 C 138.070312 145.355469 137.660156 146.496094 137.308594 147.652344 C 136.957031 148.8125 136.660156 149.988281 136.421875 151.175781 C 136.1875 152.367188 136.007812 153.5625 135.886719 154.769531 C 135.765625 155.976562 135.707031 157.183594 135.703125 158.398438 L 135.703125 314.648438 C 135.707031 315.257812 135.734375 315.863281 135.796875 316.46875 C 135.855469 317.070312 135.945312 317.671875 136.066406 318.269531 C 136.183594 318.863281 136.332031 319.453125 136.507812 320.035156 C 136.6875 320.617188 136.890625 321.1875 137.125 321.75 C 137.355469 322.308594 137.617188 322.859375 137.902344 323.394531 C 138.191406 323.929688 138.503906 324.449219 138.839844 324.957031 C 139.179688 325.460938 139.539062 325.949219 139.925781 326.417969 C 140.3125 326.886719 140.71875 327.335938 141.148438 327.765625 C 141.578125 328.195312 142.027344 328.605469 142.496094 328.988281 C 142.96875 329.375 143.453125 329.738281 143.960938 330.074219 C 144.464844 330.414062 144.984375 330.726562 145.519531 331.011719 C 146.058594 331.296875 146.605469 331.558594 147.167969 331.792969 C 147.726562 332.023438 148.300781 332.230469 148.882812 332.40625 C 149.460938 332.582031 150.050781 332.730469 150.648438 332.851562 C 151.242188 332.96875 151.84375 333.058594 152.449219 333.117188 C 153.054688 333.179688 153.660156 333.210938 154.265625 333.210938 L 220.703125 333.210938 C 221.308594 333.210938 221.914062 333.179688 222.519531 333.117188 C 223.125 333.058594 223.726562 332.96875 224.320312 332.847656 C 224.917969 332.730469 225.503906 332.582031 226.085938 332.40625 C 226.667969 332.230469 227.238281 332.023438 227.800781 331.792969 C 228.363281 331.558594 228.910156 331.296875 229.445312 331.011719 C 229.984375 330.726562 230.503906 330.414062 231.007812 330.074219 C 231.511719 329.738281 232 329.375 232.46875 328.988281 C 232.941406 328.605469 233.390625 328.195312 233.820312 327.765625 C 234.25 327.335938 234.65625 326.886719 235.042969 326.417969 C 235.429688 325.949219 235.789062 325.460938 236.128906 324.957031 C 236.464844 324.449219 236.777344 323.929688 237.066406 323.394531 C 237.351562 322.859375 237.609375 322.308594 237.84375 321.746094 C 238.078125 321.1875 238.28125 320.617188 238.457031 320.035156 C 238.636719 319.453125 238.785156 318.863281 238.902344 318.269531 C 239.023438 317.671875 239.113281 317.070312 239.171875 316.46875 C 239.230469 315.863281 239.261719 315.257812 239.261719 314.648438 L 239.261719 158.398438 C 239.261719 157.183594 239.199219 155.976562 239.082031 154.769531 C 238.960938 153.5625 238.78125 152.367188 238.542969 151.175781 C 238.308594 149.988281 238.011719 148.8125 237.660156 147.652344 C 237.304688 146.496094 236.898438 145.355469 236.433594 144.234375 C 235.96875 143.113281 235.449219 142.019531 234.878906 140.953125 C 234.308594 139.882812 233.683594 138.84375 233.011719 137.835938 C 232.335938 136.828125 231.613281 135.855469 230.84375 134.917969 C 230.078125 133.984375 229.261719 133.085938 228.40625 132.230469 C 227.550781 131.371094 226.652344 130.558594 225.714844 129.789062 C 224.777344 129.019531 223.804688 128.296875 222.796875 127.625 C 221.789062 126.949219 220.75 126.328125 219.683594 125.757812 C 218.613281 125.183594 217.519531 124.664062 216.398438 124.203125 C 215.28125 123.738281 214.140625 123.328125 212.980469 122.976562 C 211.820312 122.621094 210.648438 122.328125 209.457031 122.089844 C 208.269531 121.851562 207.070312 121.671875 205.863281 121.554688 C 204.660156 121.433594 203.449219 121.371094 202.238281 121.371094 Z M 172.730469 121.371094 " fill-opacity="1" fill-rule="nonzero"/></g><path fill="#fffefe" d="M 205.863281 121.371094 L 169.105469 121.371094 C 168.835938 121.371094 168.574219 121.320312 168.324219 121.214844 C 168.074219 121.113281 167.851562 120.964844 167.660156 120.773438 C 167.46875 120.582031 167.320312 120.359375 167.214844 120.109375 C 167.113281 119.859375 167.058594 119.597656 167.058594 119.324219 L 167.058594 90.648438 C 167.058594 90.242188 167.101562 89.839844 167.179688 89.441406 C 167.257812 89.046875 167.375 88.660156 167.53125 88.285156 C 167.6875 87.910156 167.878906 87.554688 168.101562 87.21875 C 168.328125 86.882812 168.582031 86.570312 168.871094 86.285156 C 169.15625 85.996094 169.46875 85.742188 169.804688 85.515625 C 170.140625 85.289062 170.496094 85.101562 170.871094 84.945312 C 171.246094 84.789062 171.632812 84.671875 172.03125 84.59375 C 172.425781 84.515625 172.828125 84.472656 173.234375 84.472656 L 201.738281 84.472656 C 202.144531 84.472656 202.542969 84.515625 202.941406 84.59375 C 203.339844 84.671875 203.722656 84.789062 204.097656 84.945312 C 204.472656 85.101562 204.828125 85.289062 205.164062 85.515625 C 205.503906 85.742188 205.8125 85.996094 206.101562 86.285156 C 206.386719 86.570312 206.644531 86.882812 206.867188 87.21875 C 207.09375 87.554688 207.285156 87.910156 207.4375 88.285156 C 207.59375 88.660156 207.710938 89.046875 207.789062 89.441406 C 207.871094 89.839844 207.910156 90.242188 207.910156 90.648438 L 207.910156 119.324219 C 207.910156 119.597656 207.859375 119.859375 207.753906 120.109375 C 207.652344 120.359375 207.503906 120.582031 207.3125 120.773438 C 207.121094 120.964844 206.898438 121.113281 206.648438 121.214844 C 206.398438 121.320312 206.136719 121.371094 205.863281 121.371094 Z M 171.152344 117.28125 L 203.820312 117.28125 L 203.820312 90.648438 C 203.816406 90.371094 203.765625 90.105469 203.660156 89.851562 C 203.554688 89.597656 203.402344 89.371094 203.207031 89.175781 C 203.011719 88.980469 202.789062 88.832031 202.535156 88.726562 C 202.277344 88.621094 202.011719 88.566406 201.738281 88.566406 L 173.234375 88.566406 C 172.957031 88.566406 172.691406 88.621094 172.4375 88.726562 C 172.183594 88.832031 171.957031 88.980469 171.761719 89.175781 C 171.566406 89.371094 171.417969 89.597656 171.3125 89.851562 C 171.207031 90.105469 171.152344 90.371094 171.152344 90.648438 Z M 171.152344 117.28125 " fill-opacity="1" fill-rule="nonzero"/><path fill="#fffefe" d="M 196.777344 88.566406 L 178.191406 88.566406 C 177.921875 88.566406 177.660156 88.515625 177.410156 88.410156 C 177.160156 88.304688 176.9375 88.160156 176.746094 87.964844 C 176.554688 87.773438 176.40625 87.554688 176.300781 87.304688 C 176.199219 87.050781 176.148438 86.792969 176.148438 86.519531 L 176.148438 52.957031 C 176.148438 52.6875 176.199219 52.425781 176.304688 52.175781 C 176.40625 51.921875 176.554688 51.703125 176.746094 51.511719 C 176.9375 51.320312 177.160156 51.171875 177.410156 51.066406 C 177.660156 50.964844 177.921875 50.910156 178.191406 50.910156 L 196.777344 50.910156 C 197.050781 50.910156 197.308594 50.964844 197.5625 51.066406 C 197.8125 51.171875 198.03125 51.320312 198.222656 51.511719 C 198.417969 51.703125 198.5625 51.921875 198.667969 52.175781 C 198.773438 52.425781 198.824219 52.6875 198.824219 52.957031 L 198.824219 86.519531 C 198.824219 86.792969 198.773438 87.050781 198.667969 87.304688 C 198.5625 87.554688 198.417969 87.773438 198.222656 87.964844 C 198.03125 88.160156 197.8125 88.304688 197.5625 88.410156 C 197.308594 88.515625 197.050781 88.566406 196.777344 88.566406 Z M 180.238281 84.472656 L 194.730469 84.472656 L 194.730469 55.003906 L 180.238281 55.003906 Z M 180.238281 84.472656 " fill-opacity="1" fill-rule="nonzero"/><g clip-path="url(#0ffde4fe84)"><path fill="#fffefe" d="M 235.457031 55.003906 L 177.28125 55.003906 C 176.703125 55.003906 176.132812 54.945312 175.566406 54.828125 C 174.996094 54.710938 174.449219 54.539062 173.917969 54.3125 C 173.386719 54.085938 172.882812 53.804688 172.40625 53.476562 C 171.933594 53.144531 171.496094 52.769531 171.097656 52.351562 C 170.699219 51.929688 170.347656 51.476562 170.042969 50.984375 C 169.734375 50.496094 169.480469 49.976562 169.28125 49.4375 C 169.082031 48.894531 168.9375 48.335938 168.847656 47.765625 C 168.761719 47.191406 168.730469 46.617188 168.761719 46.039062 C 168.789062 45.460938 168.878906 44.894531 169.023438 44.335938 C 169.167969 43.773438 169.367188 43.234375 169.621094 42.714844 C 169.878906 42.195312 170.183594 41.707031 170.535156 41.25 C 170.890625 40.792969 171.285156 40.375 171.726562 40 C 172.164062 39.625 172.636719 39.292969 173.144531 39.015625 C 173.648438 38.734375 174.175781 38.507812 174.730469 38.332031 C 175.28125 38.160156 175.84375 38.046875 176.421875 37.988281 C 176.996094 37.929688 177.570312 37.929688 178.148438 37.988281 L 236.023438 43.886719 C 236.375 43.921875 236.722656 43.992188 237.0625 44.09375 C 237.398438 44.195312 237.726562 44.328125 238.039062 44.492188 C 238.355469 44.65625 238.648438 44.847656 238.925781 45.066406 C 239.203125 45.289062 239.457031 45.53125 239.6875 45.800781 C 239.917969 46.070312 240.121094 46.359375 240.296875 46.664062 C 240.472656 46.972656 240.617188 47.292969 240.734375 47.628906 C 240.847656 47.964844 240.929688 48.308594 240.976562 48.65625 C 241.027344 49.007812 241.042969 49.359375 241.023438 49.714844 C 241.007812 50.066406 240.957031 50.414062 240.871094 50.757812 C 240.785156 51.101562 240.671875 51.4375 240.523438 51.757812 C 240.375 52.078125 240.199219 52.382812 239.992188 52.671875 C 239.785156 52.960938 239.554688 53.226562 239.296875 53.46875 C 239.042969 53.714844 238.765625 53.929688 238.464844 54.121094 C 238.167969 54.3125 237.855469 54.476562 237.527344 54.605469 C 237.199219 54.738281 236.859375 54.835938 236.511719 54.902344 C 236.164062 54.96875 235.8125 55.003906 235.457031 55.003906 Z M 177.265625 42.035156 C 176.976562 42.035156 176.6875 42.066406 176.402344 42.125 C 176.117188 42.179688 175.839844 42.265625 175.574219 42.378906 C 175.304688 42.488281 175.050781 42.628906 174.808594 42.789062 C 174.566406 42.953125 174.34375 43.136719 174.140625 43.339844 C 173.933594 43.546875 173.75 43.769531 173.589844 44.011719 C 173.429688 44.253906 173.292969 44.511719 173.179688 44.777344 C 173.070312 45.046875 172.988281 45.324219 172.929688 45.609375 C 172.875 45.894531 172.84375 46.183594 172.84375 46.472656 C 172.84375 46.765625 172.875 47.054688 172.929688 47.339844 C 172.988281 47.625 173.074219 47.902344 173.183594 48.171875 C 173.296875 48.441406 173.433594 48.695312 173.59375 48.9375 C 173.757812 49.179688 173.941406 49.402344 174.144531 49.609375 C 174.351562 49.816406 174.574219 50 174.816406 50.160156 C 175.058594 50.324219 175.316406 50.460938 175.585938 50.570312 C 175.855469 50.683594 176.132812 50.769531 176.417969 50.824219 C 176.703125 50.882812 176.992188 50.910156 177.28125 50.910156 L 235.457031 50.910156 C 235.648438 50.910156 235.828125 50.875 236.003906 50.804688 C 236.179688 50.734375 236.335938 50.632812 236.472656 50.503906 C 236.613281 50.371094 236.71875 50.21875 236.796875 50.046875 C 236.878906 49.875 236.921875 49.695312 236.929688 49.507812 C 236.941406 49.316406 236.914062 49.132812 236.855469 48.953125 C 236.792969 48.773438 236.699219 48.613281 236.578125 48.46875 C 236.453125 48.324219 236.308594 48.210938 236.140625 48.121094 C 235.972656 48.03125 235.796875 47.980469 235.609375 47.957031 L 177.730469 42.058594 C 177.578125 42.042969 177.421875 42.035156 177.265625 42.035156 Z M 177.265625 42.035156 " fill-opacity="1" fill-rule="nonzero"/></g><path fill="#fffefe" d="M 216.5625 291.183594 L 158.410156 291.183594 C 157.746094 291.179688 157.085938 291.117188 156.433594 290.984375 C 155.78125 290.855469 155.148438 290.660156 154.535156 290.40625 C 153.921875 290.152344 153.335938 289.839844 152.785156 289.46875 C 152.230469 289.101562 151.71875 288.679688 151.25 288.210938 C 150.78125 287.742188 150.359375 287.230469 149.988281 286.675781 C 149.621094 286.125 149.308594 285.539062 149.054688 284.925781 C 148.796875 284.3125 148.605469 283.679688 148.476562 283.027344 C 148.34375 282.375 148.28125 281.714844 148.277344 281.050781 L 148.277344 182.304688 C 148.28125 181.636719 148.34375 180.980469 148.476562 180.328125 C 148.605469 179.675781 148.796875 179.042969 149.054688 178.429688 C 149.308594 177.8125 149.621094 177.230469 149.988281 176.679688 C 150.359375 176.125 150.78125 175.613281 151.25 175.144531 C 151.71875 174.671875 152.230469 174.253906 152.785156 173.882812 C 153.335938 173.515625 153.921875 173.203125 154.535156 172.945312 C 155.148438 172.691406 155.78125 172.5 156.433594 172.371094 C 157.085938 172.238281 157.746094 172.171875 158.410156 172.171875 L 216.5625 172.171875 C 217.226562 172.171875 217.882812 172.238281 218.535156 172.371094 C 219.1875 172.5 219.820312 172.691406 220.4375 172.945312 C 221.050781 173.203125 221.632812 173.515625 222.1875 173.882812 C 222.738281 174.253906 223.25 174.671875 223.722656 175.144531 C 224.191406 175.613281 224.609375 176.125 224.980469 176.679688 C 225.351562 177.230469 225.664062 177.8125 225.917969 178.429688 C 226.171875 179.042969 226.363281 179.675781 226.496094 180.328125 C 226.625 180.980469 226.691406 181.636719 226.691406 182.304688 L 226.691406 281.050781 C 226.691406 281.714844 226.625 282.375 226.496094 283.027344 C 226.363281 283.679688 226.171875 284.3125 225.917969 284.925781 C 225.664062 285.539062 225.351562 286.125 224.980469 286.675781 C 224.609375 287.230469 224.191406 287.742188 223.722656 288.210938 C 223.25 288.679688 222.738281 289.101562 222.1875 289.46875 C 221.632812 289.839844 221.050781 290.152344 220.4375 290.40625 C 219.820312 290.660156 219.1875 290.855469 218.535156 290.984375 C 217.882812 291.117188 217.226562 291.179688 216.5625 291.183594 Z M 158.410156 176.265625 C 158.011719 176.265625 157.621094 176.304688 157.230469 176.382812 C 156.84375 176.460938 156.464844 176.574219 156.101562 176.726562 C 155.734375 176.878906 155.386719 177.0625 155.054688 177.285156 C 154.726562 177.503906 154.421875 177.753906 154.140625 178.035156 C 153.863281 178.316406 153.609375 178.621094 153.390625 178.949219 C 153.171875 179.28125 152.984375 179.628906 152.832031 179.992188 C 152.679688 180.359375 152.566406 180.738281 152.488281 181.125 C 152.410156 181.515625 152.371094 181.90625 152.371094 182.304688 L 152.371094 281.050781 C 152.371094 281.445312 152.410156 281.839844 152.488281 282.226562 C 152.566406 282.617188 152.679688 282.996094 152.832031 283.359375 C 152.984375 283.726562 153.171875 284.074219 153.390625 284.402344 C 153.609375 284.734375 153.863281 285.039062 154.140625 285.320312 C 154.421875 285.597656 154.726562 285.847656 155.054688 286.070312 C 155.386719 286.289062 155.734375 286.476562 156.101562 286.628906 C 156.464844 286.78125 156.84375 286.894531 157.230469 286.972656 C 157.621094 287.050781 158.011719 287.089844 158.410156 287.089844 L 216.5625 287.089844 C 216.957031 287.089844 217.351562 287.050781 217.738281 286.972656 C 218.128906 286.894531 218.503906 286.78125 218.871094 286.628906 C 219.238281 286.476562 219.585938 286.289062 219.914062 286.070312 C 220.242188 285.847656 220.546875 285.597656 220.828125 285.320312 C 221.109375 285.039062 221.359375 284.734375 221.578125 284.402344 C 221.800781 284.074219 221.984375 283.726562 222.136719 283.359375 C 222.289062 282.996094 222.40625 282.617188 222.484375 282.226562 C 222.558594 281.839844 222.597656 281.445312 222.601562 281.050781 L 222.601562 182.304688 C 222.597656 181.90625 222.558594 181.515625 222.484375 181.125 C 222.40625 180.738281 222.289062 180.359375 222.136719 179.992188 C 221.984375 179.628906 221.800781 179.28125 221.578125 178.949219 C 221.359375 178.621094 221.109375 178.316406 220.828125 178.035156 C 220.546875 177.753906 220.242188 177.503906 219.914062 177.285156 C 219.585938 177.066406 219.238281 176.878906 218.871094 176.726562 C 218.503906 176.574219 218.128906 176.460938 217.738281 176.382812 C 217.351562 176.304688 216.957031 176.265625 216.5625 176.265625 Z M 158.410156 176.265625 " fill-opacity="1" fill-rule="nonzero"/></svg>